<svg width="42" height="42" viewBox="0 0 42 42" fill="none" xmlns="http://www.w3.org/2000/svg">
<path d="M0 22.2312C0.327031 21.5224 0.888125 21.3059 1.65156 21.3168C4.00094 21.3496 6.35031 21.3288 8.69969 21.3288C8.84735 21.3288 8.995 21.3288 9.1886 21.3288C9.1886 21.5071 9.1886 21.6526 9.1886 21.798C9.1886 24.1748 9.18641 26.5515 9.1886 28.9282C9.19078 31.2371 10.7647 32.811 13.0736 32.8132C15.4361 32.8154 17.7997 32.8132 20.1622 32.8132C20.312 32.8132 20.4608 32.8132 20.6719 32.8132C20.6719 32.974 20.6719 33.1173 20.6719 33.2606C20.6719 35.6231 20.6511 37.9866 20.6839 40.3491C20.6938 41.1115 20.4772 41.6726 19.7695 42.0007C13.4805 42.0007 7.19141 42.0007 0.902344 42.0007C0.496563 41.8049 0.195781 41.5041 0 41.0984C0 34.8093 0 28.5202 0 22.2312Z" fill="white"/>
<path d="M0 41.0977C0.195781 41.5034 0.496563 41.8042 0.902344 42C0.601563 42 0.300781 42 0 42C0 41.6992 0 41.3984 0 41.0977Z" fill="#4CAF50"/>
<path d="M42 15.1758C42 19.7411 42 24.3053 42 28.8706C42 29.8889 41.5406 30.3516 40.5289 30.3516C31.3994 30.3516 22.2688 30.3516 13.1392 30.3516C12.1002 30.3516 11.6484 29.8966 11.6484 28.8499C11.6484 19.7334 11.6484 10.617 11.6484 1.50063C11.6484 0.453906 12.0991 0 13.1392 0C22.2688 0 31.3994 0 40.5289 0C41.5417 0 42 0.461563 42 1.48094C42 6.04625 42 10.6105 42 15.1758ZM19.0313 21.093C19.0313 20.5352 19.0356 19.9533 19.0302 19.3714C19.0236 18.6047 18.5161 18.0556 17.8139 18.048C17.0964 18.0392 16.5736 18.5959 16.5714 19.3845C16.567 20.9431 16.5681 22.5017 16.5714 24.0603C16.5736 24.9331 17.0702 25.4275 17.9484 25.4286C19.4928 25.4319 21.0383 25.4319 22.5827 25.4286C23.3877 25.4275 23.94 24.9342 23.952 24.2167C23.9641 23.485 23.4008 22.972 22.5783 22.9688C22.0117 22.9666 21.4452 22.9688 20.9114 22.9688C25.4844 18.3958 30.0464 13.8327 34.6172 9.26297C34.6172 9.80547 34.615 10.3731 34.6183 10.9419C34.6227 11.7425 35.1214 12.297 35.8378 12.3036C36.5553 12.3102 37.0759 11.7545 37.077 10.9627C37.0814 9.39094 37.0825 7.81813 37.077 6.24641C37.0738 5.42719 36.5652 4.92516 35.7383 4.92297C34.1797 4.9186 32.6211 4.91969 31.0625 4.92297C30.2619 4.92406 29.7052 5.42281 29.6964 6.13703C29.6877 6.86875 30.2499 7.37844 31.0734 7.38281C31.64 7.385 32.2066 7.38281 32.7392 7.38281C28.1663 11.9569 23.6031 16.52 19.0313 21.093Z" fill="#4CAF50"/>
</svg>
