<svg width="43" height="42" viewBox="0 0 43 42" fill="none" xmlns="http://www.w3.org/2000/svg">
<path d="M21.607 7.97384C21.2016 7.97384 20.8576 7.97384 20.4606 7.97384C20.4388 7.70109 20.4147 7.43559 20.3966 7.17129C20.3157 5.92826 19.3261 5.04607 18.0602 5.09313C16.8895 5.13658 15.9579 6.10325 15.9615 7.27267C15.9651 8.47346 16.9258 9.416 18.1688 9.43531C18.4669 9.44014 18.7638 9.43652 19.0956 9.43652C19.2405 11.6136 19.3817 13.7461 19.5265 15.916C19.0546 15.916 18.6117 15.916 18.1278 15.916C18.0916 15.7338 18.0578 15.5286 18.0095 15.3283C17.7548 14.2566 17.1297 13.4335 16.3042 12.73C15.031 11.6462 14.255 10.2668 13.9171 8.63035C12.9384 3.88992 17.1442 -0.609143 21.9329 0.0896121C24.9874 0.534933 27.0571 2.26191 27.9405 5.19571C28.8275 8.13917 28.0117 10.7097 25.7127 12.7577C24.7484 13.617 24.0847 14.6042 23.9447 15.9256C23.4776 15.9256 23.0347 15.9256 22.5315 15.9256C22.6739 13.7654 22.8163 11.6245 22.9611 9.43531C23.3075 9.43531 23.62 9.44134 23.9326 9.4341C25.1225 9.40635 26.0699 8.47829 26.0953 7.31853C26.1206 6.1479 25.2058 5.1583 24.0424 5.09434C22.7982 5.02676 21.7736 5.8824 21.6674 7.08078C21.6433 7.36439 21.6288 7.64799 21.607 7.97384Z" fill="#4CAF50"/>
<path d="M15.9613 20.3174C19.3513 20.3174 22.693 20.3174 26.0781 20.3174C26.0854 20.4646 26.0974 20.6094 26.0974 20.753C26.0986 22.9555 26.1011 25.1568 26.0974 27.3592C26.0938 29.1936 24.8653 30.421 23.0321 30.4258C21.6901 30.4294 20.3469 30.4294 19.0049 30.4258C17.2019 30.4198 15.9661 29.1852 15.9625 27.3822C15.9576 25.0445 15.9613 22.7081 15.9613 20.3174ZM18.8758 27.533C19.9185 27.533 20.9117 27.5644 21.9025 27.5246C23.0454 27.4787 23.9879 26.4276 23.8708 25.38C23.4243 25.38 22.9754 25.38 22.5288 25.38C22.2549 26.0136 22.1402 26.0884 21.4391 26.0897C20.587 26.0897 19.7362 26.0897 18.8758 26.0897C18.8758 26.5953 18.8758 27.0418 18.8758 27.533Z" fill="white"/>
<path d="M42.0176 42.0003C41.0388 42.0003 40.1108 42.0003 39.1477 42.0003C39.1477 40.5702 39.1477 39.1582 39.1477 37.7112C38.6589 37.7112 38.2016 37.7112 37.6935 37.7112C37.6935 39.1256 37.6935 40.5485 37.6935 41.9955C34.7874 41.9955 31.9309 41.9955 29.0381 41.9955C29.172 40.2347 29.7803 38.6767 30.8242 37.2864C31.7378 36.0699 32.8939 35.1431 34.283 34.5216C35.0928 34.1595 35.9146 33.8204 36.7425 33.4982C36.9187 33.4294 37.1589 33.4294 37.3411 33.4885C39.9623 34.3369 41.8884 36.8592 42.0115 39.6144C42.0465 40.394 42.0176 41.1772 42.0176 42.0003Z" fill="white"/>
<path d="M36.2393 20.2964C36.2393 21.525 36.2393 22.6968 36.2393 23.9169C36.4625 23.9169 36.6532 23.9205 36.8439 23.9157C37.1903 23.9072 37.4715 24.0219 37.6114 24.3562C37.7587 24.7086 37.7032 25.0356 37.4304 25.3132C37.1335 25.6137 36.8487 25.9275 36.5313 26.205C36.2924 26.415 36.226 26.6468 36.2284 26.9557C36.2417 28.5535 36.2272 30.1526 36.2417 31.7504C36.2441 32.0365 36.1584 32.1692 35.8893 32.2742C35.0518 32.6025 34.2275 32.9657 33.3441 33.3374C33.3441 32.1137 33.3441 30.9346 33.3441 29.7073C32.9434 29.7073 32.585 29.7121 32.2278 29.7061C31.1983 29.688 30.4622 28.9615 30.4453 27.9369C30.4344 27.2888 30.4308 26.6395 30.4489 25.9914C30.4561 25.7296 30.3837 25.5691 30.1327 25.4737C29.9372 25.4001 29.7489 25.2975 29.5679 25.1913C29.0973 24.9113 28.88 24.4322 29.0429 23.9181C29.4014 22.7849 29.7815 21.6577 30.1725 20.5342C30.2087 20.4316 30.3741 20.3049 30.4803 20.3049C32.3786 20.2928 34.277 20.2964 36.2393 20.2964Z" fill="white"/>
<path d="M5.82869 23.9173C5.82869 22.6864 5.82869 21.5157 5.82869 20.3174C5.94576 20.3089 6.03144 20.298 6.11833 20.298C7.8972 20.2968 9.67607 20.3029 11.4549 20.292C11.7216 20.2908 11.852 20.3596 11.9377 20.6287C12.2635 21.6618 12.6231 22.6839 12.9599 23.7146C13.2036 24.4568 13.0286 24.9757 12.3166 25.2738C11.7373 25.5164 11.5382 25.8567 11.6058 26.4637C11.6613 26.9549 11.6251 27.4582 11.6142 27.9554C11.5925 28.9571 10.8636 29.686 9.86433 29.7101C9.5047 29.7186 9.14386 29.7113 8.74198 29.7113C8.74198 30.9194 8.74198 32.1021 8.74198 33.3451C7.78738 32.9444 6.88708 32.5751 5.99886 32.1769C5.9011 32.1334 5.83352 31.9174 5.83231 31.781C5.82145 30.153 5.83593 28.525 5.813 26.897C5.80938 26.6749 5.68146 26.4203 5.53664 26.2417C5.282 25.9267 4.97546 25.6528 4.681 25.3728C4.38774 25.0928 4.2924 24.7645 4.43601 24.388C4.58083 24.0066 4.89823 23.9028 5.27597 23.9185C5.43768 23.9234 5.60181 23.9173 5.82869 23.9173Z" fill="white"/>
<path d="M17.7211 40.5931C18.8688 39.443 19.9405 38.3689 21.0218 37.2852C22.1092 38.3762 23.1796 39.4514 24.3346 40.61C24.804 38.5101 25.2469 36.5261 25.7224 34.3984C26.4115 34.8232 27.0777 35.1648 27.6618 35.6149C28.1445 35.9878 28.5392 36.479 28.9483 36.9388C29.0304 37.0317 29.0726 37.2635 29.0159 37.3624C28.2109 38.7539 27.7354 40.2467 27.5846 41.8458C27.581 41.8892 27.558 41.9315 27.5375 41.9966C23.205 41.9966 18.8688 41.9966 14.5761 41.9966C14.3662 41.1024 14.2093 40.2105 13.9389 39.3549C13.7314 38.7008 13.3717 38.0962 13.0966 37.4614C13.0399 37.331 12.9928 37.1186 13.058 37.0269C13.8943 35.8623 14.9853 35.026 16.3647 34.4962C16.8136 36.5225 17.2553 38.5029 17.7211 40.5931Z" fill="white"/>
<path d="M9.73985 38.6924C10.0741 38.031 10.3903 37.4047 10.7089 36.7747C11.754 37.4626 12.9271 40.1273 13.0079 41.9918C10.1502 41.9918 7.2936 41.9918 4.38755 41.9918C4.38755 40.5702 4.38755 39.1473 4.38755 37.7003C3.89275 37.7003 3.44622 37.7003 2.95022 37.7003C2.95022 39.1135 2.95022 40.5364 2.95022 41.9894C1.96182 41.9894 1.02291 41.9894 0.0839932 41.9894C-0.191164 38.8951 0.239674 36.0615 3.45708 34.063C3.78655 33.859 4.15343 33.7142 4.57099 33.5078C4.75322 34.2198 4.94028 34.8788 5.0851 35.5462C5.15148 35.8539 5.30112 36.0409 5.56663 36.1966C6.95086 37.0124 8.32665 37.8452 9.73985 38.6924Z" fill="white"/>
<path d="M5.07957 7.28711C5.07957 11.1333 5.07957 14.9577 5.07957 18.8135C4.13944 18.8135 3.19932 18.8135 2.23145 18.8135C2.23145 14.9807 2.23145 11.1466 2.23145 7.28711C3.16915 7.28711 4.09841 7.28711 5.07957 7.28711Z" fill="#4CAF50"/>
<path d="M6.5791 7.2627C7.46733 7.2627 8.32539 7.2627 9.18224 7.2639C9.25464 7.2639 9.32585 7.27356 9.41998 7.27959C9.41998 11.127 9.41998 14.9514 9.41998 18.8109C8.49072 18.8109 7.5506 18.8109 6.5791 18.8109C6.5791 14.9888 6.5791 11.1547 6.5791 7.2627Z" fill="#4CAF50"/>
<path d="M32.5825 4.34447C32.1022 4.34447 31.6557 4.34447 31.2128 4.34447C31.0124 2.82025 32.0225 1.10655 33.5769 0.41624C35.8627 -0.601118 38.9316 0.226767 39.704 3.11713C40.1252 4.69204 39.704 6.07869 38.5201 7.19259C37.907 7.76946 37.224 8.27271 36.559 8.79044C36.3249 8.97267 36.2163 9.16093 36.2271 9.46868C36.2525 10.159 36.2344 10.8517 36.2344 11.5746C35.7529 11.5746 35.2967 11.5746 34.7874 11.5746C34.7874 10.5524 34.7777 9.53264 34.7995 8.51287C34.8019 8.38494 34.9551 8.2365 35.0734 8.13995C35.8313 7.51964 36.6037 6.91744 37.3616 6.29713C38.3113 5.51993 38.6408 4.36016 38.2401 3.2535C37.8479 2.16735 36.8619 1.48428 35.666 1.4686C33.7966 1.44567 32.8034 2.36286 32.5825 4.34447Z" fill="#4CAF50"/>
<path d="M37.6841 20.3184C39.1637 20.3184 40.5733 20.3184 41.9817 20.3184C42.4197 24.3721 40.7712 27.6124 37.6853 29.1886C37.6853 28.5236 37.6781 27.884 37.6926 27.2444C37.695 27.143 37.7843 27.0295 37.8603 26.9475C38.0739 26.7146 38.3105 26.5034 38.5229 26.2692C39.5427 25.1505 39.2699 23.4634 37.9617 22.7127C37.8422 22.6439 37.701 22.4894 37.6962 22.37C37.6709 21.6966 37.6841 21.0219 37.6841 20.3184Z" fill="white"/>
<path d="M4.37459 20.3186C4.37459 21.0354 4.38304 21.7258 4.36373 22.4136C4.36131 22.5102 4.23822 22.6345 4.13926 22.6924C2.73451 23.5143 2.46418 25.2364 3.64204 26.3515C4.20443 26.8837 4.49889 27.422 4.38304 28.192C4.33718 28.5009 4.3758 28.8219 4.3758 29.1405C1.79921 28.6035 -0.452734 23.9765 0.0782717 20.3174C1.48544 20.3186 2.89501 20.3186 4.37459 20.3186Z" fill="white"/>
<path d="M8.98807 5.79684C6.84836 5.79684 4.78951 5.79684 2.7041 5.79684C2.72462 5.7184 2.72945 5.65926 2.75479 5.60858C3.6225 3.87195 4.4878 2.13411 5.36275 0.401104C5.58963 -0.0466304 6.02047 -0.104558 6.22805 0.300937C7.15369 2.10636 8.05157 3.92505 8.98807 5.79684Z" fill="#4CAF50"/>
<path d="M37.6818 15.2327C37.6794 16.4347 36.6886 17.4122 35.4842 17.3989C34.3015 17.3857 33.3384 16.4081 33.3408 15.223C33.3432 14.021 34.334 13.0447 35.5397 13.0568C36.7224 13.0688 37.6842 14.0451 37.6818 15.2327Z" fill="#4CAF50"/>
<path d="M21.0454 35.2142C20.3672 34.5336 19.7372 33.9109 19.1229 33.2736C19.0493 33.1976 19.0143 33.0323 19.0372 32.9261C19.2677 31.8761 19.2726 31.8761 20.343 31.8761C21.0056 31.8761 21.6681 31.8846 22.3307 31.8713C22.572 31.8665 22.677 31.9425 22.7929 32.1742C23.1332 32.8488 23.0331 33.3461 22.4236 33.8252C21.9324 34.2126 21.5318 34.7158 21.0454 35.2142Z" fill="white"/>
<path d="M23.906 17.4307C23.906 17.9086 23.906 18.3551 23.906 18.8246C21.9932 18.8246 20.0996 18.8246 18.1699 18.8246C18.1699 18.3768 18.1699 17.9206 18.1699 17.4307C20.0622 17.4307 21.9654 17.4307 23.906 17.4307Z" fill="#4CAF50"/>
<path d="M6.28097 33.8018C7.40815 34.3786 8.53533 34.9543 9.69509 35.548C9.47665 35.9861 9.31856 36.3023 9.14598 36.6475C8.26862 36.1237 7.39125 35.6784 6.61767 35.0955C6.33045 34.8795 6.28459 34.3412 6.12891 33.949C6.1808 33.9007 6.23149 33.8512 6.28097 33.8018Z" fill="white"/>
<path d="M21.5076 9.46191C21.3652 11.6065 21.2252 13.7184 21.0852 15.8304C21.049 15.8316 21.0128 15.8328 20.9778 15.8328C20.8366 13.7196 20.6954 11.6065 20.5518 9.46191C20.874 9.46191 21.1528 9.46191 21.5076 9.46191Z" fill="#4CAF50"/>
<path d="M18.5298 37.5597C18.2812 36.4446 18.0289 35.3126 17.7646 34.1299C18.4731 34.889 19.1428 35.607 19.7728 36.2829C19.4506 36.6147 19.0004 37.077 18.5298 37.5597Z" fill="white"/>
<path d="M24.276 34.2129C24.0286 35.3196 23.7776 36.4455 23.5277 37.5655C23.0692 37.0864 22.6299 36.6266 22.2461 36.2259C22.8809 35.5971 23.5869 34.896 24.276 34.2129Z" fill="white"/>
<path d="M18.9869 7.96323C18.6382 7.96323 18.2954 8.00065 17.9647 7.95358C17.6051 7.90169 17.3758 7.5324 17.4168 7.18242C17.4603 6.81071 17.7704 6.54521 18.1663 6.53917C18.5645 6.53314 18.8662 6.77209 18.9399 7.15466C18.9483 7.1981 18.9483 7.24396 18.9507 7.28982C18.9628 7.4986 18.9737 7.70859 18.9869 7.96323Z" fill="#4CAF50"/>
<path d="M23.0693 7.98557C23.0862 7.68265 23.085 7.42681 23.12 7.17578C23.1792 6.7546 23.5279 6.50237 23.9612 6.54099C24.3498 6.57599 24.6394 6.87649 24.6455 7.2494C24.6527 7.65731 24.3486 7.96022 23.8936 7.98195C23.6414 7.99522 23.3867 7.98557 23.0693 7.98557Z" fill="#4CAF50"/>
</svg>
