<svg width="58" height="47" viewBox="0 0 58 47" fill="none" xmlns="http://www.w3.org/2000/svg">
<g clip-path="url(#clip0_1500_640)">
<path d="M0 35.2623C7.40104 35.2623 14.8006 35.2728 22.2016 35.2578C27.615 35.2474 32.2534 31.7122 33.6853 26.5505C35.5039 19.9909 31.1327 13.1491 24.3766 11.9826C24.2482 11.9602 24.1153 11.9617 23.931 11.9483C23.931 13.521 23.931 15.0787 23.931 16.7978C20.4707 13.9481 17.1221 11.191 13.7116 8.38022C17.1009 5.58581 20.4435 2.83025 23.8782 0C23.8782 1.74743 23.8782 3.40526 23.8782 5.09145C25.8508 5.29906 27.6905 5.73815 29.4577 6.46999C36.679 9.46153 41.2903 16.7141 40.8779 24.4447C40.4052 33.2774 33.711 40.527 24.8509 41.7711C23.8646 41.91 22.8586 41.9698 21.8618 41.9728C14.574 41.9907 7.28776 41.9832 0 41.9832C0 39.7429 0 37.5026 0 35.2623Z" fill="#4CAF50"/>
<path d="M47.6914 35.2624C47.6914 33.5821 47.6914 31.9661 47.6914 30.2217C51.1638 33.0519 54.5472 35.8075 58 38.6228C54.5759 41.4142 51.1925 44.1728 47.7231 47C47.7231 45.2944 47.7231 43.6739 47.7231 42.0101C43.1496 42.0101 38.647 42.0101 34.001 42.0101C34.2004 41.8384 34.291 41.7413 34.3982 41.6711C36.833 40.0685 38.8721 38.0732 40.4943 35.6686C40.7163 35.34 40.9549 35.2519 41.3265 35.2549C43.4214 35.2698 45.5149 35.2624 47.6914 35.2624Z" fill="white"/>
<path d="M9.93146 9.63965C11.6941 11.0943 13.4447 12.5356 15.2028 13.9873C9.32729 18.2573 8.62495 26.6241 13.8117 31.8619C13.635 31.8769 13.496 31.9008 13.3571 31.9008C10.9238 31.9023 8.48901 31.8993 6.05573 31.9067C5.77177 31.9082 5.58901 31.8649 5.43797 31.5707C1.71026 24.3345 3.56203 14.994 9.78646 9.72478C9.81365 9.70088 9.8499 9.68595 9.93146 9.63965Z" fill="white"/>
</g>
<defs>
<clipPath id="clip0_1500_640">
<rect width="58" height="47" fill="white"/>
</clipPath>
</defs>
</svg>
