<svg width="42" height="42" viewBox="0 0 42 42" fill="none" xmlns="http://www.w3.org/2000/svg">
<path d="M0.00109364 16.0807C0.00109364 15.698 0.00109364 15.3152 0.00109364 14.9324C0.0240601 14.9007 0.0601502 14.8712 0.0678057 14.8362C0.299657 13.6594 0.977714 12.8228 2.00464 12.2311C3.13984 11.5771 4.26519 10.9035 5.38508 10.2221C5.53163 10.1335 5.67052 9.96402 5.72411 9.80216C6.17688 8.44386 6.66792 7.09321 7.0332 5.70976C7.48159 4.01352 9.20188 2.83239 11.0239 3.00847C12.4784 3.14955 13.9384 3.23267 15.3952 3.35953C15.6795 3.38468 15.884 3.31141 16.0918 3.1233C16.8814 2.40697 17.6842 1.70594 18.4825 0.999453C19.9852 -0.330412 22.004 -0.333693 23.5089 0.992891C24.3083 1.6972 25.1122 2.39712 25.8974 3.11893C26.1216 3.32453 26.3447 3.38031 26.6345 3.35625C28.0639 3.23595 29.4944 3.13314 30.9249 3.01831C32.9864 2.85317 34.5448 3.97962 35.0249 5.98536C35.3049 7.15336 35.5761 8.32356 35.8769 9.485C35.925 9.66983 36.0759 9.87434 36.2388 9.97495C37.4943 10.7471 38.7662 11.494 40.0305 12.253C41.8514 13.3477 42.4463 15.1522 41.6381 17.1164C41.1504 18.303 40.6517 19.4841 40.1814 20.6773C40.1114 20.8545 40.107 21.106 40.177 21.2821C40.6407 22.4632 41.1329 23.6323 41.6163 24.8058C42.4551 26.84 41.8634 28.6215 39.9682 29.7567C38.7389 30.4938 37.5118 31.2353 36.2738 31.9593C36.042 32.0949 35.914 32.2546 35.8539 32.5127C35.5859 33.6687 35.2972 34.8203 35.0271 35.9762C34.839 36.7833 34.4792 37.4865 33.8591 38.0465C32.9262 38.8897 31.814 39.0559 30.6088 38.9422C29.2625 38.8142 27.913 38.7213 26.5634 38.636C26.3852 38.625 26.1599 38.7016 26.021 38.8164C25.3899 39.3403 24.7698 39.8761 24.1705 40.4361C23.393 41.1634 22.5738 41.8031 21.49 42C21.1619 42 20.8338 42 20.5057 42C19.4405 41.8021 18.6258 41.1809 17.858 40.4634C17.2598 39.9035 16.6397 39.3654 16.0065 38.847C15.849 38.718 15.5964 38.6272 15.3952 38.6403C13.8958 38.7322 12.4008 38.8875 10.9003 38.9597C8.89457 39.057 7.43894 37.9262 6.97195 35.9762C6.69526 34.8224 6.41092 33.6697 6.14516 32.5138C6.08173 32.2404 5.94831 32.0676 5.70442 31.9254C4.43033 31.1839 3.16718 30.426 1.89965 29.6725C0.920845 29.0907 0.287627 28.2617 0.0688993 27.132C0.0590565 27.0817 0.0240601 27.0368 0 26.9887C0 26.6333 0 26.2778 0 25.9224C0.15311 25.4893 0.289815 25.0497 0.460422 24.6243C0.912095 23.5011 1.38673 22.3878 1.82966 21.2613C1.89418 21.0962 1.88981 20.861 1.82528 20.6948C1.23034 19.1528 0.612438 17.6173 0.00109364 16.0807ZM20.9869 34.5348C28.4456 34.5425 34.5317 28.4629 34.5328 21.0021C34.5339 13.5566 28.4817 7.48911 21.0318 7.46724C13.5743 7.44646 7.4805 13.5151 7.46628 20.9781C7.45097 28.4356 13.5272 34.5272 20.9869 34.5348Z" fill="white"/>
<path d="M21.0096 9.92872C27.1198 9.93418 32.0893 14.9212 32.0729 21.0313C32.0565 27.124 27.0826 32.0804 20.9899 32.0749C14.8831 32.0694 9.91137 27.0792 9.92777 20.9712C9.94309 14.8785 14.9159 9.92325 21.0096 9.92872ZM19.7858 23.0732C19.5966 22.8304 19.5168 22.7002 19.4107 22.5942C18.2154 21.3944 17.0157 20.1991 15.8192 18.9994C15.4682 18.6472 15.0657 18.4547 14.5637 18.5805C13.5849 18.8255 13.3049 19.9596 14.0475 20.7087C15.5863 22.2606 17.136 23.8015 18.6813 25.3468C19.4545 26.12 20.0822 26.12 20.8565 25.3468C23.175 23.0294 25.4935 20.7109 27.811 18.3924C27.9269 18.2765 28.0461 18.1605 28.1402 18.0282C28.6728 17.2769 28.2528 16.251 27.3484 16.099C26.8595 16.017 26.4822 16.2314 26.1443 16.5704C24.1396 18.5838 22.1273 20.5895 20.1216 22.6018C20.0177 22.7068 19.9466 22.8457 19.7858 23.0732Z" fill="#4CAF50"/>
</svg>
