<svg width="27" height="26" viewBox="0 0 27 26" fill="none" xmlns="http://www.w3.org/2000/svg">
<path d="M0.918701 13.8936C0.918701 13.4566 0.918701 13.0262 0.918701 12.5891C0.93214 12.4964 0.945579 12.4037 0.959017 12.3044C1.04637 11.6886 1.07997 11.0662 1.22107 10.4636C1.89301 7.50374 3.4519 5.08023 5.9112 3.25929C8.71317 1.1801 11.8847 0.378884 15.3586 0.882127C17.9254 1.25294 20.1764 2.33226 22.0377 4.08037C25.2227 7.07334 26.5262 10.755 25.861 15.0723C25.5519 17.0521 24.8195 18.8598 23.61 20.4689C21.6077 23.1308 18.8997 24.6802 15.6207 25.3026C15.1571 25.3887 14.6867 25.4351 14.2163 25.4947C13.7729 25.4947 13.3361 25.4947 12.8926 25.4947C12.4021 25.4417 11.8982 25.402 11.4144 25.3225C9.02898 24.9186 6.92582 23.932 5.12503 22.3362C2.86732 20.3431 1.50329 17.86 1.05309 14.8935C1.00605 14.5624 0.965737 14.2313 0.918701 13.8936ZM6.69064 22.2302C7.69183 22.9652 8.77365 23.5281 9.94954 23.8922C12.2879 24.6206 14.6262 24.6206 16.9713 23.8989C17.1594 23.8393 17.2199 23.7664 17.2132 23.5678C17.1393 20.9787 16.7764 18.436 16.0574 15.9397C15.9163 15.4497 15.7618 14.9597 15.6073 14.4697C11.9519 15.5424 8.37049 18.5221 6.69064 22.2302ZM5.80369 21.5482C7.85981 17.6017 10.991 14.9067 15.2444 13.4433C14.9622 12.7745 14.6934 12.1256 14.4045 11.4502C12.4223 12.2448 10.3863 12.6421 8.26969 12.6421C6.15309 12.6421 4.1104 12.2382 2.11475 11.4436C1.63767 15.4497 2.8606 18.787 5.80369 21.5482ZM2.34321 10.3974C6.20013 11.9468 10.0503 11.98 13.9274 10.51C13.0069 8.39766 10.0033 4.21942 8.49815 2.94145C5.67602 4.21942 3.15625 7.01374 2.34321 10.3974ZM14.9084 10.0531C17.4752 8.79496 19.5045 6.99388 21.0298 4.63658C17.7978 1.75618 13.1278 1.12713 9.57997 2.51104C11.7235 4.76902 13.4974 7.27861 14.9084 10.0531ZM24.8531 14.3968C22.1452 13.5758 19.4171 13.4963 16.7092 14.1452C17.0721 15.6748 17.4752 17.1779 17.7843 18.7075C18.1001 20.2437 18.2211 21.8064 18.2681 23.389C22.0982 21.7601 24.5171 18.105 24.8531 14.3968ZM24.9741 13.3175C24.9808 10.2517 23.946 7.62293 21.8428 5.37158C20.2033 7.83482 18.0598 9.70874 15.3922 11.0198C15.6879 11.735 15.9835 12.4302 16.2859 13.152C19.1887 12.4236 22.078 12.4832 24.9741 13.3175Z" fill="#CCCCCC"/>
<path d="M18.2167 15.4805C18.6066 16.134 19.39 18.1704 19.4044 21.0875" stroke="#4CAF50" stroke-width="1.5" stroke-linecap="round"/>
<path d="M4.35992 8.98193C5.6104 9.59441 8.78508 10.4519 11.48 8.98193" stroke="#4CAF50" stroke-width="1.5" stroke-linecap="round"/>
</svg>
