<svg width="15" height="26" viewBox="0 0 15 26" fill="none" xmlns="http://www.w3.org/2000/svg">
<path d="M10.0586 9.0944C10.9711 9.0944 11.8559 9.09808 12.7408 9.09255C13.1961 9.08887 13.6034 9.21237 13.8376 9.61607C13.9684 9.84096 14.0588 10.1248 14.0643 10.3848C14.0864 11.6088 14.079 12.8328 14.0717 14.0568C14.068 14.8236 13.5647 15.3268 12.7979 15.3342C11.9758 15.3416 11.1554 15.3361 10.3333 15.3361C10.2448 15.3361 10.1582 15.3361 10.0365 15.3361C10.0365 15.4559 10.0365 15.5573 10.0365 15.6605C10.0365 18.4716 10.0384 21.2809 10.031 24.0921C10.031 24.3206 10.007 24.5677 9.91855 24.7741C9.71393 25.2589 9.31024 25.4893 8.78856 25.4912C7.50004 25.4949 6.21153 25.4967 4.92301 25.4912C4.19488 25.4875 3.71192 25.0248 3.66583 24.3022C3.6603 24.2064 3.66215 24.1087 3.66215 24.0128C3.66215 21.2348 3.66215 18.4569 3.66215 15.6789C3.66215 15.5757 3.66215 15.4725 3.66215 15.3397C3.55339 15.3397 3.46675 15.3397 3.38195 15.3397C2.73862 15.3397 2.09344 15.3434 1.4501 15.3397C0.646389 15.3342 0.152366 14.8457 0.148679 14.0457C0.143149 12.8217 0.143149 11.5977 0.148679 10.3737C0.152366 9.59395 0.635329 9.10914 1.41508 9.10177C2.06763 9.0944 2.72018 9.09993 3.37274 9.09993C3.45937 9.09993 3.54601 9.09993 3.66399 9.09993C3.66399 8.97089 3.6603 8.8695 3.66399 8.76812C3.70086 7.78007 3.65293 6.77912 3.79487 5.80582C4.07322 3.90346 5.03546 2.40849 6.75717 1.47021C7.59406 1.01305 8.49547 0.754983 9.4577 0.75314C10.6651 0.743923 11.8744 0.7642 13.0818 0.736549C13.5629 0.725489 14.0606 1.13103 14.1675 1.5974C14.1989 1.7375 14.2154 1.88497 14.2154 2.02691C14.2191 3.12925 14.2191 4.23343 14.2173 5.33576C14.2154 6.17818 13.727 6.66483 12.879 6.67221C12.1619 6.67774 11.4467 6.68142 10.7296 6.68695C10.6577 6.68695 10.584 6.69248 10.514 6.70539C10.1545 6.7699 10.0734 6.8418 10.0642 7.21231C10.0476 7.82984 10.0586 8.44737 10.0586 9.0944ZM1.61232 13.8835C1.73029 13.8835 1.81693 13.8835 1.90541 13.8835C2.687 13.8835 3.46859 13.8798 4.24834 13.8853C4.7866 13.889 5.09629 14.1968 5.11657 14.7388C5.12025 14.8107 5.11841 14.8844 5.11841 14.9563C5.11841 17.8799 5.11841 20.8035 5.11841 23.7271C5.11841 23.8266 5.11841 23.928 5.11841 24.0257C6.29264 24.0257 7.42447 24.0257 8.58026 24.0257C8.58026 23.9096 8.58026 23.8063 8.58026 23.7031C8.58026 20.7556 8.58026 17.808 8.58026 14.8605C8.58026 14.1784 8.87151 13.8853 9.54619 13.8853C10.4808 13.8853 11.4154 13.8853 12.3481 13.8853C12.4329 13.8853 12.5177 13.8853 12.6062 13.8853C12.6062 12.7572 12.6062 11.6641 12.6062 10.5488C12.5048 10.5488 12.4182 10.5488 12.3315 10.5488C11.3803 10.5488 10.431 10.5525 9.47983 10.547C8.95078 10.5451 8.59869 10.2631 8.58948 9.76538C8.57842 8.84738 8.56367 7.9257 8.62819 7.01139C8.70008 5.99753 9.26046 5.41318 10.2669 5.29336C10.9674 5.21041 11.6808 5.23806 12.3868 5.21963C12.5048 5.21594 12.6246 5.21963 12.7518 5.21963C12.7518 4.1855 12.7518 3.1827 12.7518 2.17807C12.7186 2.16701 12.6965 2.1541 12.6744 2.1541C11.6347 2.15779 10.5951 2.13198 9.55909 2.17254C8.48809 2.21493 7.50189 2.5449 6.68159 3.26565C5.64193 4.17812 5.20505 5.37447 5.14237 6.7146C5.09813 7.65472 5.12394 8.59853 5.12025 9.54049C5.11657 10.2465 4.82347 10.5451 4.12667 10.5451C3.47412 10.5451 2.82157 10.5451 2.16901 10.5451C1.98652 10.5451 1.80403 10.5451 1.61232 10.5451C1.61232 11.6696 1.61232 12.7627 1.61232 13.8835Z" fill="#CCCCCC"/>
<path d="M6.17511 22.124H7.54504" stroke="#4CAF50" stroke-width="1.5" stroke-linecap="round"/>
<path d="M6.34015 6.59155C6.38689 5.51568 7.31299 3.33588 10.6435 3.22363" stroke="#4CAF50" stroke-width="1.5" stroke-linecap="round"/>
</svg>
