<svg width="26" height="26" viewBox="0 0 26 26" fill="none" xmlns="http://www.w3.org/2000/svg">
<path d="M25.4486 7.0219C25.4486 11.0833 25.4486 15.1446 25.4486 19.206C25.4335 19.2839 25.421 19.3618 25.4034 19.4422C25.3104 19.8821 25.2601 20.337 25.1194 20.7592C24.1644 23.6343 21.6461 25.4765 18.6302 25.4865C14.9257 25.5016 11.2187 25.4916 7.51426 25.4891C6.34058 25.4891 5.2222 25.2302 4.20937 24.6371C1.90726 23.29 0.718501 21.2643 0.700909 18.5953C0.67829 14.9386 0.690856 11.2818 0.700909 7.62507C0.700909 7.16767 0.728554 6.70021 0.82657 6.25788C1.44482 3.48579 3.1312 1.70643 5.86809 0.939899C6.23 0.83937 6.6095 0.801672 6.97894 0.736328C11.0403 0.736328 15.1017 0.736328 19.163 0.736328C19.4169 0.77654 19.6707 0.804185 19.9195 0.859476C22.6941 1.48778 24.476 3.16913 25.2425 5.91105C25.3456 6.27296 25.3808 6.64994 25.4486 7.0219ZM23.9884 13.1366C23.9884 11.317 23.996 9.49491 23.9834 7.67534C23.9809 7.2506 23.9482 6.81833 23.8552 6.40616C23.2822 3.87786 21.1862 2.20405 18.5775 2.19651C14.9031 2.18646 11.2313 2.19148 7.55698 2.19651C6.77537 2.19651 6.01386 2.32468 5.30765 2.67151C3.23172 3.68434 2.17366 5.36317 2.15858 7.66277C2.13596 11.2969 2.14852 14.9285 2.15858 18.5626C2.15858 18.9798 2.19125 19.4045 2.28424 19.8092C2.85223 22.3375 4.94826 24.0188 7.55447 24.0289C11.2363 24.0414 14.9182 24.044 18.6001 24.0264C20.4347 24.0188 21.9175 23.2623 23.0007 21.7745C23.6919 20.8245 23.9884 19.7438 23.9884 18.5777C23.9909 16.7632 23.9884 14.9511 23.9884 13.1366Z" fill="#CCCCCC"/>
<path d="M19.8567 13.1239C19.8341 16.8837 16.7604 19.9423 13.0484 19.897C9.28109 19.8518 6.26523 16.8208 6.28785 13.1013C6.31047 9.34149 9.38414 6.28289 13.0962 6.32813C16.8635 6.37337 19.8768 9.40432 19.8567 13.1239ZM13.0585 18.4343C15.9864 18.4444 18.3714 16.0769 18.394 13.1365C18.4141 10.2035 16.0291 7.80088 13.0836 7.78831C10.1557 7.77826 7.77065 10.1457 7.74803 13.0862C7.72792 16.0216 10.1155 18.4243 13.0585 18.4343Z" fill="#CCCCCC"/>
<path d="M22.3222 5.91861C22.3197 7.04454 21.3848 7.98197 20.2639 7.98197C19.1455 7.97946 18.203 7.037 18.2005 5.91861C18.2005 4.79772 19.1379 3.8628 20.2639 3.8628C21.3973 3.86028 22.3247 4.78766 22.3222 5.91861ZM20.8595 5.91107C20.857 5.58184 20.583 5.31795 20.2538 5.32298C19.9397 5.32801 19.6707 5.59943 19.6682 5.91107C19.6657 6.23025 19.9472 6.51425 20.2664 6.51425C20.5906 6.51425 20.8645 6.23779 20.8595 5.91107Z" fill="#CCCCCC"/>
<path d="M3.91112 8.12915C3.82547 6.79257 4.49723 4.09885 7.8695 4.0166" stroke="#4CAF50" stroke-width="1.5" stroke-linecap="round"/>
<path d="M9.61732 12.1392C9.39459 13.51 9.8333 16.3853 13.3701 16.92" stroke="#4CAF50" stroke-width="1.5" stroke-linecap="round"/>
<rect x="15.0373" y="15.5029" width="1.41726" height="1.41726" rx="0.708628" fill="#4CAF50"/>
</svg>
