<svg width="26" height="26" viewBox="0 0 26 26" fill="none" xmlns="http://www.w3.org/2000/svg">
<path d="M25.6738 24.8076C25.4592 25.3167 25.076 25.5055 24.5268 25.4941C23.2912 25.4712 22.0527 25.4884 20.8171 25.4855C20.1535 25.4855 19.8045 25.1337 19.8017 24.4701C19.8017 21.6041 19.8045 18.7382 19.7988 15.8722C19.7988 15.5633 19.7702 15.2515 19.7302 14.9455C19.6243 14.1389 19.098 13.6698 18.3973 13.3809C17.339 12.9461 16.2607 13.2694 15.5942 14.2018C15.3111 14.5965 15.1738 15.0513 15.1595 15.5347C15.1452 15.9523 15.1509 16.3699 15.1509 16.7875C15.1509 19.3674 15.1509 21.9474 15.1509 24.5245C15.1509 25.1537 14.8306 25.4826 14.2042 25.4826C12.7397 25.4855 11.2724 25.4855 9.80795 25.4826C9.17297 25.4826 8.86121 25.1651 8.86121 24.533C8.86121 19.4475 8.86121 14.362 8.86121 9.27931C8.86121 8.61287 9.18155 8.29252 9.85371 8.29252C11.138 8.29252 12.4251 8.31254 13.7093 8.28108C14.2728 8.26678 14.7905 8.69295 14.7247 9.29933C14.7133 9.41088 14.7219 9.52243 14.7219 9.67974C14.7962 9.62254 14.842 9.59679 14.8792 9.55961C16.0176 8.40979 17.4134 7.88922 19.0122 7.86348C19.9161 7.84918 20.8171 7.86348 21.6809 8.16953C23.7431 8.89889 25.0102 10.349 25.5222 12.4656C25.588 12.7402 25.6251 13.0262 25.6738 13.3037C25.6738 17.1421 25.6738 20.9749 25.6738 24.8076ZM13.9124 11.7677C13.9124 10.8725 13.9124 10.0087 13.9124 9.14487C12.5137 9.14487 11.1408 9.14487 9.75647 9.14487C9.75647 14.3133 9.75647 19.4675 9.75647 24.6331C11.2896 24.6331 12.8055 24.6331 14.3558 24.6331C14.3558 24.513 14.3558 24.41 14.3558 24.3042C14.3558 21.4783 14.3615 18.6524 14.3529 15.8264C14.35 14.914 14.5903 14.1017 15.2024 13.4095C16.6039 11.8221 19.3297 12.1052 20.2936 13.9444C20.5968 14.5221 20.6426 15.1485 20.6454 15.7835C20.6597 18.6266 20.6683 21.4668 20.6798 24.3099C20.6798 24.4129 20.6798 24.5187 20.6798 24.6303C22.0813 24.6303 23.4514 24.6303 24.8386 24.6303C24.8386 24.5273 24.8386 24.4444 24.8386 24.3643C24.8386 20.8919 24.8386 17.4196 24.8386 13.9472C24.8386 13.8071 24.8357 13.6698 24.8271 13.5296C24.6898 11.3787 23.417 9.67116 21.432 8.97326C20.6597 8.70153 19.856 8.69867 19.0523 8.71298C17.4849 8.73872 16.1863 9.31935 15.1738 10.5464C14.8105 10.9783 14.3586 11.3387 13.9124 11.7677Z" fill="#CCCCCC"/>
<path d="M0.932648 16.8477C0.932648 14.4737 0.932648 12.0997 0.932648 9.72569C0.932648 9.3653 0.978412 9.02493 1.22153 8.73604C1.45035 8.46718 1.73924 8.30128 2.09391 8.30128C3.25517 8.29556 4.4193 8.28698 5.58056 8.30128C6.21553 8.30986 6.74182 8.83329 6.79616 9.46541C6.80475 9.56265 6.80189 9.66276 6.80189 9.76001C6.80189 14.5252 6.80189 19.2904 6.80189 24.0556C6.80189 24.968 6.28418 25.4885 5.37462 25.4885C4.36781 25.4914 3.361 25.4914 2.35419 25.4885C1.46179 25.4857 0.935508 24.9623 0.932648 24.0699C0.932648 21.6615 0.932648 19.2532 0.932648 16.8477ZM1.77356 16.8792C1.77356 19.2704 1.77356 21.6587 1.77356 24.0498C1.77356 24.4932 1.92229 24.6448 2.35705 24.6476C3.37244 24.6505 4.38783 24.6505 5.40322 24.6476C5.81796 24.6476 5.96383 24.5046 5.96669 24.1128C5.96669 19.3075 5.96669 14.5023 5.96669 9.69709C5.96669 9.29093 5.80652 9.13076 5.40322 9.13076C4.40499 9.13076 3.40677 9.13076 2.40854 9.13076C1.87939 9.13076 1.77642 9.23087 1.77642 9.76001C1.77356 12.1312 1.77356 14.5052 1.77356 16.8792Z" fill="#CCCCCC"/>
<path d="M7.22237 4.1053C7.14801 6.11319 5.62349 7.53474 3.6299 7.45179C1.88228 7.38029 0.446435 5.7528 0.517941 3.9251C0.586587 2.13744 2.17975 0.690155 3.97885 0.73592C5.89808 0.787404 7.31104 2.52644 7.22237 4.1053ZM6.37574 4.1339C6.41578 2.7667 5.32889 1.61116 3.93022 1.58827C2.46291 1.56539 1.3846 2.63799 1.356 4.05667C1.32739 5.5011 2.39427 6.57656 3.94166 6.61946C5.04572 6.64806 6.38432 5.63553 6.37574 4.1339Z" fill="#CCCCCC"/>
<path d="M21.9938 22.874H23.5701" stroke="#4CAF50" stroke-width="1.5" stroke-linecap="round"/>
<path d="M3.86755 14.5459L3.86755 22.6003" stroke="#4CAF50" stroke-width="1.5" stroke-linecap="round"/>
<path d="M2.85065 3.29059C3.21052 2.97255 3.97658 2.673 4.8844 3.29059" stroke="#4CAF50" stroke-width="1.5" stroke-linecap="round"/>
</svg>
