<svg width="32" height="26" viewBox="0 0 32 26" fill="none" xmlns="http://www.w3.org/2000/svg">
<path d="M0.5 22.4355C0.657581 22.0535 0.943616 21.8915 1.35885 21.8803C2.82487 21.8395 4.27521 21.6715 5.66357 21.1757C6.34915 20.9305 7.00785 20.6131 7.67925 20.3284C7.67029 20.2942 7.66058 20.26 7.65162 20.2251C7.45894 20.1894 7.267 20.1515 7.07432 20.1173C4.59037 19.6721 2.95183 18.2451 2.11165 15.889C2.01755 15.6266 2.05938 15.4022 2.26923 15.2163C2.47536 15.0335 2.80844 14.9971 3.0773 15.1606C3.57021 15.4601 4.1027 15.6326 4.67253 15.6957C4.90778 15.7217 5.14601 15.7277 5.4074 15.6913C5.32525 15.6318 5.24609 15.5679 5.1617 15.5122C3.5015 14.4129 2.21696 12.9888 1.38798 11.1745C1.25654 10.8876 1.15347 10.5874 1.04967 10.2886C0.942122 9.97938 1.01307 9.6858 1.22965 9.53715C1.49179 9.35728 1.7599 9.37958 2.00411 9.56688C2.54705 9.98459 3.14452 10.2819 3.8204 10.4164C3.88537 10.4291 3.95258 10.4328 4.0661 10.4454C1.55004 7.68794 1.01905 4.71642 2.94138 1.40523C4.55453 3.08721 6.25804 4.64804 8.35065 5.72427C10.4373 6.79752 12.6763 7.38172 14.9728 7.83584C15.0191 7.38246 15.0512 6.94171 15.1117 6.50468C15.5194 3.55174 17.9944 1.13543 20.9728 0.770491C22.108 0.631502 23.1602 0.933263 24.1819 1.37401C24.7278 1.60962 25.2529 1.8928 25.7958 2.13584C25.9153 2.18936 26.0886 2.2124 26.2058 2.1678C27.338 1.74192 28.4642 1.29894 29.5919 0.861167C29.6748 0.829207 29.7629 0.760085 29.8399 0.770491C30.0348 0.795761 30.279 0.800964 30.4022 0.919141C30.512 1.02394 30.5703 1.30786 30.5068 1.44611C30.2118 2.07936 29.869 2.69105 29.5359 3.30572C29.4709 3.42539 29.3701 3.52498 29.229 3.70708C29.5688 3.59336 29.8279 3.51383 30.0826 3.42018C30.3626 3.31762 30.6367 3.29829 30.8623 3.51755C31.0983 3.74721 31.0744 4.02445 30.9691 4.3158C30.5269 5.53845 29.8145 6.54407 28.6509 7.18401C28.4806 7.27766 28.4859 7.40476 28.4851 7.55489C28.4672 10.1986 27.9631 12.7458 26.8817 15.1628C24.9937 19.3823 22.0086 22.5337 17.6927 24.3494C15.7166 25.1811 13.6434 25.5304 11.4978 25.4918C9.79651 25.4613 8.09972 25.3744 6.41861 25.1053C4.77783 24.8429 3.15647 24.4966 1.66953 23.7125C1.22517 23.4783 0.771098 23.2472 0.5 22.7916C0.5 22.6726 0.5 22.5545 0.5 22.4355ZM16.0639 9.10012C15.5613 9.00424 15.1244 8.92248 14.6882 8.83626C12.9922 8.50105 11.3171 8.09227 9.70017 7.46868C7.53362 6.63178 5.60681 5.41953 3.91823 3.8312C3.70538 3.63127 3.48731 3.43654 3.20874 3.18234C3.08701 3.69296 2.94735 4.12627 2.88462 4.56999C2.63667 6.31292 3.24758 7.79125 4.34542 9.11349C5.08253 10.0017 6.00636 10.6691 6.94288 11.3239C7.03175 11.3864 7.11615 11.4547 7.2207 11.5343C6.38575 11.5343 5.59635 11.5878 4.81741 11.5194C4.04594 11.4518 3.28567 11.2607 2.51419 11.1232C3.70314 13.3144 5.49254 14.8655 7.90031 15.7106C7.85774 15.9953 7.80771 16.2576 7.78232 16.5222C7.76663 16.6872 7.69643 16.7355 7.53586 16.7363C7.22817 16.737 6.92048 16.772 6.61278 16.772C5.95782 16.7712 5.3021 16.7749 4.64863 16.74C4.28418 16.7207 3.9242 16.6285 3.52689 16.5631C4.21621 17.8556 5.26551 18.6175 6.62324 18.9891C7.57096 19.2485 8.54109 19.305 9.5172 19.3035C9.92945 19.3027 10.3417 19.3035 10.7793 19.3035C8.35289 21.3957 5.63071 22.7068 2.3962 22.9001C3.23339 23.2301 4.06013 23.5333 4.91151 23.7392C7.33048 24.3241 9.79726 24.4914 12.279 24.4527C14.0572 24.4252 15.7726 24.0588 17.4007 23.3535C21.7204 21.4827 24.5829 18.2384 26.2715 13.9171C27.1505 11.6673 27.4889 9.31789 27.4515 6.91273C27.4478 6.66002 27.5045 6.53738 27.7622 6.44671C28.6278 6.14197 29.1991 5.50575 29.6621 4.65993C28.9698 4.88811 28.3425 5.0977 27.7136 5.30061C27.4508 5.38534 27.1991 5.38832 27.0273 5.12149C26.8675 4.87324 26.9116 4.56554 27.1453 4.34033C27.3021 4.18871 27.4762 4.05492 27.6345 3.90478C28.1573 3.40978 28.6322 2.87612 29.0243 2.20051C28.8675 2.25551 28.7659 2.28821 28.6659 2.32537C27.9511 2.59369 27.2319 2.85308 26.5225 3.13478C26.0811 3.31018 25.6771 3.26484 25.2655 3.04781C24.7921 2.79808 24.3096 2.5647 23.8249 2.33652C22.7248 1.81996 21.5934 1.59773 20.385 1.93219C17.8884 2.62267 16.1669 4.76398 16.0654 7.35124C16.0452 7.9124 16.0639 8.47653 16.0639 9.10012Z" fill="#CCCCCC"/>
<path d="M17.5893 8.82347C17.3552 6.59102 18.1833 2.38538 23.3684 3.4224" stroke="#4CAF50" stroke-width="1.5" stroke-linecap="round"/>
<path d="M9.90356 22.2473L13.6279 18.4066L9.90356 17.3203" stroke="#4CAF50" stroke-width="1.5" stroke-linecap="round" stroke-linejoin="round"/>
</svg>
