<svg width="71" height="60" viewBox="0 0 71 60" fill="none" xmlns="http://www.w3.org/2000/svg">
<path d="M41.8517 0.00232815C43.9493 0.488911 45.7397 1.44345 46.927 3.3246C47.0877 3.57836 47.3345 3.48989 47.558 3.49455C55.2269 3.61561 61.1148 8.34641 62.8213 15.7825C62.9191 16.2086 63.103 16.3785 63.5267 16.5019C67.6778 17.7102 69.8197 21.6634 68.5602 25.7796C68.4461 26.1498 68.488 26.4175 68.6603 26.7481C70.8744 31.0202 70.574 35.1248 67.7849 39.0407C67.5637 39.3527 67.4077 39.667 67.3076 40.0441C66.4113 43.4735 64.5884 46.3115 61.7597 48.4627C61.2591 48.8422 61.1078 49.1053 61.4663 49.6873C62.0763 50.6768 62.4814 51.7687 62.8376 52.8746C63.6292 55.3377 62.7468 57.8638 60.6235 59.1862C58.5259 60.4946 55.7181 60.2292 53.9906 58.362C52.5192 56.7719 50.8011 55.7196 48.7616 55.0653C46.9899 54.4973 45.3113 53.7011 43.8143 52.5626C42.5035 51.5661 41.5467 50.3136 41.0717 48.7328C40.932 48.2672 40.7342 48.06 40.2476 48.0413C39.1976 48.0017 38.1685 47.7806 37.1767 47.457C36.7088 47.3056 36.448 47.4337 36.1081 47.7247C30.7068 52.3763 22.5909 51.0144 18.9799 44.8425C18.6982 44.3605 18.4445 44.2558 17.909 44.3535C11.6742 45.4897 6.50572 43.5713 2.85752 38.4307C-0.837256 33.2273 -0.872178 27.67 2.30807 22.1221C2.48967 21.8054 2.58512 21.5261 2.52226 21.1466C1.99377 18.0222 3.52337 15.0305 6.40329 13.5568C6.82002 13.3449 7.06448 13.154 7.11104 12.6186C7.57667 7.42679 12.6939 3.69477 17.774 4.8472C18.4864 5.01017 18.8705 4.88678 19.3594 4.32104C21.4129 1.95099 24.0087 0.519177 27.1517 0.142017C27.4404 -0.00465629 27.785 0.204877 28.0644 0C28.53 0 28.9956 0 29.4613 0C29.7406 0.181596 30.0503 0.0488911 30.3436 0.0907978C32.0059 0.0209533 33.4773 0.607647 34.8719 1.42483C35.4143 1.74378 35.8287 1.77405 36.3526 1.34334C37.2815 0.575053 38.3827 0.144345 39.5887 0C40.3384 0.00232815 41.095 0.00232815 41.8517 0.00232815Z" fill="#038208"/>
<path d="M28.0555 0.00292969C27.7831 0.249713 27.4664 0.217119 27.1428 0.144947C27.1405 0.0937275 27.1545 0.0448364 27.1824 0.00292969C27.4734 0.00292969 27.7644 0.00292969 28.0555 0.00292969Z" fill="#4C4C4C"/>
<path d="M30.3262 0.00292969C30.3401 0.0518208 30.3518 0.100712 30.3611 0.149603C30.0398 0.219447 29.7255 0.242729 29.4531 0.00292969C29.7441 0.00292969 30.0352 0.00292969 30.3262 0.00292969Z" fill="#515151"/>
<path d="M57.2483 17.6779C56.5522 18.679 56.5592 19.4776 57.2902 20.0317C57.856 20.46 58.452 20.467 59.055 20.0899C59.5648 19.7709 60.0654 19.4263 60.694 19.3728C61.2225 19.154 61.5787 19.3984 61.886 19.8058C63.078 21.3866 63.5646 23.1234 62.9663 25.0535C62.7265 25.8241 62.4797 26.5412 63.0268 27.2745C63.1315 27.4142 63.1013 27.6098 62.9802 27.7634C62.3307 28.9927 62.5844 29.7191 63.8509 30.2429C64.5308 30.9041 64.4283 31.7772 64.3818 32.5757C64.2537 34.7572 63.6042 36.7687 62.1654 38.4659C61.7789 38.9223 61.7766 39.5509 61.4273 40.0211C58.8734 40.9687 56.4824 40.5659 54.1938 39.1784C53.7445 38.906 53.9028 38.6848 54.103 38.3635C55.2042 36.5918 55.3788 34.7246 54.6059 32.7829C54.1984 31.7585 53.4278 31.3441 52.5711 31.6561C51.7399 31.9588 51.4489 32.8039 51.8191 33.8353C52.4128 35.4976 51.8354 37.1482 50.4105 37.8723C48.9135 38.6312 47.2256 38.1377 46.2338 36.6523C45.6076 35.7164 44.823 35.4603 44.0454 35.9376C43.2864 36.4009 43.156 37.2925 43.7055 38.2355C45.107 40.6451 47.9963 41.7882 50.6969 40.9431C51.2068 40.7848 51.5234 40.8383 51.9332 41.1689C53.6234 42.5449 55.5883 43.2736 57.7465 43.5064C58.1726 43.6391 58.608 43.5297 59.0363 43.5692C59.2552 43.5902 59.5508 43.4552 59.6719 43.6996C59.7976 43.9557 59.5974 44.1932 59.4531 44.4097C59.0689 44.9894 58.6243 45.5365 58.1377 46.0231C57.2018 46.959 56.2426 47.8926 54.9481 48.3466C54.7269 48.4118 54.5011 48.47 54.2823 48.5468C53.4953 48.8262 53.0693 49.5875 53.2742 50.3279C53.4884 51.0985 54.1775 51.5268 55.0133 51.4128C55.2717 51.3778 55.5301 51.3429 55.7886 51.308C56.1238 51.18 56.3822 51.3313 56.5173 51.6037C57.1971 52.968 57.7815 54.3579 57.1831 55.9201C57.0621 56.232 56.9945 56.6208 56.5149 56.5789C56.487 56.5696 56.4498 56.5696 56.4335 56.551C54.2287 53.862 51.1206 52.7119 48.0079 51.5431C46.6669 51.0403 45.4353 50.3092 44.5553 49.1195C44.3317 48.8169 44.1245 48.5026 44.0431 48.1045C45.0279 47.8949 45.9894 47.718 46.937 47.4782C47.9567 47.2174 48.4526 46.4748 48.2337 45.6436C47.9939 44.7403 47.2047 44.3236 46.1687 44.6099C43.0466 45.4783 39.9665 45.4131 36.9213 44.2723C35.9947 43.9254 35.3381 44.3166 34.6862 44.9801C30.9007 48.8425 24.5774 48.2046 21.7324 43.6507C20.0655 40.9827 19.9514 38.1842 21.3366 35.3416C21.4391 35.132 21.5601 34.9318 21.6463 34.7176C21.9699 33.9144 21.7045 33.1554 20.9804 32.7876C20.2936 32.4384 19.5184 32.6293 19.0667 33.3044C18.6453 33.9354 18.3124 34.6198 18.1098 35.3509C17.9562 35.9073 17.6814 35.9911 17.153 35.8584C15.7491 35.5045 14.7969 34.4499 14.6292 32.9762C14.5012 31.847 13.9145 31.2184 13.0508 31.2859C12.1358 31.3558 11.5933 32.1217 11.6585 33.2462C11.8145 35.9143 13.9005 38.31 16.5639 38.7476C17.2763 38.8641 17.5208 39.1295 17.43 39.7953C17.423 39.8512 17.4347 39.9117 17.4393 39.9699C17.5674 41.5112 17.572 41.5717 16.0145 41.6834C11.591 42.0047 7.93116 40.4635 5.31432 36.8595C2.72077 33.2881 2.38551 29.3699 4.01522 25.277C4.05712 25.1699 4.13162 25.0768 4.21777 24.9324C4.69736 25.3212 5.14204 25.7263 5.63328 26.0709C6.50866 26.6855 7.4213 26.5644 7.92418 25.8125C8.4061 25.0884 8.18493 24.2712 7.33516 23.6426C5.27707 22.12 4.76488 19.6615 6.0896 17.657C7.5866 15.387 10.7599 15.0681 12.6783 16.9934C12.8226 17.1378 12.9483 17.2984 13.088 17.4451C13.7515 18.1435 14.6176 18.232 15.2532 17.6709C15.9027 17.0959 15.9446 16.2601 15.323 15.4918C14.1613 14.0553 12.6806 13.1287 10.8367 12.8889C10.1476 12.7981 10.0731 12.556 10.2523 11.9413C11.0346 9.24535 13.698 7.41543 16.5034 7.65057C17.111 7.70179 17.1739 7.909 16.9597 8.41188C16.8247 8.7285 16.7339 9.0754 16.6873 9.41764C16.5732 10.2511 16.9783 10.8657 17.742 11.0916C18.459 11.3034 19.1808 10.9379 19.5021 10.1836C19.5929 9.97174 19.6394 9.74125 19.7116 9.52008C21.5578 3.83241 28.1814 1.25981 33.3499 4.2119C33.8597 4.50292 34.1624 4.766 33.876 5.43185C33.6386 5.98595 33.6083 6.6192 33.6293 7.23616C33.6595 8.11853 34.181 8.70057 34.9889 8.75179C35.7874 8.80301 36.437 8.2815 36.5767 7.44802C36.6419 7.04758 36.6139 6.62852 36.7071 6.23739C37.2169 4.08385 39.14 2.75448 41.4099 2.96401C43.4051 3.14793 45.0349 4.88939 45.1536 7.03129C45.1978 7.84148 45.4446 8.46775 46.2595 8.70755C47.2606 9.0009 48.1522 8.27219 48.1173 7.13605C48.0987 6.561 48.2687 6.3957 48.7948 6.50512C49.3326 6.61687 49.8983 6.58894 50.4129 6.82641C53.8096 8.58882 55.7932 11.4711 56.8805 15.0424C57.1319 15.8922 57.4113 16.7583 57.2483 17.6779Z" fill="#F4F4F4"/>
<path d="M61.4251 40.0206C61.3879 39.2896 61.6765 38.7052 62.1166 38.1255C63.8999 35.7741 64.5704 33.1549 63.8487 30.2424C64.8987 30.3076 65.5948 29.5719 66.398 29.083C68.5073 33.0874 65.823 38.9613 61.4251 40.0206Z" fill="#3C8C3F"/>
<path d="M57.2467 17.6771C56.9208 17.2464 57.0698 16.7225 56.965 16.2453C56.1199 12.3479 54.0758 9.28642 50.7046 7.1259C50.5882 7.0514 50.5021 6.92568 50.4043 6.82324C54.3691 7.64973 57.1396 9.99418 58.9579 13.5516C59.3281 14.2756 59.5842 15.0463 59.7984 15.8285C59.9171 16.2639 59.8496 16.5083 59.3397 16.6387C58.5761 16.8296 57.9265 17.2929 57.2467 17.6771Z" fill="#3C8C3F"/>
<path d="M62.9792 27.7629C62.1434 26.6873 62.5788 25.6094 62.8558 24.4616C63.3028 22.6037 62.6277 20.995 61.4147 19.5794C61.2028 19.3327 60.9374 19.4281 60.6953 19.3699C62.1783 18.8135 64.6555 19.6609 65.5798 21.7376C66.4528 23.6979 65.7753 25.9842 63.9384 27.1646C63.6195 27.3671 63.2982 27.565 62.9792 27.7629Z" fill="#3C8C3F"/>
<path d="M56.5115 56.5829C57.1145 55.9939 57.2077 55.207 57.189 54.4503C57.1657 53.4655 56.7048 52.5739 56.3323 51.6729C56.2322 51.4284 56.018 51.3539 55.7852 51.312C56.5534 51.0629 57.331 50.8417 58.083 50.553C58.4765 50.404 58.6022 50.5949 58.7489 50.872C59.2564 51.8195 59.6941 52.7974 60.0084 53.8264C60.3274 54.8717 60.0433 55.8915 59.2704 56.4921C58.4951 57.0928 57.4614 57.1254 56.5115 56.5829Z" fill="#3C8C3F"/>
<path d="M54.9434 48.3514C56.736 47.1011 58.4286 45.7485 59.5857 43.7719C58.9664 43.4832 58.2936 43.8673 57.7418 43.5088C59.2178 43.4948 60.7009 43.5367 62.1234 43.0245C62.284 42.9663 62.4819 42.8849 62.5867 43.0734C62.6845 43.248 62.5215 43.404 62.4237 43.5367C60.5332 46.0791 58.1027 47.7833 54.9434 48.3514Z" fill="#3C8C3F"/>
<path d="M30.7807 38.743C29.4862 38.7617 28.7948 38.2122 28.7459 37.3438C28.6946 36.4056 29.2813 35.8538 30.4152 35.7723C32.2125 35.6419 33.7141 34.9318 34.8689 33.521C35.2624 33.0391 35.423 32.7876 34.5756 32.6037C32.5431 32.1614 30.7946 31.137 29.3372 29.6423C28.6015 28.8903 28.534 28.0429 29.1393 27.4049C29.7912 26.7158 30.62 26.7647 31.4325 27.5376C36.0842 31.9751 43.0779 30.0125 44.7519 23.8033C45.0452 22.7137 45.7227 22.1899 46.5795 22.3878C47.4875 22.5973 47.9112 23.4075 47.6178 24.5227C46.484 28.8484 43.7252 31.5607 39.3948 32.641C38.8244 32.783 38.5427 33.0297 38.2913 33.5559C36.7291 36.806 34.0773 38.473 30.7807 38.743Z" fill="#038208"/>
<path d="M20.9283 22.8091C21.0191 18.5835 24.6813 14.9633 28.9325 14.8957C29.8637 14.8818 30.5692 15.4755 30.6181 16.3136C30.6646 17.1075 30.0733 17.8129 29.1699 17.8455C26.1597 17.9526 23.9689 20.2202 23.8781 23.1514C23.8501 24.0337 23.1284 24.646 22.3368 24.5878C21.4661 24.525 20.9074 23.8195 20.9283 22.8091Z" fill="#038208"/>
</svg>
