<svg width="60" height="60" viewBox="0 0 60 60" fill="none" xmlns="http://www.w3.org/2000/svg">
<path d="M18.8794 60C17.6528 59.2656 17.4231 58.7452 17.684 57.2983C18.1278 54.8403 20.2341 52.9949 22.7249 52.9793C27.5048 52.9512 32.2863 52.9481 37.0678 52.9793C39.7289 52.9965 41.9212 55.1013 42.1915 57.7593C42.3009 58.8359 41.8524 59.5468 40.9118 60C33.5676 60 26.2235 60 18.8794 60Z" fill="#4CAF50"/>
<path d="M28.1387 3.52677C28.1387 2.92049 28.1277 2.35483 28.1418 1.79074C28.1668 0.728185 28.8949 -0.00466538 29.9044 2.23593e-05C30.9154 0.0047101 31.6263 0.734435 31.6513 1.80793C31.6638 2.37202 31.6529 2.93611 31.6529 3.49395C32.8498 3.67834 34.0124 3.81428 35.1562 4.04086C37.9142 4.5862 40.5096 5.58312 42.9457 6.9832C47.8944 9.82709 53.0165 12.2882 58.4418 14.0945C59.4372 14.4258 59.9137 15.1946 59.759 16.0962C59.5965 17.04 58.8949 17.5744 57.8089 17.5681C52.8821 17.54 48.0616 16.7978 43.3082 15.5118C36.7891 13.7492 30.1716 13.3132 23.4619 14.1367C20.1382 14.5445 16.9271 15.4336 13.6848 16.204C9.81427 17.1243 5.88125 17.5416 1.90605 17.5666C0.898184 17.5728 0.215336 17.0353 0.0372016 16.1368C-0.137807 15.2539 0.310653 14.4492 1.25601 14.1351C6.88756 12.2616 12.1738 9.65209 17.3256 6.73162C20.5226 4.91903 23.9916 3.90491 27.6605 3.60177C27.7949 3.59083 27.9277 3.56114 28.1387 3.52677Z" fill="#4CAF50"/>
<path d="M53.548 32.7677C51.6963 28.5862 49.8697 24.4579 47.9962 20.2264C48.5384 20.2983 48.9884 20.3546 49.4384 20.4171C50.1525 20.5171 50.8651 20.6546 51.5838 20.7093C51.9792 20.7389 52.1479 20.9015 52.2995 21.2468C53.9152 24.9235 55.5544 28.5894 57.1669 32.2677C57.3388 32.6599 57.5263 32.8239 57.9732 32.8224C59.0702 32.8161 59.7968 33.5787 59.7765 34.6834C59.7311 37.2289 58.6576 39.3118 56.8435 41.0416C54.8215 42.9698 52.3698 43.9995 49.6306 44.3558C46.1789 44.8058 42.8818 44.3167 39.9035 42.426C37.3519 40.8056 35.6174 38.5852 35.2236 35.4881C35.1846 35.1788 35.1658 34.8647 35.1736 34.5537C35.1971 33.588 35.9143 32.8083 36.8753 32.8333C37.4425 32.8474 37.6456 32.6036 37.8425 32.152C39.6442 28.0456 41.463 23.9485 43.2787 19.8483C43.3647 19.6545 43.4569 19.4623 43.5631 19.2295C44.7069 19.4904 45.8367 19.7498 47.0445 20.0264C45.1632 24.2829 43.299 28.4956 41.4083 32.7677C45.4695 32.7677 49.4572 32.7677 53.548 32.7677Z" fill="#4CAF50"/>
<path d="M11.7976 20.2202C9.92562 24.4501 8.0974 28.5784 6.24418 32.7661C10.3006 32.7661 14.2883 32.7661 18.3823 32.7661C16.5072 28.53 14.6446 24.3204 12.7492 20.0358C13.9086 19.767 15.0353 19.5061 16.2244 19.2295C16.3259 19.4498 16.4338 19.6717 16.5322 19.8967C18.3651 24.0313 20.2027 28.1628 22.02 32.3036C22.1856 32.6802 22.3731 32.8208 22.7919 32.8193C23.9185 32.8161 24.6436 33.5802 24.617 34.7225C24.5529 37.5273 23.2607 39.7196 21.1606 41.4838C16.0556 45.7715 7.71613 45.5324 2.87838 40.9509C1.10485 39.2727 0.0610431 37.232 0.0141657 34.749C-0.00771045 33.563 0.698576 32.8177 1.87051 32.8208C2.2721 32.8224 2.44398 32.6833 2.60024 32.3302C4.20501 28.6706 5.83478 25.022 7.43955 21.3624C7.62237 20.9468 7.82395 20.7374 8.31616 20.6936C9.43809 20.5921 10.5506 20.3952 11.7976 20.2202Z" fill="white"/>
<path d="M28.1738 17.2959C29.3192 17.2959 30.4599 17.2959 31.6271 17.2959C31.6271 28.0168 31.6271 38.6908 31.6271 49.4085C30.4896 49.4085 29.352 49.4085 28.1738 49.4085C28.1738 38.7251 28.1738 28.0371 28.1738 17.2959Z" fill="#4CAF50"/>
</svg>
