<svg width="61" height="60" viewBox="0 0 61 60" fill="none" xmlns="http://www.w3.org/2000/svg">
<path d="M60.8362 7.95779C60.2061 7.99611 59.4197 8.21533 58.9905 7.88727C58.6088 7.596 58.8893 6.77585 58.874 6.19024C58.8525 5.42681 58.8694 4.66184 58.8694 3.72058C57.9526 4.89486 57.1432 5.9281 56.3369 6.96594C55.1718 8.46521 54.0006 9.95988 52.8524 11.4714C52.5994 11.8056 52.3311 11.9252 51.9126 11.9206C49.8339 11.8976 47.7567 11.9007 45.6779 11.9191C45.2947 11.9221 45.0862 11.8746 45.1414 11.4239C45.1996 10.9579 44.9498 10.3431 45.2364 10.0565C45.5231 9.76979 46.1363 9.97521 46.6054 9.97215C48.1093 9.96142 49.6147 9.96602 51.1185 9.97061C51.3653 9.97215 51.5524 9.94149 51.7256 9.71614C53.5253 7.38292 55.3389 5.06042 57.1478 2.73333C57.1923 2.67508 57.2199 2.60303 57.2812 2.49112C55.9981 2.67201 54.7655 2.82378 53.5407 3.03074C53.182 3.09052 53.0838 2.99701 53.0716 2.67661C53.0654 2.52025 53.0179 2.36541 52.9995 2.20752C52.8738 1.13902 52.8723 1.12982 53.9071 0.981118C56.2158 0.648458 58.526 0.326528 60.8362 0C60.8362 2.65209 60.8362 5.30417 60.8362 7.95779Z" fill="white"/>
<path d="M24.0266 34.8557C20.4103 32.8567 18.0556 29.8781 17.073 25.8493C16.9335 25.276 16.8369 24.6858 16.7817 24.0987C16.7495 23.7537 16.6192 23.6863 16.3049 23.6786C14.706 23.6372 14.706 23.6296 14.9651 25.2147C15.4694 28.3006 16.7664 31.0033 18.885 33.3074C19.7036 34.1965 20.5053 35.0979 21.0526 36.1894C21.1661 36.4163 21.3132 36.473 21.5646 36.4699C22.7328 36.45 23.9009 36.4715 25.0691 36.45C25.4201 36.4439 25.5397 36.5236 25.5428 36.9038C25.552 38.4 25.5673 38.4 24.0971 38.4C23.3444 38.4 22.5917 38.3908 21.8406 38.4031C21.0756 38.4153 20.6172 38.8047 20.6264 39.4072C20.6356 40.0112 21.0955 40.4205 21.8712 40.3653C22.4829 40.3224 22.6945 40.5186 22.5841 41.1011C22.5764 41.1395 22.5841 41.1808 22.5825 41.2192C22.5779 41.5549 22.6868 41.9596 22.5366 42.208C22.3649 42.4916 21.9234 42.2815 21.6014 42.3306C20.999 42.4241 20.6172 42.8058 20.628 43.3316C20.6387 43.8835 21.0511 44.2852 21.6965 44.2974C22.8248 44.3189 23.953 44.3189 25.0813 44.2959C25.4477 44.2882 25.5412 44.3925 25.5428 44.7589C25.5489 46.2397 25.5627 46.2397 24.0895 46.2489C23.9745 46.2489 23.8595 46.2489 23.6878 46.2489C23.8427 46.692 24.114 47.0032 24.3731 47.3113C24.5371 47.506 24.5341 47.624 24.3348 47.7881C23.9239 48.1284 23.5345 48.4932 23.1268 48.8566C22.5136 48.2188 22.0521 47.5075 21.6796 46.741C21.5248 46.4206 21.3607 46.2443 20.9714 46.16C18.9325 45.7231 18.0173 43.4359 19.167 41.6975C19.3265 41.4568 19.3847 41.3142 19.1977 41.0413C18.4511 39.9529 18.4711 38.7357 19.2391 37.6718C19.4169 37.425 19.42 37.2702 19.2743 37.008C18.7685 36.099 18.0863 35.3294 17.3918 34.5736C15.287 32.2787 13.8675 29.6128 13.2175 26.5806C12.2134 21.8957 12.8802 17.4439 15.4679 13.3753C18.1384 9.17799 21.9264 6.47531 26.8121 5.44667C30.8975 4.58819 34.8297 5.1508 38.5548 7.06092C40.025 7.81515 41.3434 8.77941 42.556 9.8985C42.838 10.1576 42.8212 10.2756 42.5667 10.5347C41.5105 11.6047 41.5304 11.6017 40.396 10.6267C39.933 10.2281 39.4103 9.90156 38.9212 9.53211C38.7311 9.38801 38.5809 9.33589 38.4797 9.61489C38.4736 9.63329 38.4598 9.64862 38.4506 9.66548C38.1992 10.11 37.7255 10.5745 37.7608 10.9946C37.7945 11.3916 38.4843 11.5863 38.8676 11.8929C41.6377 14.1066 43.3639 16.9472 43.9571 20.4486C44.952 26.3215 42.1451 31.9721 36.8226 34.8572C36.2032 34.5276 36.0806 33.8684 35.846 33.3043C35.7372 33.0406 36.0453 32.8643 36.2676 32.7294C37.4112 32.0411 38.4429 31.2286 39.2938 30.1847C39.746 29.6297 40.1292 29.0334 40.5156 28.4355C40.7286 28.1044 40.6673 27.899 40.3101 27.7426C39.5298 27.4007 38.8201 26.924 38.0551 26.5499C37.4174 26.2387 37.3898 26.1483 37.6136 25.4921C37.7485 25.0982 37.8389 24.6935 37.934 24.2872C38.0106 23.9576 37.8803 23.7966 37.5415 23.7951C37.3637 23.7951 37.1843 23.8089 37.0081 23.7905C36.5282 23.7384 36.3167 23.9592 36.1695 24.4144C35.4904 26.5223 34.0908 27.9296 31.9461 28.5367C28.4079 29.5377 24.7333 26.8902 24.4267 23.2141C24.183 20.2846 26.1805 17.3887 29.2511 16.8016C32.3508 16.2083 35.124 17.9513 36.1465 20.8364C36.2354 21.0878 36.2032 21.4374 36.5267 21.5263C36.9283 21.6351 37.353 21.6229 37.7608 21.5339C37.9999 21.4818 37.934 21.2626 37.911 21.0878C37.8527 20.6509 37.6856 20.2493 37.5308 19.8431C37.2963 19.2314 37.3392 19.1348 37.9325 18.8221C38.1425 18.7117 38.354 18.6044 38.5702 18.5047C39.1543 18.2349 39.3643 18.307 39.6234 18.9156C39.9959 19.7955 40.2319 20.7153 40.3117 21.6688C40.3929 22.6362 40.4067 23.6066 40.1952 24.5601C40.0878 25.0476 40.3577 25.2315 40.7225 25.4124C41.6147 25.8585 41.6546 25.8447 41.837 24.8605C42.7767 19.7971 40.376 14.9053 35.7096 12.3789C34.8082 11.8914 34.7714 11.758 35.2972 10.8765C35.4597 10.6052 35.6176 10.3308 35.7786 10.0579C35.9549 9.7268 36.1664 9.41407 36.3412 9.08141C36.6187 8.55406 36.5911 8.44368 36.0561 8.24592C34.8849 7.81362 33.6906 7.46869 32.4474 7.30466C30.4637 7.04252 28.4999 7.14523 26.5683 7.66032C22.9167 8.63377 19.9795 10.6558 17.772 13.731C16.3509 15.7116 15.448 17.9007 15.0816 20.3106C15.0724 20.3689 15.0586 20.4271 15.0509 20.4854C14.9038 21.5477 15.238 21.8313 16.2911 21.5677C16.6069 21.488 16.6085 21.2503 16.6391 21.0219C16.8537 19.4215 17.3075 17.8992 18.0403 16.4521C19.3019 13.964 21.1492 12.0432 23.5575 10.6512C23.7292 10.5516 23.9009 10.4504 24.114 10.5086C24.5938 10.9057 24.7594 11.4913 24.9878 12.0294C25.1442 12.3988 24.8085 12.5567 24.5586 12.7054C23.6679 13.2343 22.8692 13.8736 22.1395 14.6094C20.2877 16.4797 19.2421 18.7286 18.9202 21.3316C18.5308 24.4804 19.3725 27.2888 21.258 29.7999C22.1334 30.9665 23.2279 31.9031 24.4743 32.6666C25.1289 33.0667 25.1595 33.1617 24.7732 33.8424C24.5693 34.2088 24.5218 34.7024 24.0266 34.8557Z" fill="#4CAF50"/>
<path d="M33.3722 36.4964C33.3737 37.6048 33.3952 38.7146 33.3676 39.8215C33.3568 40.24 33.4273 40.3994 33.9026 40.3917C35.4494 40.3657 35.5214 40.4868 35.3267 42.0597C35.2792 42.4383 35.0416 42.3157 34.8592 42.3172C33.2357 42.3249 31.6123 42.3417 29.9888 42.3095C29.5228 42.3003 29.4385 42.449 29.4431 42.8767C29.4615 44.3009 29.4446 44.3009 30.8918 44.3009C31.5847 44.3009 32.2776 44.3116 32.9705 44.2963C33.2603 44.2902 33.3768 44.3484 33.3875 44.6795C33.4365 46.2217 33.4503 46.2325 31.8959 46.2386C31.528 46.2401 31.3716 46.3076 31.3854 46.723C31.4176 47.7118 31.3961 48.7021 31.3961 49.6924C31.3961 49.9071 31.3348 50.1171 31.7196 50.045C34.0451 49.6127 35.8434 48.4185 37.0927 46.4057C37.1096 46.3781 37.0943 46.3321 37.0943 46.2447C36.6236 46.2447 36.1561 46.2325 35.6885 46.2493C35.408 46.2601 35.3252 46.1665 35.3114 45.8783C35.2332 44.2994 35.2256 44.2994 36.7861 44.2994C37.5388 44.2994 38.2915 44.307 39.0427 44.2963C39.7724 44.2856 40.2185 43.91 40.2262 43.3213C40.2339 42.7403 39.7878 42.3463 39.0688 42.3218C38.6135 42.3065 38.1566 42.3019 37.7029 42.3249C37.4039 42.3402 37.3028 42.2635 37.2936 41.9401C37.2476 40.378 37.2353 40.378 38.7744 40.3764C38.8542 40.3764 38.9323 40.378 39.0121 40.3764C39.7755 40.3596 40.24 39.9763 40.2293 39.3723C40.2201 38.7913 39.774 38.4096 39.0412 38.3989C37.9528 38.3851 36.8628 38.3805 35.7744 38.4035C35.408 38.4111 35.3129 38.3038 35.3099 37.9374C35.3007 36.4535 35.2869 36.4519 36.7631 36.4535C37.614 36.4535 38.4663 36.4427 39.3171 36.4657C39.5716 36.4719 39.7065 36.3998 39.8245 36.1775C40.4025 35.0845 41.2042 34.157 42.0244 33.2434C44.9708 29.9597 46.3199 26.0996 46.0838 21.7076C45.9381 19.0156 45.1134 16.5153 43.6279 14.2541C43.3918 13.8939 43.3826 13.7069 43.7843 13.4953C44.1997 13.2776 44.5799 12.991 44.9754 12.7334C45.2406 13.1489 45.5258 13.5536 45.7695 13.9813C47.6183 17.2236 48.3526 20.7203 47.9924 24.421C47.6413 28.0358 46.2815 31.2566 43.9284 34.039C43.1251 34.9895 42.2589 35.8893 41.6258 36.9747C41.471 37.2384 41.4327 37.4085 41.6319 37.6952C42.3984 38.802 42.4015 39.9472 41.6381 41.0632C41.4894 41.2809 41.494 41.4051 41.6365 41.6243C42.8476 43.4823 41.9385 45.7312 39.7893 46.1696C39.4582 46.2371 39.3309 46.4042 39.2021 46.6586C37.9803 49.0915 36.0702 50.7609 33.4979 51.6179C31.0972 52.4181 28.7118 52.297 26.3878 51.2561C26.1655 51.1565 26.0705 51.0706 26.2054 50.8238C26.4415 50.3915 26.5488 49.8166 26.8998 49.5361C27.2846 49.2279 27.7415 49.7231 28.1707 49.8473C29.4615 50.2198 29.4599 50.229 29.4599 48.9137C29.4599 48.1809 29.4446 47.4481 29.4661 46.7169C29.4768 46.375 29.4124 46.2095 29.0184 46.2309C28.5279 46.2555 27.8472 46.4057 27.5882 46.1528C27.254 45.8247 27.4946 45.144 27.4793 44.6152C27.4609 43.982 27.4609 43.3474 27.4809 42.7142C27.49 42.4092 27.4011 42.2988 27.0823 42.308C26.371 42.3295 25.6566 42.3034 24.9437 42.3203C24.6463 42.3279 24.5375 42.2513 24.5252 41.9278C24.4639 40.3718 24.4532 40.3718 26.0276 40.3718C27.6311 40.3718 29.2346 40.3596 30.8381 40.381C31.249 40.3872 31.4207 40.3304 31.413 39.8506C31.3885 38.3912 31.413 38.3912 29.929 38.3912C29.2561 38.3912 28.5815 38.3759 27.9101 38.3973C27.5851 38.4081 27.4471 38.3283 27.4686 37.9742C27.4992 37.4806 27.4809 36.9854 27.4824 36.4903C27.8871 36.3661 28.3102 36.3615 28.7256 36.3032C28.8958 36.2787 29.0813 36.3278 29.2177 36.1791C29.4354 35.48 29.3005 34.7656 29.3128 34.0605C29.3373 32.6946 29.3204 32.6946 27.9821 32.3634C24.1052 31.4023 21.0806 28.022 20.5578 24.0669C20.0182 19.9876 22.0188 16.0079 25.6229 13.992C25.8482 13.8663 26.0889 13.7774 26.325 13.6731C26.9274 13.4095 26.9796 13.3068 26.8401 12.6767C26.6561 11.8458 26.4568 11.0195 26.3066 10.1825C26.2591 9.91423 26.1747 9.63216 26.4384 9.41141C27.1359 9.11707 27.8794 8.97603 28.6199 8.91931C30.1881 8.79974 31.7656 8.69396 33.3108 9.1416C33.5883 9.26577 33.6542 9.50185 33.642 9.77779C33.6389 9.83758 33.6282 9.89583 33.6205 9.95409C33.4151 11.3215 33.3476 11.3752 31.9986 11.2142C31.1141 11.1084 30.2326 11.0011 29.3404 11.1606C28.9771 11.2249 28.8636 11.3798 28.9602 11.7247C29.0077 11.8964 29.0568 12.0696 29.0813 12.2444C29.1396 12.6583 29.3756 12.8039 29.7788 12.7855C30.9316 12.7334 32.0722 12.8116 33.1867 13.1381C34.7534 13.598 36.1377 14.3783 37.315 15.5097C37.8899 16.0615 37.8899 16.2992 37.2782 16.802C36.0948 17.777 36.4213 17.6697 35.3528 16.8158C32.158 14.2664 27.8687 14.3936 24.9943 17.2956C22.9217 19.3897 22.2303 21.9759 23.075 24.8487C24.6923 30.3537 31.3747 32.1963 35.6456 28.3409C36.3262 27.7261 36.3354 27.7261 36.9824 28.3547C37.9267 29.2714 37.9497 29.2959 36.967 30.1943C35.6671 31.3823 34.1203 32.109 32.3987 32.4646C31.5402 32.6409 31.5387 32.6409 31.5387 33.5377C31.5387 34.2107 31.5356 34.8837 31.5402 35.5567C31.5418 35.7713 31.5096 35.9951 31.6506 36.1867C32.0676 36.3615 32.5152 36.337 32.9475 36.4044C33.087 36.4351 33.2541 36.3431 33.3722 36.4964Z" fill="#4CAF50"/>
<path d="M31.4234 36.3531C31.4142 35.1864 31.4173 34.0183 31.3866 32.8532C31.3774 32.4914 31.5491 32.4516 31.8419 32.4056C33.9988 32.0729 35.8553 31.1409 37.4067 29.5956C37.6903 29.3135 37.6918 29.1572 37.376 28.918C37.0142 28.6436 36.726 28.1454 36.3397 28.0672C35.9181 27.9814 35.6637 28.5716 35.3187 28.8444C32.7878 30.845 29.2159 31.1117 26.4703 29.4791C23.5729 27.756 22.1258 24.5766 22.7129 21.2254C23.2494 18.1656 25.8525 15.5457 28.9706 15.0015C31.6441 14.5354 33.9835 15.2713 35.9381 17.1569C36.2186 17.4267 36.3888 17.4512 36.6294 17.1615C36.7291 17.0419 36.864 16.9499 36.982 16.8441C37.7884 16.1344 37.7961 16.1267 36.9606 15.4062C34.8895 13.6187 32.4934 12.748 29.7509 12.9641C29.1959 13.0086 29.0089 12.8461 28.9047 12.3203C28.6364 10.9697 28.6119 10.9804 29.987 10.9436C30.9206 10.9191 31.8465 10.9957 32.7571 11.1889C33.0806 11.2579 33.2093 11.149 33.2262 10.8746C33.2584 10.3396 33.68 9.85366 33.4193 9.28645C33.9958 9.13775 34.4725 9.48268 34.9845 9.62678C35.308 9.71876 35.705 9.72489 35.8859 10.1066C35.6698 10.5037 35.4828 10.9222 35.2283 11.2931C34.96 11.681 35.0275 11.865 35.449 12.0765C37.4097 13.0622 39.0654 14.4128 40.255 16.2815C42.0992 19.1804 42.6173 22.3062 41.8217 25.6527C41.7374 26.0053 41.6117 26.0528 41.3112 25.8781C40.9019 25.6405 40.3746 25.5224 40.0802 25.1913C39.7537 24.8234 40.1293 24.3129 40.1661 23.8622C40.3102 22.1192 40.1216 20.4344 39.4195 18.8156C39.2769 18.489 39.1681 18.3112 38.7879 18.5519C38.3909 18.8033 37.7991 18.8968 37.5814 19.2417C37.3653 19.5851 37.819 20.0573 37.9402 20.4865C38.2958 21.739 38.3035 21.6976 37.0004 21.7543C36.3949 21.7804 36.1787 21.5934 36.0024 21.0154C35.3371 18.8294 33.8363 17.4589 31.6104 16.9821C29.4703 16.5237 27.5909 17.14 26.1207 18.7481C24.4804 20.5417 24.0727 22.6665 24.9863 24.9169C25.8693 27.0876 27.5832 28.2956 29.9149 28.5777C32.5118 28.892 35.3249 27.0079 35.9902 24.4631C36.1511 23.8499 36.3796 23.646 37.0173 23.6752C38.2866 23.7334 38.2743 23.689 37.9402 24.9215C37.8298 25.3323 37.4542 25.7984 37.6504 26.1295C37.8405 26.4484 38.3725 26.5633 38.7572 26.7642C39.3536 27.0738 39.9407 27.4019 40.5508 27.6778C40.9034 27.8388 40.954 27.9844 40.7609 28.3293C39.7138 30.2011 38.3096 31.7326 36.4393 32.7858C35.8905 33.0954 35.8675 33.3499 36.1833 33.8006C36.4194 34.1379 36.5053 34.5656 36.8149 34.8599C35.4705 35.5452 34.0724 36.0679 32.5624 36.2427C32.2052 36.4496 31.8189 36.4512 31.4234 36.3531Z" fill="white"/>
<path d="M21.1125 52.5037C19.7773 52.6938 18.5616 52.841 17.3552 53.0525C16.8953 53.1338 16.7266 53.0265 16.7542 52.5742C16.7573 52.516 16.7435 52.4562 16.7343 52.3979C16.5488 51.1746 16.5473 51.1639 17.7399 50.9922C19.8539 50.6886 21.971 50.4127 24.082 50.0892C24.4974 50.0249 24.5357 50.1536 24.5342 50.497C24.5235 52.8532 24.5204 55.2095 24.5372 57.5641C24.5403 57.929 24.4422 58.067 24.0728 58.0256C23.5899 57.9704 22.9414 58.2371 22.6624 57.9167C22.4232 57.6423 22.5827 57.0138 22.5796 56.5416C22.5719 55.7107 22.5735 54.8783 22.5704 54.0474C22.5704 54.0336 22.552 54.0183 22.506 53.9493C22.3972 54.0934 22.296 54.2207 22.201 54.354C20.947 56.1063 19.6868 57.8554 18.4467 59.6184C18.255 59.8897 18.0619 59.997 17.7261 59.997C11.9851 59.9863 6.24399 59.9832 0.502918 60.0001C0.0660141 60.0016 -0.00297082 59.8652 9.51731e-05 59.4697C0.0169581 58.021 0.00162821 58.021 1.42732 58.021C6.47548 58.021 11.5236 58.0148 16.5718 58.0317C17.024 58.0332 17.28 57.8891 17.533 57.5243C18.6858 55.8732 19.8693 54.2437 21.1125 52.5037Z" fill="white"/>
<path d="M26.3683 9.55078C26.4741 10.6346 26.7638 11.6862 27.029 12.7348C27.1808 13.3327 27.0183 13.5381 26.5017 13.7803C22.729 15.5494 20.71 18.5556 20.6349 22.7024C20.546 27.5436 24.1301 31.6305 28.953 32.394C29.3515 32.4568 29.4788 32.5703 29.465 32.9734C29.4297 34.0987 29.4374 35.227 29.4266 36.3522C29.0127 36.4656 28.5988 36.3798 28.1849 36.343C27.4046 36.1084 26.6243 35.88 25.8471 35.6363C25.214 35.4385 24.6115 35.1656 24.0274 34.8529C24.4091 34.416 24.5808 33.8595 24.8752 33.3736C25.076 33.0409 24.7556 33.0041 24.6038 32.9152C23.077 32.0291 21.7939 30.8824 20.7928 29.4246C18.8704 26.6253 18.2358 23.5516 18.9471 20.2373C19.6584 16.9214 21.5072 14.3751 24.4229 12.6398C24.9089 12.35 25.0085 12.1277 24.6897 11.6633C24.4582 11.3245 24.3049 10.932 24.1163 10.5626C24.0964 10.3909 24.2221 10.3111 24.3432 10.2514C24.9871 9.93556 25.6156 9.55998 26.3683 9.55078Z" fill="white"/>
<path d="M31.4238 36.3533C31.8055 36.3149 32.1888 36.2766 32.5705 36.2383C32.7729 36.528 33.1791 36.1816 33.3723 36.4958C32.7284 36.3732 32.057 36.6353 31.4238 36.3533Z" fill="#CBBFAA"/>
<path d="M28.1852 36.3447C28.6007 36.2006 29.013 36.4091 29.427 36.3539C28.7938 36.636 28.1224 36.3738 27.4785 36.495C27.6686 36.2343 27.9553 36.4229 28.1852 36.3447Z" fill="#CBBFAA"/>
<path d="M30.4349 26.6185C28.2749 26.6231 26.5028 24.8587 26.5059 22.7048C26.5089 20.5632 28.3194 18.7619 30.4441 18.7834C32.5689 18.8049 34.3272 20.5632 34.3425 22.6849C34.3594 24.8357 32.5934 26.6139 30.4349 26.6185Z" fill="white"/>
</svg>
