<svg width="60" height="60" viewBox="0 0 60 60" fill="none" xmlns="http://www.w3.org/2000/svg">
<path d="M20.0106 45.9158C20.0491 43.7176 21.8838 41.9325 24.038 41.9876C26.2473 42.0482 28.0159 43.8498 27.9883 46.015C27.9553 48.1968 26.1261 50.0039 23.9719 49.9764C21.7516 49.9488 19.9665 48.1196 20.0106 45.9158ZM22.005 45.982C22.005 47.0728 22.8755 47.9544 23.9609 47.9764C25.0518 47.9929 25.9884 47.0728 25.9884 45.982C25.9884 44.8856 25.0628 43.9765 23.9554 43.9985C22.8645 44.0096 21.9995 44.8911 22.005 45.982Z" fill="white"/>
<path d="M10.9184 24.9694C8.71462 24.9254 6.97913 23.1293 7.01218 20.931C7.04524 18.7437 8.8744 16.9586 11.0396 16.9917C13.2434 17.0302 15.0561 18.9035 14.9899 21.0797C14.9183 23.278 13.1057 25.0135 10.9184 24.9694ZM10.968 22.975C12.0809 22.986 12.9955 22.088 12.99 20.9861C12.99 19.9172 12.0864 19.0081 11.0176 18.9916C9.94875 18.9751 9.02866 19.8621 9.00663 20.9365C8.98459 22.0604 9.84958 22.964 10.968 22.975Z" fill="white"/>
<path d="M59.9749 16.6277C59.6774 17.5202 59.3358 18.3742 58.581 19.0078C57.2147 20.1483 55.3745 20.2915 53.8429 19.3604C52.3939 18.4734 51.6942 16.6883 52.1239 14.9803C52.1514 14.8702 52.1735 14.7545 52.2121 14.5947C50.146 13.5975 48.0799 12.6002 46.0028 11.5975C45.226 15.6415 44.8073 16.5175 42.3886 19.1455C42.4492 19.2447 42.5098 19.3604 42.5925 19.4651C44.1351 21.5256 45.6778 23.5917 47.2425 25.6412C47.3802 25.8231 47.6722 25.9773 47.8926 25.9828C53.2368 26.071 57.4902 29.4648 58.7133 34.6328C60.1182 40.572 55.9695 46.7427 49.9476 47.806C45.2921 48.6269 40.857 46.3956 38.6146 42.7097C38.565 42.627 38.5044 42.5499 38.4107 42.4122C37.5568 43.0513 36.7579 43.729 35.8764 44.2854C34.8461 44.9355 34.1574 45.5912 34.7579 46.9575C35.0169 47.5525 34.9067 48.3018 35.0059 48.9795C35.0334 49.1668 35.1712 49.4203 35.3309 49.5029C37.5678 50.6048 39.8157 51.6902 42.0746 52.7535C42.2454 52.8362 42.5594 52.7811 42.7247 52.6764C44.1351 51.7728 45.9312 51.7673 47.248 52.6929C48.6088 53.6516 49.259 55.3485 48.8623 56.9132C48.438 58.5826 47.1102 59.7451 45.3913 59.9489C42.7577 60.2575 40.5154 57.7617 41.0884 55.1612C41.1269 54.9904 41.171 54.8251 41.2316 54.5937C40.1517 54.0703 39.0719 53.5469 37.9865 53.0235C36.9177 52.5056 35.8488 51.9932 34.8406 51.5084C34.3227 52.6158 33.9205 53.7563 33.2979 54.77C31.0115 58.511 26.9234 60.3897 22.8133 59.9324C17.8713 59.387 14.3893 55.7672 13.359 51.7783C13.2488 51.3431 13.1662 50.9023 13.1056 50.4561C13.0615 50.131 12.9568 49.9822 12.5987 49.9878C11.1552 50.0043 9.71173 50.0043 8.26273 49.9878C7.96522 49.9878 7.82748 50.0759 7.71729 50.3679C6.87984 52.5497 4.46117 53.5689 2.3896 52.6378C0.312514 51.7067 -0.596555 49.2054 0.417194 47.2275C1.51359 45.1008 3.99837 44.3681 6.05342 45.5801C6.83577 46.0429 7.40325 46.7096 7.70076 47.5636C7.82197 47.9052 7.98725 47.9988 8.32884 47.9988C9.73377 47.9823 11.1387 47.9768 12.5436 47.9988C12.9238 48.0043 13.0505 47.8666 13.1001 47.514C13.618 43.9879 15.4251 41.3158 18.4663 39.4866C23.4304 36.506 30.174 38.1533 33.2373 43.0733C33.331 43.2221 33.4246 43.3653 33.5458 43.5582C34.8241 42.5995 36.0967 41.6684 37.3364 40.6932C37.4576 40.5996 37.4576 40.2414 37.4025 40.0376C36.5651 36.8696 36.9562 33.8835 38.7027 31.1067C40.1407 28.8257 42.1903 27.2996 44.7577 26.4787C44.8844 26.4346 45.0166 26.396 45.2205 26.3299C43.7164 24.3245 42.2398 22.3576 40.7688 20.3907C33.7938 24.4402 25.7113 20.4072 24.1466 13.0355C22.5764 14.3798 21.0448 15.6856 19.6013 16.9142C20.1963 18.0712 20.8354 19.1235 21.2817 20.2529C21.6233 21.129 21.7004 22.1041 21.9373 23.0297C22.0089 23.3052 22.1522 23.6193 22.3671 23.79C23.9373 25.0462 25.535 26.2638 27.1052 27.52C27.4138 27.7624 27.6176 27.7789 27.9702 27.5751C29.4247 26.7487 30.9013 26.7872 32.2676 27.7459C33.6175 28.6935 34.1905 30.0544 33.8985 31.6797C33.6065 33.3215 32.5982 34.4179 30.9784 34.8421C29.5294 35.2223 28.2182 34.8642 27.1603 33.7953C26.108 32.732 25.7499 31.4207 26.1466 29.9662C26.2623 29.531 26.2072 29.3106 25.8546 29.0406C24.5158 28.0324 23.2045 26.9911 21.8271 25.9167C21.1219 29.261 19.3644 31.8064 16.4774 33.5143C14.3067 34.798 11.9431 35.2223 9.44727 34.8972C4.4777 34.2416 0.505346 30.0599 0.0480574 24.914C-0.221908 21.9168 0.648593 19.2337 2.58243 16.9307C4.49974 14.6498 6.98453 13.3771 9.9817 13.03C9.9817 11.3661 9.98721 9.74632 9.97068 8.13203C9.97068 8.00531 9.81641 7.80697 9.6952 7.7684C8.0148 7.22847 6.8523 5.45441 7.02309 3.61424C7.17185 2.05505 8.3619 0.435251 10.2682 0.0771331C10.3233 0.0661141 10.3729 0.0275475 10.4225 0C10.8136 0 11.2048 0 11.596 0C11.6841 0.033057 11.7723 0.0826426 11.8604 0.104681C13.7061 0.617065 14.8741 1.99995 14.9788 3.81809C15.078 5.52603 14.0642 7.05217 12.3177 7.74086C12.0037 7.86758 11.9816 8.0549 11.9816 8.32486C11.9872 9.72979 11.9982 11.1347 11.9761 12.5396C11.9706 12.9473 12.1359 13.0355 12.4995 13.1292C13.6235 13.4267 14.7584 13.7187 15.8273 14.1649C16.6427 14.501 17.3589 15.063 18.1413 15.5368C20.009 13.9391 21.8932 12.3358 23.7665 10.7105C23.9042 10.5893 23.9979 10.3579 24.0144 10.165C24.4111 5.41584 27.7168 1.49859 32.3283 0.341589C32.8351 0.214871 33.3475 0.11019 33.8544 0C34.5982 0 35.3364 0 36.0802 0C36.1684 0.033057 36.2565 0.0881521 36.3502 0.0991711C40.9286 0.622574 44.8624 4.16519 45.81 8.95846C45.8486 9.1568 46.0579 9.3882 46.2508 9.48186C48.4876 10.5838 50.7355 11.6581 52.9724 12.749C53.2644 12.8922 53.4682 12.8867 53.7602 12.6939C55.3745 11.6416 57.3194 11.8179 58.7188 13.0851C59.3964 13.6966 59.6995 14.512 59.986 15.344C59.9749 15.7737 59.9749 16.2035 59.9749 16.6277ZM29.9757 55.6074C32.6147 53.4147 33.7662 49.3101 32.3723 45.762C30.8297 41.8392 27.0171 39.5693 22.8188 40.0651C18.7749 40.5445 15.64 43.751 15.0394 48.0264C14.6648 50.6875 16.268 54.7865 17.9925 55.5028C17.9925 55.376 17.987 55.2603 17.9925 55.1446C18.0696 53.2218 19.2707 52.0208 21.1825 51.9987C23.1549 51.9767 25.1273 51.9657 27.0997 52.0208C28.6644 52.0593 29.8765 53.321 29.9757 54.8802C29.9867 55.084 29.9757 55.2989 29.9757 55.6074ZM17.0228 30.5888C19.5462 28.4511 20.7197 24.5834 19.4911 21.0849C18.1413 17.2227 14.5546 14.8206 10.5051 15.0079C6.60988 15.1897 3.2601 17.9665 2.25737 21.8342C1.32626 25.4429 2.99013 29.0792 4.96805 30.5502C4.97906 30.3959 4.99008 30.2637 4.99559 30.137C5.07824 28.2858 6.11402 27.1123 7.96522 27.0241C9.98721 26.9305 12.0257 26.9415 14.0532 27.0296C15.5849 27.0958 16.6372 28.0544 16.9182 29.4263C16.9898 29.7789 16.9843 30.1535 17.0228 30.5888ZM54.0688 43.5471C56.7574 41.3323 57.705 37.1231 56.3221 33.619C54.9062 30.0323 51.2589 27.7624 47.3141 28.0103C43.5566 28.2472 40.2509 31.0185 39.2757 34.7154C38.3171 38.3407 39.9203 42.0155 41.9423 43.5251C41.9534 43.3984 41.9699 43.2882 41.9754 43.1725C42.1021 41.1174 43.2977 39.9825 45.3748 39.9715C46.9725 39.9604 48.5758 40.0266 50.1735 39.9549C52.6914 39.8447 54.0908 41.3378 54.0081 43.459C54.0081 43.481 54.0247 43.4976 54.0688 43.5471ZM41.0884 17.5147C43.485 15.5533 44.7191 11.614 43.485 8.08796C42.1462 4.24783 38.5044 1.79059 34.499 2.01097C30.4495 2.23135 27.1052 5.09629 26.1907 9.13476C25.4303 12.5011 26.9455 16.0767 28.9509 17.5257C28.9619 17.377 28.9785 17.2448 28.984 17.1125C29.1162 15.2283 30.1795 14.0933 32.0528 14.0162C34.0031 13.9391 35.959 13.9776 37.9094 14.0052C39.1876 14.0272 40.1738 14.6222 40.6972 15.8013C40.9231 16.3192 40.9616 16.9252 41.0884 17.5147ZM48.0303 41.9769C47.0937 41.9769 46.1571 41.9549 45.226 41.9824C44.383 42.01 44.0139 42.3901 43.9864 43.2055C43.9698 43.6353 44.0084 44.065 43.9753 44.4893C43.9478 44.8804 44.08 45.0733 44.4492 45.2275C46.6089 46.1146 48.7906 46.1642 50.9944 45.4314C51.9917 45.1008 51.9862 45.0843 51.9862 44.0044C51.9862 43.7896 51.9862 43.5747 51.9862 43.3598C51.9751 42.3791 51.6005 41.9935 50.5978 41.9769C49.7438 41.9659 48.8843 41.9769 48.0303 41.9769ZM10.9734 28.9855C10.0588 28.9855 9.14425 28.9635 8.22416 28.991C7.37019 29.0186 7.01207 29.3932 7.00105 30.2141C6.99003 30.6604 7.01758 31.1122 6.99554 31.5585C6.97351 31.8945 7.0837 32.0763 7.40876 32.2141C9.60705 33.1287 11.8219 33.1782 14.0642 32.4124C14.9953 32.0929 14.9898 32.0763 14.9898 31.0571C14.9898 30.8257 14.9898 30.5888 14.9898 30.3574C14.9843 29.3877 14.6262 29.0076 13.662 28.9855C12.764 28.969 11.8715 28.9855 10.9734 28.9855ZM23.9483 53.9877C23.0502 53.9877 22.1577 53.9821 21.2597 53.9877C20.3836 53.9987 20.0145 54.3678 19.998 55.2273C19.9925 55.6736 20.02 56.1253 19.987 56.5716C19.9594 56.9297 20.1192 57.084 20.4277 57.2107C22.6646 58.1363 24.9125 58.1583 27.1934 57.365C27.7829 57.1611 28.1135 56.8857 27.9923 56.208C27.9372 55.8884 27.9868 55.5468 27.9813 55.2163C27.9647 54.3954 27.5791 54.0042 26.7526 53.9932C25.8215 53.9821 24.8849 53.9877 23.9483 53.9877ZM34.9838 15.9941C34.0472 15.9996 33.1106 15.9776 32.1795 16.0051C31.3696 16.0272 31.017 16.4018 30.9894 17.2062C30.9729 17.6525 31.006 18.1042 30.9784 18.5505C30.9564 18.9196 31.0996 19.0959 31.4412 19.2337C33.5789 20.1097 35.7386 20.1813 37.9314 19.4541C38.9947 19.1015 38.9892 19.0904 38.9892 17.9665C38.9892 17.7737 38.9892 17.5753 38.9892 17.3825C38.9837 16.3798 38.6256 16.0161 37.6119 15.9996C36.7358 15.9831 35.8598 15.9941 34.9838 15.9941ZM5.97078 49.0071C5.97629 47.8831 5.09476 46.9796 3.98735 46.9851C2.913 46.9851 2.00944 47.8831 1.99291 48.9575C1.97638 50.0594 2.88545 50.9684 3.99286 50.9684C5.09476 50.9629 5.95976 50.1035 5.97078 49.0071ZM10.9624 5.97231C12.0863 5.97781 12.9899 5.09629 12.9844 3.98888C12.9844 2.91453 12.0863 2.01097 11.012 1.99444C9.91007 1.97791 9.001 2.88698 9.001 3.99439C9.00651 5.09629 9.866 5.96129 10.9624 5.97231ZM27.9923 30.98C27.9868 32.0874 28.9013 32.9964 30.0032 32.9799C31.0886 32.9634 31.9701 32.0819 31.9756 30.9965C31.9812 29.8836 31.0776 28.991 29.9647 29.002C28.8738 29.0131 27.9978 29.8946 27.9923 30.98ZM44.9891 53.9932C43.8982 53.9877 43.0057 54.8582 42.9891 55.9435C42.9726 57.0454 43.8762 57.971 44.9726 57.9765C46.0469 57.982 46.956 57.0895 46.9725 56.0152C46.989 54.9022 46.102 53.9987 44.9891 53.9932ZM53.9916 15.961C53.9806 17.0795 54.8676 17.983 55.975 17.983C57.0549 17.983 57.953 17.096 57.975 16.0216C57.9915 14.9197 57.088 14.0052 55.9806 14.0052C54.8897 14.0052 54.0026 14.8757 53.9916 15.961Z" fill="#4CAF50"/>
<path d="M48.0019 37.9661C45.8092 37.9771 44.0296 36.2251 43.9965 34.0158C43.9635 31.8285 45.7981 29.9773 47.9909 29.9883C50.1672 29.9938 51.9743 31.8065 51.9798 33.9772C51.9798 36.1535 50.1837 37.9551 48.0019 37.9661ZM47.9964 35.9717C49.0818 35.9661 49.9688 35.0846 49.9799 33.9993C49.9909 32.9084 49.0598 31.9773 47.9689 31.9883C46.8835 31.9993 46.0075 32.8808 46.002 33.9717C45.991 35.0901 46.8725 35.9772 47.9964 35.9717Z" fill="white"/>
<path d="M34.9668 11.9775C32.7686 11.9664 31 10.1814 31 7.98858C31.0055 5.80131 32.7961 3.9997 34.9724 3.99419C37.1541 3.98317 39.0218 5.86742 38.9833 8.02715C38.9447 10.2199 37.1486 11.9885 34.9668 11.9775ZM34.9613 9.97751C36.0743 9.98853 36.9888 9.08497 36.9833 7.98858C36.9778 6.91423 36.0853 6.01067 35.0054 5.99414C33.909 5.97761 33 6.88668 33 7.9996C33 9.09599 33.8649 9.96649 34.9613 9.97751Z" fill="white"/>
</svg>
