<svg width="58" height="63" viewBox="0 0 58 63" fill="none" xmlns="http://www.w3.org/2000/svg">
<g opacity="0.6">
<path d="M52.7661 61.6641C53.0061 61.6641 53.1261 61.8081 53.1261 62.0961C53.1261 62.3841 53.0061 62.5281 52.7661 62.5281C51.8061 62.5281 50.3181 62.4801 48.3021 62.3841C46.1901 62.2881 44.6781 62.2401 43.7661 62.2401C42.5661 62.2401 41.1021 62.2881 39.3741 62.3841C37.7421 62.4801 36.4461 62.5281 35.4861 62.5281C35.2941 62.5281 35.1981 62.3841 35.1981 62.0961C35.1981 61.8081 35.2941 61.6641 35.4861 61.6641C36.7341 61.6641 37.6221 61.5441 38.1501 61.3041C38.7261 61.0161 39.0141 60.5361 39.0141 59.8641C39.0141 59.0481 38.5341 57.6801 37.5741 55.7601L30.0861 41.0001H17.2701L12.1581 52.3041C11.5341 53.6961 11.2221 54.9921 11.2221 56.1921C11.2221 57.9201 11.8221 59.2641 13.0221 60.2241C14.2701 61.1841 15.9261 61.6641 17.9901 61.6641C18.2301 61.6641 18.3501 61.8081 18.3501 62.0961C18.3501 62.3841 18.2301 62.5281 17.9901 62.5281C17.1261 62.5281 15.8781 62.4801 14.2461 62.3841C12.4221 62.2881 10.8381 62.2401 9.49409 62.2401C8.19809 62.2401 6.63809 62.2881 4.81409 62.3841C3.18209 62.4801 1.86209 62.5281 0.85409 62.5281C0.66209 62.5281 0.56609 62.3841 0.56609 62.0961C0.56609 61.8081 0.66209 61.6641 0.85409 61.6641C2.19809 61.6641 3.32609 61.4001 4.23809 60.8721C5.15009 60.2961 6.06209 59.3121 6.97409 57.9201C7.88609 56.4801 8.96609 54.3681 10.2141 51.5841L25.8381 17.2401C25.9341 17.0961 26.1501 17.0241 26.4861 17.0241C26.8701 17.0241 27.0861 17.0961 27.1341 17.2401L45.1341 52.6641C46.8141 56.0721 48.2061 58.4241 49.3101 59.7201C50.4141 61.0161 51.5661 61.6641 52.7661 61.6641ZM18.2061 38.9841H29.0781L23.3181 27.6081L18.2061 38.9841Z" fill="white"/>
<path d="M3.99756 54.3686L19.3499 21.8264" stroke="#4CAF50" stroke-width="3"/>
<path d="M18.8464 59.403C16.826 58.9861 13.1701 57.1516 14.7094 53.1492" stroke="#4CAF50" stroke-width="3"/>
<path d="M57.302 60.1773C55.0414 60.469 49.7325 58.4271 46.582 47.9258" stroke="#4CAF50" stroke-width="3"/>
</g>
</svg>
