<svg width="183" height="47" viewBox="0 0 183 47" fill="none" xmlns="http://www.w3.org/2000/svg">
<path d="M44.5174 36.1802C44.61 34.0812 44.5307 31.9957 44.5307 29.8764C44.524 26.9648 44.4778 24.0533 44.4778 21.1418C44.4778 21.1215 44.4778 20.7761 44.4778 20.7761H37.3907V24.683C37.3907 27.3779 37.3973 30.0795 37.4039 32.7744C37.4105 34.1218 37.4105 35.4625 37.4105 36.8099C37.4105 37.988 36.9279 39.0037 35.7511 39.2881C35.0107 39.4641 34.1777 39.2678 33.629 38.7261C32.5844 37.7172 32.7563 36.038 32.7563 34.7109C32.7629 32.8759 32.7695 31.0478 32.7695 29.2128C32.7762 25.6106 32.7695 22.0085 32.7695 18.4063C32.7695 15.7046 31.9762 13.2265 30.1053 11.2358C27.9831 8.9878 24.8891 7.82996 21.8613 8.3581C19.1706 8.83207 16.6716 10.5384 15.2568 12.9421C14.0007 15.102 13.9742 17.6073 13.9742 20.0516C13.9742 22.997 13.9809 25.9492 13.9809 28.8946C13.9809 30.391 13.8156 32.2259 12.176 32.7541C11.3959 33.0046 10.4836 32.7947 9.90182 32.2056C9.32666 31.6233 9.1151 30.7566 9.06882 29.9238C8.80438 25.57 9.0556 21.1621 9.0556 16.8016H1.96853C1.96853 19.7876 1.96853 22.7736 1.96853 25.7596C1.96853 26.8227 1.9553 27.8789 1.94208 28.942C1.91564 30.6076 2.23297 32.2733 2.82136 33.8306C3.11224 34.5958 3.48246 35.3338 3.94524 36.0041C5.75006 38.6245 8.94982 40.1345 12.0703 39.9313C15.0651 39.735 18.0004 38.0016 19.4879 35.2932C21.9009 30.9123 20.8167 25.2856 20.9291 20.5053C20.9622 19.1037 20.5192 16.4359 22.0398 15.6573C22.4629 15.3052 23.0116 15.0817 23.5603 15.1427C24.0892 15.1968 24.5718 15.5218 24.9222 15.9349C26.3039 17.6005 25.8015 19.9298 25.8015 21.9204C25.8081 24.3512 25.7949 26.782 25.7552 29.206C25.7155 31.8129 25.4974 34.4603 25.7618 37.0536C26.1386 40.71 27.9567 43.9195 31.2754 45.5039C34.5744 47.0815 38.5542 46.6143 41.3441 44.1903C42.9837 42.7684 44.0745 40.6017 44.3389 38.4146C44.4315 37.6766 44.4844 36.925 44.5174 36.1802ZM26.3766 22.7059V22.6382C26.3832 22.6449 26.3965 22.6517 26.4031 22.6517C26.3965 22.6652 26.3832 22.6856 26.3766 22.7059Z" fill="white"/>
<path d="M26.402 22.6515C26.3955 22.6649 26.3823 22.6849 26.3758 22.705V22.6381C26.3823 22.6448 26.3955 22.6515 26.402 22.6515Z" fill="white"/>
<path d="M26.402 22.6515C26.3955 22.6649 26.3823 22.6849 26.3758 22.705V22.6381C26.3823 22.6448 26.3955 22.6515 26.402 22.6515Z" fill="white"/>
<path d="M26.402 22.6515C26.3955 22.6649 26.3823 22.6849 26.3758 22.705V22.6381C26.3823 22.6448 26.3955 22.6515 26.402 22.6515Z" fill="white"/>
<path d="M26.402 22.6515C26.3955 22.6649 26.3823 22.6849 26.3758 22.705V22.6381C26.3823 22.6448 26.3955 22.6515 26.402 22.6515Z" fill="white"/>
<path d="M6.05378 13.2264C9.37272 13.2264 12.0632 10.4708 12.0632 7.0716C12.0632 3.67237 9.37272 0.916748 6.05378 0.916748C2.73484 0.916748 0.0443115 3.67237 0.0443115 7.0716C0.0443115 10.4708 2.73484 13.2264 6.05378 13.2264Z" fill="#4CAF50"/>
<path d="M40.7354 17.113C43.1598 17.113 45.1252 15.1001 45.1252 12.617C45.1252 10.134 43.1598 8.12109 40.7354 8.12109C38.311 8.12109 36.3456 10.134 36.3456 12.617C36.3456 15.1001 38.311 17.113 40.7354 17.113Z" fill="#4CAF50"/>
<path d="M63.0062 21.0523C62.7502 21.0683 62.5342 21.1643 62.3582 21.3403C62.1822 21.5163 62.0942 21.7323 62.0942 21.9883C62.0942 22.0523 62.1422 22.2603 62.2382 22.6123C62.3502 22.9643 62.4782 23.3963 62.6222 23.9083C62.7822 24.4043 62.9582 24.9483 63.1502 25.5403C63.3422 26.1323 63.5262 26.7003 63.7022 27.2443C63.8782 27.7883 64.0382 28.2843 64.1822 28.7323C64.3262 29.1643 64.4302 29.4763 64.4942 29.6683C65.1022 28.2763 65.6382 26.8603 66.1022 25.4203C66.5822 23.9643 66.9982 22.5083 67.3502 21.0523H69.2462L72.7022 29.8603C73.1182 28.7403 73.4462 27.5483 73.6862 26.2843C73.9262 25.0203 74.0462 23.7883 74.0462 22.5883C74.0462 22.4283 74.0142 22.2603 73.9502 22.0843C73.9022 21.8923 73.8222 21.7243 73.7102 21.5803C73.6142 21.4203 73.4942 21.2923 73.3502 21.1963C73.2062 21.1003 73.0462 21.0523 72.8702 21.0523H78.5582C78.3822 21.0683 78.1982 21.1483 78.0062 21.2923C77.8302 21.4203 77.6542 21.5723 77.4782 21.7483C77.3182 21.9243 77.1742 22.1163 77.0462 22.3243C76.9182 22.5323 76.8302 22.7163 76.7822 22.8763C76.7662 22.8923 76.6622 23.1323 76.4702 23.5963C76.2782 24.0603 76.0382 24.6443 75.7502 25.3483C75.4782 26.0363 75.1742 26.7963 74.8382 27.6283C74.5182 28.4603 74.2062 29.2523 73.9022 30.0043C73.5982 30.7563 73.3262 31.4203 73.0862 31.9963C72.8462 32.5723 72.6862 32.9483 72.6062 33.1243H70.0862L67.1822 26.6203L64.1102 33.1243H61.6142C60.9742 31.3803 60.3502 29.6443 59.7422 27.9163C59.1502 26.1723 58.5102 24.4283 57.8222 22.6843C57.7582 22.5243 57.6782 22.3563 57.5822 22.1803C57.4862 21.9883 57.3742 21.8123 57.2462 21.6523C57.1182 21.4763 56.9662 21.3323 56.7902 21.2203C56.6302 21.1083 56.4542 21.0523 56.2622 21.0523H63.0062ZM85.7 21.1003C86.436 21.1003 87.132 21.2283 87.788 21.4843C88.444 21.7243 89.012 22.0763 89.492 22.5403C89.988 22.9883 90.372 23.5323 90.644 24.1723C90.916 24.7963 91.044 25.4923 91.028 26.2603H82.532V26.6203C82.532 27.3563 82.652 28.0203 82.892 28.6123C83.148 29.1883 83.492 29.6843 83.924 30.1003C84.372 30.5003 84.892 30.8123 85.484 31.0363C86.092 31.2603 86.756 31.3723 87.476 31.3723C88.036 31.3723 88.596 31.2923 89.156 31.1323C89.732 30.9723 90.236 30.7083 90.668 30.3403L90.908 30.5803C90.14 31.4443 89.228 32.0923 88.172 32.5243C87.132 32.9403 86.052 33.1483 84.932 33.1483C84.084 33.1483 83.26 33.0283 82.46 32.7883C81.676 32.5323 80.972 32.1643 80.348 31.6843C79.724 31.2043 79.22 30.6123 78.836 29.9083C78.468 29.2043 78.284 28.3963 78.284 27.4843C78.284 26.4603 78.492 25.5563 78.908 24.7723C79.324 23.9723 79.876 23.3003 80.564 22.7563C81.268 22.2123 82.06 21.8043 82.94 21.5323C83.836 21.2443 84.756 21.1003 85.7 21.1003ZM82.532 25.8763L85.94 25.9003C86.164 25.9003 86.38 25.9083 86.588 25.9243C86.796 25.9243 87.004 25.9083 87.212 25.8763L87.236 25.3963C87.236 25.0603 87.204 24.6683 87.14 24.2203C87.076 23.7723 86.956 23.3483 86.78 22.9483C86.62 22.5483 86.396 22.2123 86.108 21.9403C85.82 21.6683 85.452 21.5323 85.004 21.5323C84.508 21.5323 84.108 21.6923 83.804 22.0123C83.5 22.3163 83.252 22.7003 83.06 23.1643C82.884 23.6123 82.756 24.0843 82.676 24.5803C82.612 25.0763 82.564 25.5083 82.532 25.8763ZM92.2472 33.1483C92.8552 33.0523 93.3192 32.7643 93.6392 32.2843C93.9592 31.7883 94.1192 31.2443 94.1192 30.6523V19.0603C94.1192 18.8683 94.1112 18.6363 94.0952 18.3643C94.0792 18.0763 94.0312 17.7963 93.9512 17.5243C93.8872 17.2523 93.7832 17.0123 93.6392 16.8043C93.5112 16.5803 93.3272 16.4363 93.0872 16.3723C93.4712 16.3723 93.8952 16.3643 94.3592 16.3483C94.8392 16.3323 95.3112 16.2923 95.7752 16.2283C96.2392 16.1483 96.6792 16.0283 97.0952 15.8683C97.5112 15.6923 97.8552 15.4523 98.1272 15.1483V23.0923C98.7992 22.5483 99.5352 22.0843 100.335 21.7003C101.135 21.3003 101.975 21.1003 102.855 21.1003C103.575 21.1003 104.239 21.2443 104.847 21.5323C105.471 21.8203 106.007 22.2123 106.455 22.7083C106.903 23.2043 107.247 23.7723 107.487 24.4123C107.743 25.0523 107.871 25.7243 107.871 26.4283C107.871 27.5163 107.639 28.4763 107.175 29.3083C106.727 30.1403 106.127 30.8443 105.375 31.4203C104.623 31.9803 103.767 32.4123 102.807 32.7163C101.863 33.0043 100.895 33.1483 99.9032 33.1483C99.4072 33.1483 98.9192 33.1243 98.4392 33.0763C97.9592 33.0123 97.4792 32.9323 96.9992 32.8363C96.6792 33.0123 96.3272 33.1163 95.9432 33.1483C95.5752 33.1643 95.2072 33.1723 94.8392 33.1723L92.2472 33.1483ZM98.1272 30.5083C98.1272 30.8123 98.1912 31.0923 98.3192 31.3483C98.4472 31.6043 98.6152 31.8283 98.8232 32.0203C99.0312 32.1963 99.2712 32.3403 99.5432 32.4523C99.8312 32.5483 100.119 32.5963 100.407 32.5963C100.983 32.5963 101.463 32.4043 101.847 32.0203C102.247 31.6363 102.559 31.1723 102.783 30.6283C103.023 30.0843 103.191 29.5083 103.287 28.9003C103.399 28.2923 103.455 27.7723 103.455 27.3403C103.455 26.8443 103.407 26.3403 103.311 25.8283C103.215 25.3003 103.055 24.8203 102.831 24.3883C102.607 23.9563 102.295 23.6043 101.895 23.3323C101.495 23.0443 100.999 22.9003 100.407 22.9003C99.9912 22.9003 99.5832 22.9723 99.1832 23.1163C98.7992 23.2603 98.4472 23.4523 98.1272 23.6923V30.5083Z" fill="white"/>
<path d="M113.705 18.4363H114.929V22.4923H116.849V22.9003H114.929V28.9483C114.929 29.3323 114.961 29.7563 115.025 30.2203C115.089 30.6843 115.201 31.1243 115.361 31.5403C115.537 31.9403 115.777 32.2923 116.081 32.5963C116.385 32.9003 116.777 33.0843 117.257 33.1483H113.825C113.377 33.1483 112.977 33.0363 112.625 32.8123C112.273 32.5723 111.969 32.2763 111.713 31.9243C111.473 31.5723 111.281 31.1883 111.137 30.7723C111.009 30.3403 110.945 29.9323 110.945 29.5483V22.9003H109.169V22.4923C109.713 22.4123 110.233 22.2603 110.729 22.0363C111.225 21.8123 111.673 21.5243 112.073 21.1723C112.489 20.8203 112.833 20.4203 113.105 19.9723C113.393 19.5083 113.593 18.9963 113.705 18.4363ZM125.52 21.1003C126.256 21.1003 126.952 21.2283 127.608 21.4843C128.264 21.7243 128.832 22.0763 129.312 22.5403C129.808 22.9883 130.192 23.5323 130.464 24.1723C130.736 24.7963 130.864 25.4923 130.848 26.2603H122.352V26.6203C122.352 27.3563 122.472 28.0203 122.712 28.6123C122.968 29.1883 123.312 29.6843 123.744 30.1003C124.192 30.5003 124.712 30.8123 125.304 31.0363C125.912 31.2603 126.576 31.3723 127.296 31.3723C127.856 31.3723 128.416 31.2923 128.976 31.1323C129.552 30.9723 130.056 30.7083 130.488 30.3403L130.728 30.5803C129.96 31.4443 129.048 32.0923 127.992 32.5243C126.952 32.9403 125.872 33.1483 124.752 33.1483C123.904 33.1483 123.08 33.0283 122.28 32.7883C121.496 32.5323 120.792 32.1643 120.168 31.6843C119.544 31.2043 119.04 30.6123 118.656 29.9083C118.288 29.2043 118.104 28.3963 118.104 27.4843C118.104 26.4603 118.312 25.5563 118.728 24.7723C119.144 23.9723 119.696 23.3003 120.384 22.7563C121.088 22.2123 121.88 21.8043 122.76 21.5323C123.656 21.2443 124.576 21.1003 125.52 21.1003ZM122.352 25.8763L125.76 25.9003C125.984 25.9003 126.2 25.9083 126.408 25.9243C126.616 25.9243 126.824 25.9083 127.032 25.8763L127.056 25.3963C127.056 25.0603 127.024 24.6683 126.96 24.2203C126.896 23.7723 126.776 23.3483 126.6 22.9483C126.44 22.5483 126.216 22.2123 125.928 21.9403C125.64 21.6683 125.272 21.5323 124.824 21.5323C124.328 21.5323 123.928 21.6923 123.624 22.0123C123.32 22.3163 123.072 22.7003 122.88 23.1643C122.704 23.6123 122.576 24.0843 122.496 24.5803C122.432 25.0763 122.384 25.5083 122.352 25.8763ZM139.863 26.2363V24.0523C139.863 23.7963 139.831 23.5243 139.767 23.2363C139.703 22.9323 139.599 22.6523 139.455 22.3963C139.327 22.1403 139.151 21.9323 138.927 21.7723C138.703 21.6123 138.431 21.5323 138.111 21.5323C137.599 21.5323 137.063 21.6523 136.503 21.8923C135.943 22.1323 135.415 22.4443 134.919 22.8283C134.423 23.1963 133.975 23.6203 133.575 24.1003C133.191 24.5803 132.911 25.0603 132.735 25.5403V22.3003C133.663 21.9003 134.647 21.5963 135.687 21.3883C136.727 21.1803 137.751 21.0763 138.759 21.0763C139.351 21.0763 139.943 21.1323 140.535 21.2443C141.143 21.3403 141.687 21.5243 142.167 21.7963C142.663 22.0523 143.063 22.4123 143.367 22.8763C143.671 23.3403 143.823 23.9323 143.823 24.6523V30.3643C143.823 30.6843 143.847 31.0043 143.895 31.3243C143.943 31.6283 144.031 31.9083 144.159 32.1643C144.287 32.4203 144.463 32.6363 144.687 32.8123C144.911 32.9883 145.207 33.1003 145.575 33.1483H142.311C141.639 33.1483 141.087 32.9643 140.655 32.5963C140.223 32.2283 139.959 31.7083 139.863 31.0363C139.271 31.5963 138.607 32.0843 137.871 32.5003C137.151 32.9003 136.359 33.1003 135.495 33.1003C135.111 33.1003 134.719 33.0363 134.319 32.9083C133.935 32.7803 133.591 32.5963 133.287 32.3563C132.983 32.1163 132.735 31.8283 132.543 31.4923C132.351 31.1403 132.255 30.7483 132.255 30.3163C132.255 29.8203 132.391 29.3883 132.663 29.0203C132.935 28.6363 133.295 28.3003 133.743 28.0123C134.191 27.7243 134.695 27.4843 135.255 27.2923C135.815 27.0843 136.375 26.9083 136.935 26.7643C137.495 26.6203 138.031 26.5083 138.543 26.4283C139.055 26.3483 139.495 26.2843 139.863 26.2363ZM136.239 29.3803C136.239 29.8923 136.367 30.3483 136.623 30.7483C136.879 31.1483 137.287 31.3483 137.847 31.3483C138.231 31.3483 138.591 31.2603 138.927 31.0843C139.279 30.8923 139.591 30.6603 139.863 30.3883V26.8363C139.495 26.8843 139.103 26.9563 138.687 27.0523C138.271 27.1483 137.879 27.2923 137.511 27.4843C137.143 27.6763 136.839 27.9243 136.599 28.2283C136.359 28.5323 136.239 28.9163 136.239 29.3803ZM147.805 31.3723V23.4043C147.805 23.0363 147.741 22.7163 147.613 22.4443C147.501 22.1723 147.261 21.9483 146.893 21.7723H147.397C147.733 21.7723 148.109 21.7563 148.525 21.7243C148.941 21.6923 149.349 21.6363 149.749 21.5563C150.165 21.4763 150.549 21.3563 150.901 21.1963C151.269 21.0363 151.573 20.8283 151.813 20.5723V23.3563C152.453 22.7643 153.149 22.2443 153.901 21.7963C154.669 21.3323 155.501 21.1003 156.397 21.1003C157.181 21.1003 157.893 21.3083 158.533 21.7243C159.189 22.1403 159.653 22.7323 159.925 23.5003C160.581 22.8763 161.309 22.3243 162.109 21.8443C162.909 21.3483 163.781 21.1003 164.725 21.1003C165.605 21.1003 166.309 21.2763 166.837 21.6283C167.365 21.9643 167.757 22.4203 168.013 22.9963C168.285 23.5563 168.453 24.1963 168.517 24.9163C168.597 25.6363 168.629 26.3723 168.613 27.1243C168.613 27.8763 168.589 28.6123 168.541 29.3323C168.509 30.0523 168.517 30.7003 168.565 31.2763C168.613 31.8363 168.725 32.2923 168.901 32.6443C169.093 32.9803 169.413 33.1483 169.861 33.1483H163.093C163.349 33.1483 163.565 33.0923 163.741 32.9803C163.933 32.8523 164.085 32.7003 164.197 32.5243C164.325 32.3323 164.413 32.1243 164.461 31.9003C164.525 31.6763 164.557 31.4523 164.557 31.2283V25.0843C164.557 24.4923 164.397 23.9803 164.077 23.5483C163.773 23.1163 163.301 22.9003 162.661 22.9003C162.181 22.9003 161.717 23.0203 161.269 23.2603C160.837 23.4843 160.437 23.7483 160.069 24.0523C160.149 24.3563 160.181 24.7963 160.165 25.3723C160.165 25.9323 160.149 26.5563 160.117 27.2443C160.085 27.9163 160.061 28.6043 160.045 29.3083C160.045 29.9963 160.085 30.6283 160.165 31.2043C160.245 31.7803 160.381 32.2523 160.573 32.6203C160.781 32.9723 161.085 33.1483 161.485 33.1483H154.717C154.973 33.1483 155.197 33.0843 155.389 32.9563C155.581 32.8283 155.733 32.6683 155.845 32.4763C155.957 32.2843 156.037 32.0683 156.085 31.8283C156.149 31.5883 156.181 31.3563 156.181 31.1323V25.0843C156.181 24.5083 156.021 24.0043 155.701 23.5723C155.381 23.1403 154.917 22.9243 154.309 22.9243C153.845 22.9243 153.397 23.0363 152.965 23.2603C152.549 23.4683 152.165 23.7083 151.813 23.9803V31.3483C151.813 31.5243 151.837 31.7163 151.885 31.9243C151.949 32.1323 152.037 32.3323 152.149 32.5243C152.261 32.7003 152.397 32.8523 152.557 32.9803C152.717 33.0923 152.901 33.1483 153.109 33.1483H146.341C146.549 33.1483 146.741 33.0923 146.917 32.9803C147.109 32.8683 147.269 32.7323 147.397 32.5723C147.525 32.3963 147.621 32.2043 147.685 31.9963C147.765 31.7883 147.805 31.5803 147.805 31.3723ZM176.162 32.5723C176.402 32.5723 176.642 32.5323 176.882 32.4523C177.138 32.3723 177.37 32.2603 177.578 32.1163C177.786 31.9723 177.954 31.7963 178.082 31.5883C178.21 31.3803 178.274 31.1403 178.274 30.8683C178.274 30.4043 178.098 30.0283 177.746 29.7403C177.41 29.4363 176.978 29.1723 176.45 28.9483C175.938 28.7243 175.378 28.5083 174.77 28.3003C174.178 28.0923 173.618 27.8443 173.09 27.5563C172.578 27.2683 172.146 26.9083 171.794 26.4763C171.458 26.0443 171.29 25.5003 171.29 24.8443C171.29 24.1243 171.466 23.5243 171.818 23.0443C172.186 22.5643 172.642 22.1803 173.186 21.8923C173.746 21.6043 174.354 21.4043 175.01 21.2923C175.666 21.1643 176.282 21.1003 176.858 21.1003C177.546 21.1003 178.242 21.1403 178.946 21.2203C179.666 21.2843 180.362 21.4043 181.034 21.5803L181.226 24.7483C181.082 24.4283 180.81 24.0923 180.41 23.7403C180.01 23.3883 179.562 23.0603 179.066 22.7563C178.586 22.4523 178.098 22.2043 177.602 22.0123C177.106 21.8203 176.69 21.7243 176.354 21.7243C175.89 21.7243 175.474 21.8523 175.106 22.1083C174.754 22.3483 174.578 22.7323 174.578 23.2603C174.578 23.7243 174.746 24.1083 175.082 24.4123C175.434 24.7163 175.866 24.9883 176.378 25.2283C176.89 25.4523 177.442 25.6763 178.034 25.9003C178.642 26.1083 179.202 26.3643 179.714 26.6683C180.226 26.9563 180.65 27.3163 180.986 27.7483C181.338 28.1643 181.514 28.6923 181.514 29.3323C181.514 30.1003 181.314 30.7323 180.914 31.2283C180.514 31.7083 180.01 32.0923 179.402 32.3803C178.81 32.6523 178.162 32.8443 177.458 32.9563C176.754 33.0683 176.106 33.1243 175.514 33.1243C173.882 33.1243 172.314 32.8603 170.81 32.3323V29.2123C171.002 29.6763 171.298 30.1163 171.698 30.5323C172.098 30.9323 172.546 31.2843 173.042 31.5883C173.538 31.8923 174.058 32.1323 174.602 32.3083C175.146 32.4843 175.666 32.5723 176.162 32.5723Z" fill="#4CAF50"/>
</svg>
