<svg width="38" height="38" viewBox="0 0 38 38" fill="none" xmlns="http://www.w3.org/2000/svg">
<path d="M36.6343 29.0476C36.7105 27.3185 36.6452 25.6007 36.6452 23.8549C36.6397 21.4566 36.6016 19.0582 36.6016 16.6599C36.6016 16.6432 36.6016 16.3587 36.6016 16.3587H30.7637V19.577C30.7637 21.7968 30.7692 24.0222 30.7746 26.2421C30.7801 27.352 30.7801 28.4563 30.7801 29.5663C30.7801 30.5368 30.3825 31.3734 29.4132 31.6076C28.8033 31.7527 28.1171 31.5909 27.6651 31.1447C26.8047 30.3137 26.9462 28.9304 26.9462 27.8372C26.9517 26.3257 26.9571 24.8198 26.9571 23.3083C26.9626 20.3411 26.9571 17.3738 26.9571 14.4066C26.9571 12.1812 26.3036 10.1398 24.7625 8.50001C23.0144 6.64828 20.4658 5.69452 17.9716 6.12957C15.7552 6.51999 13.6967 7.92553 12.5313 9.90555C11.4966 11.6848 11.4748 13.7485 11.4748 15.7619C11.4748 18.1882 11.4803 20.62 11.4803 23.0462C11.4803 24.2788 11.3441 25.7903 9.99357 26.2253C9.35097 26.4317 8.59945 26.2588 8.12022 25.7736C7.64644 25.2939 7.47218 24.58 7.43405 23.8939C7.21622 20.3076 7.42316 16.6766 7.42316 13.0847H1.5853C1.5853 15.5444 1.5853 18.0041 1.5853 20.4638C1.5853 21.3394 1.57441 22.2095 1.56352 23.0852C1.54173 24.4573 1.80313 25.8293 2.2878 27.1122C2.52742 27.7424 2.83238 28.3504 3.21358 28.9026C4.70028 31.0611 7.33603 32.3048 9.90643 32.1375C12.3734 31.9758 14.7913 30.5479 16.0166 28.3169C18.0043 24.7083 17.1112 20.0733 17.2038 16.1356C17.231 14.9811 16.8661 12.7835 18.1187 12.1421C18.4672 11.8521 18.9192 11.668 19.3712 11.7182C19.8068 11.7629 20.2044 12.0306 20.493 12.3708C21.6312 13.7429 21.2173 15.6615 21.2173 17.3013C21.2227 19.3037 21.2119 21.306 21.1792 23.3027C21.1465 25.4501 20.9668 27.6309 21.1846 29.7671C21.495 32.7789 22.9926 35.4227 25.7264 36.7278C28.4438 38.0274 31.7222 37.6425 34.0203 35.6458C35.3709 34.4745 36.2694 32.6897 36.4872 30.8881C36.5635 30.2802 36.607 29.6611 36.6343 29.0476ZM21.6911 17.9483V17.8925C21.6965 17.8981 21.7074 17.9037 21.7129 17.9037C21.7074 17.9149 21.6965 17.9316 21.6911 17.9483Z" fill="white"/>
<path d="M21.712 17.9036C21.7066 17.9146 21.6958 17.9311 21.6904 17.9476V17.8926C21.6958 17.8981 21.7066 17.9036 21.712 17.9036Z" fill="white"/>
<path d="M21.712 17.9036C21.7066 17.9146 21.6958 17.9311 21.6904 17.9476V17.8926C21.6958 17.8981 21.7066 17.9036 21.712 17.9036Z" fill="white"/>
<path d="M21.712 17.9036C21.7066 17.9146 21.6958 17.9311 21.6904 17.9476V17.8926C21.6958 17.8981 21.7066 17.9036 21.712 17.9036Z" fill="white"/>
<path d="M21.712 17.9036C21.7066 17.9146 21.6958 17.9311 21.6904 17.9476V17.8926C21.6958 17.8981 21.7066 17.9036 21.712 17.9036Z" fill="white"/>
<path d="M4.9502 10.1399C7.68412 10.1399 9.9004 7.87002 9.9004 5.06996C9.9004 2.2699 7.68412 0 4.9502 0C2.21628 0 0 2.2699 0 5.06996C0 7.87002 2.21628 10.1399 4.9502 10.1399Z" fill="#4CAF50"/>
<path d="M33.5186 13.3415C35.5156 13.3415 37.1346 11.6834 37.1346 9.63804C37.1346 7.59267 35.5156 5.93457 33.5186 5.93457C31.5215 5.93457 29.9026 7.59267 29.9026 9.63804C29.9026 11.6834 31.5215 13.3415 33.5186 13.3415Z" fill="#4CAF50"/>
</svg>
