<svg width="52" height="52" viewBox="0 0 52 52" fill="none" xmlns="http://www.w3.org/2000/svg">
<path d="M27.7798 38.8192C18.7353 38.7822 11.8949 36.0959 6.03712 30.8558C5.92545 30.756 5.80471 30.6625 5.73491 30.5222C5.66652 30.3861 5.65884 30.2549 5.75236 30.1285C5.85426 29.9904 5.99803 29.9471 6.15437 29.9959C6.27441 30.0336 6.38678 30.0999 6.49705 30.1641C11.0015 32.8002 15.8479 34.4676 20.998 35.2653C24.0207 35.7336 27.0616 35.8586 30.1101 35.615C34.4966 35.2653 38.7233 34.2394 42.7769 32.5183C43.0002 32.4233 43.2194 32.3117 43.4762 32.3361C43.7303 32.3605 43.9138 32.4785 44.0192 32.7123C44.1225 32.9426 44.0562 33.1485 43.9061 33.3272C43.7177 33.5526 43.463 33.702 43.2257 33.8681C40.3327 35.899 37.116 37.1881 33.6954 37.997C31.3678 38.5484 29.0144 38.8876 27.7798 38.8192Z" fill="white"/>
<path d="M27.2812 16.6531C26.7898 18.6994 26.3208 20.6508 25.8532 22.6022C25.6152 23.5954 25.3821 24.5893 25.1427 25.5824C24.992 26.2064 24.8245 26.3341 24.1691 26.3376C23.832 26.3397 23.4942 26.3418 23.1571 26.3369C22.6015 26.3292 22.4431 26.2203 22.2777 25.6822C21.6035 23.4865 20.937 21.2894 20.267 19.0923C19.8342 17.6721 19.3987 16.2532 18.9695 14.8315C18.7287 14.0344 18.8034 13.9388 19.6242 13.9388C19.8915 13.9388 20.1595 13.9381 20.4268 13.9388C21.1045 13.9409 21.258 14.0582 21.4346 14.7442C21.7473 15.9579 22.0516 17.173 22.3608 18.3874C22.7991 20.1078 23.2395 21.8275 23.6791 23.5472C23.6924 23.5989 23.6805 23.6631 23.7859 23.7154C23.9388 23.0824 24.0909 22.4606 24.2382 21.8366C24.7986 19.465 25.357 17.0928 25.9174 14.7212C26.0751 14.0547 26.2175 13.9416 26.8966 13.9381C27.2225 13.936 27.5478 13.9332 27.8737 13.9388C28.4342 13.9493 28.5919 14.0617 28.7238 14.613C29.2828 16.949 29.8328 19.2878 30.3856 21.6251C30.5587 22.358 30.731 23.0915 30.9083 23.8439C31.0633 23.7496 31.0423 23.5912 31.0737 23.4712C31.8289 20.5748 32.5771 17.6762 33.3266 14.7784C33.5179 14.0407 33.6519 13.9374 34.4126 13.9374C34.7616 13.9374 35.1106 13.9374 35.4595 13.9381C35.7373 13.9388 35.8706 14.0784 35.835 14.3555C35.8155 14.5041 35.7855 14.6535 35.7401 14.7966C34.6129 18.3937 33.4844 21.9902 32.3544 25.5866C32.1471 26.2454 32.0243 26.3341 31.3334 26.3362C31.0074 26.3369 30.6822 26.3404 30.3563 26.3355C29.7867 26.3264 29.6144 26.1952 29.479 25.6417C28.7803 22.7781 28.0852 19.9138 27.3887 17.0502C27.3635 16.9497 27.3342 16.8506 27.2812 16.6531Z" fill="white"/>
<path d="M41.0216 26.7044C39.8421 26.6737 38.6877 26.4957 37.5955 26.0253C36.8571 25.707 36.5472 24.9414 36.8326 24.1835C36.9415 23.8952 37.1718 23.9427 37.3875 24.0215C37.8223 24.1814 38.2418 24.3838 38.6919 24.5024C39.8624 24.8116 41.0433 24.9561 42.2395 24.6685C43.1377 24.4529 43.6633 23.9022 43.7135 23.1652C43.7575 22.5301 43.4825 22.0694 42.9381 21.7568C42.3484 21.4183 41.6923 21.2563 41.0537 21.0491C40.4256 20.8453 39.7807 20.6882 39.177 20.4146C37.7714 19.7767 36.9415 18.7263 36.9583 17.1406C36.9729 15.7874 37.7113 14.8479 38.8497 14.2184C40.0696 13.5435 41.3936 13.4667 42.7448 13.6733C43.3534 13.7661 43.9536 13.9015 44.5259 14.1367C45.198 14.4131 45.3307 14.6155 45.3313 15.3449C45.3313 16.2606 45.2518 16.3087 44.408 15.9667C43.1489 15.4558 41.848 15.2932 40.5177 15.6101C39.5183 15.8481 39.0542 16.6165 39.3145 17.5001C39.438 17.9202 39.7332 18.1854 40.0983 18.3892C40.6803 18.7138 41.3224 18.8827 41.9492 19.0907C42.6311 19.3168 43.3248 19.5066 43.9864 19.7935C46.6609 20.952 46.5339 24.2323 44.6069 25.6694C43.5391 26.465 42.3128 26.6869 41.0216 26.7044Z" fill="white"/>
<path d="M43.4248 30.9859C42.5133 31.0208 41.553 31.0975 40.5954 31.2155C40.3833 31.2413 40.0797 31.3718 39.9778 31.0808C39.878 30.7953 40.162 30.662 40.363 30.5329C41.6011 29.7366 42.9872 29.44 44.4306 29.3625C45.3386 29.3136 46.2431 29.3632 47.1232 29.6207C47.7674 29.8092 47.9209 29.9753 47.8979 30.6306C47.8176 32.8933 47.0569 34.8915 45.5123 36.5693C45.3951 36.697 45.2611 36.8115 45.125 36.9197C44.9701 37.0418 44.7963 37.1877 44.5953 37.0411C44.3922 36.8932 44.5269 36.7005 44.5918 36.5351C45.0803 35.2942 45.5877 34.0596 45.8404 32.7412C45.8599 32.6386 45.8767 32.5353 45.8857 32.432C45.9737 31.4221 45.7664 31.1555 44.7635 31.0396C44.3377 30.9901 43.9078 30.9566 43.4248 30.9859Z" fill="white"/>
<path d="M15.3639 24.7294C14.6416 25.553 13.8054 26.156 12.7641 26.445C11.8966 26.6857 11.0172 26.7248 10.1413 26.5329C8.53327 26.1811 7.50521 24.9193 7.43123 23.2505C7.33283 21.0395 8.73218 19.4077 10.9844 19.0888C12.2951 18.9031 13.5814 19.0567 14.8586 19.3421C15.1336 19.4035 15.2606 19.3938 15.2362 19.0595C15.2048 18.6198 15.2348 18.1773 15.188 17.7355C15.0359 16.2929 14.3463 15.6375 12.8884 15.5293C11.5937 15.4337 10.3744 15.7192 9.18723 16.2C8.36576 16.5329 8.30365 16.4611 8.24781 15.5977C8.20384 14.9151 8.47185 14.5627 9.08952 14.3156C10.7597 13.647 12.4647 13.3992 14.2444 13.7126C16.1665 14.0511 17.3202 15.3137 17.4766 17.2714C17.6008 18.8277 17.5345 20.3876 17.5233 21.9447C17.5156 23.0181 17.5722 24.0566 18.1654 24.9967C18.3224 25.2459 18.2359 25.4741 18.0091 25.6354C17.6971 25.8573 17.3781 26.0716 17.0522 26.2726C16.7814 26.4394 16.5204 26.401 16.2915 26.1742C16.0416 25.9264 15.8476 25.6375 15.6801 25.3304C15.5768 25.1391 15.477 24.9444 15.3639 24.7294Z" fill="white"/>
<path d="M12.8095 20.6602C13.5326 20.6734 14.243 20.7837 14.9514 20.9163C15.1434 20.9526 15.2585 21.0168 15.2348 21.2513C15.1957 21.6317 15.2076 22.0176 15.1643 22.3973C15.0841 23.1036 14.7372 23.6724 14.1656 24.0842C13.275 24.7249 12.2749 24.951 11.198 24.7431C10.5224 24.6125 10.0959 24.1854 9.93123 23.5077C9.56272 21.9883 10.3653 20.864 11.9413 20.7048C12.2288 20.6755 12.5199 20.6741 12.8095 20.6602Z" fill="black"/>
</svg>
