<svg width="52" height="52" viewBox="0 0 52 52" fill="none" xmlns="http://www.w3.org/2000/svg">
<path d="M38.4073 10.8286C36.9875 12.1539 35.5336 13.4451 34.1532 14.8097C28.9911 19.9088 23.8447 25.0211 18.722 30.1596C18.1 30.7842 17.7326 30.9128 17.087 30.1963C16.0031 28.9996 14.83 27.8816 13.6596 26.7663C13.1951 26.3254 13.0822 26.0393 13.6045 25.5223C18.512 20.662 23.3933 15.7755 28.2877 10.9047C28.4951 10.6973 28.7837 10.4402 29.0383 10.4375C32.0747 10.4034 35.1111 10.4165 38.1474 10.4165C38.2341 10.553 38.3207 10.6921 38.4073 10.8286Z" fill="white"/>
<path d="M25.0417 28.6871C26.136 27.5691 27.2356 26.4512 28.3274 25.3279C28.6108 25.0366 28.9152 24.8451 29.3509 24.8477C32.1852 24.8608 35.0169 24.8556 37.8512 24.8661C37.9614 24.8661 38.0716 24.9605 38.0611 24.9579C35.421 27.6925 32.7704 30.4402 30.1224 33.1853C29.6448 33.3795 29.385 33.0147 29.1199 32.7549C27.7526 31.406 26.3775 30.0649 25.0417 28.6871Z" fill="white"/>
<path d="M25.6217 37.9055C25.4983 38.0236 25.375 38.1417 25.2517 38.2598C23.7951 36.8374 22.3465 35.4071 20.8795 33.9979C20.4333 33.5701 20.3074 33.2657 20.8506 32.7618C22.2809 31.4417 23.6482 30.0534 25.0417 28.6914C25.9182 28.7911 26.2804 29.5706 26.8473 30.0744C27.9731 31.0769 28.9021 32.2894 30.1251 33.1896C30.1198 33.2657 30.1067 33.3391 30.0857 33.4126L30.0569 33.515C29.6632 33.906 29.2512 34.2787 28.9625 34.7589C28.8024 34.9872 28.6082 35.1867 28.414 35.3835C28.1385 35.6486 27.8655 35.9189 27.6005 36.1944C27.401 36.3939 27.2042 36.596 27.01 36.8007C26.6111 37.2547 26.1334 37.6011 25.6217 37.9055Z" fill="white"/>
<path d="M30.0833 33.4082C32.8179 36.1428 35.5525 38.8774 38.5075 41.8324C35.1982 41.8324 32.175 41.8298 29.1491 41.835C28.7528 41.835 28.5166 41.57 28.2725 41.3259C27.2595 40.3076 26.2544 39.2789 25.2467 38.2528C25.2991 38.0139 25.4487 37.8539 25.6534 37.7331C25.9552 37.5914 26.278 37.5074 26.593 37.3972C26.8528 37.3132 27.1126 37.2214 27.3593 37.1059C27.5613 37.0088 27.766 36.9222 27.976 36.8461C28.2962 36.7333 28.6216 36.6309 28.9286 36.4866C29.5322 36.0798 29.1674 35.4447 29.2934 34.9251C29.4194 34.4107 29.653 33.9567 29.9338 33.5184C29.9862 33.4817 30.0335 33.4449 30.0833 33.4082Z" fill="white"/>
<path d="M24.7187 37.6997L30.11 33.1855V33.4208L31.4365 34.8329L25.874 38.9192L24.7187 37.6997Z" fill="white"/>
</svg>
