<svg width="52" height="52" viewBox="0 0 52 52" fill="none" xmlns="http://www.w3.org/2000/svg">
<path d="M40.5197 37.5683C40.2941 37.5461 39.9352 37.6158 39.7437 37.4796C37.9489 36.2319 36.602 37.3814 35.173 38.1605C34.291 38.6418 33.4022 39.1105 32.5065 39.5665C31.0844 40.2886 29.7374 40.8649 29.6656 42.8188C29.6109 44.3706 27.7546 45.2731 25.9667 45.1274C24.3634 44.9944 23.3344 43.8227 23.1087 42.1095C23.0404 41.5869 22.678 40.9156 22.2199 40.6464C20.114 39.4019 17.9501 38.2333 15.7519 37.1344C15.3246 36.9223 14.5793 36.9951 14.0939 37.1819C12.1247 37.9388 10.2069 37.5049 9.31464 36.0007C8.37794 34.4268 8.9215 32.9511 10.7881 31.6812C11.1675 31.4247 11.5333 30.8863 11.547 30.4683C11.6188 28.1534 11.6256 25.8321 11.5402 23.514C11.5231 23.0707 11.0821 22.5165 10.6616 22.2347C8.95227 21.0914 8.39845 19.5112 9.29413 17.9943C10.1966 16.4711 12.1726 16.0151 14.0494 16.7656C14.569 16.9746 15.3793 17.0158 15.8544 16.7814C18.0082 15.7174 20.1175 14.5678 22.1755 13.3518C22.637 13.0794 23.0404 12.4303 23.1053 11.9172C23.348 9.94748 24.4625 8.83594 26.4145 8.83594C28.3802 8.83594 29.6554 10.0678 29.9015 12.0154C29.9665 12.5316 30.3665 13.1681 30.8246 13.4563C32.1886 14.305 33.6552 15.0112 35.0876 15.7681C36.5644 16.5503 37.8259 17.5985 39.8463 16.5344C41.2274 15.8092 43.0017 16.8258 43.6341 18.1463C44.3247 19.5809 43.9452 21.2118 42.4102 22.0098C41.3607 22.5577 41.1795 23.2132 41.2069 24.1664C41.2513 25.6421 41.2206 27.1179 41.2171 28.5936C41.2137 30.0376 40.9813 31.4089 42.8512 32.3241C44.164 32.9669 44.1982 34.4427 43.6614 35.7315C43.135 37.0204 42.0137 37.5366 40.5197 37.5683ZM26.4453 33.8695C29.5802 33.8695 32.7116 33.8821 35.8465 33.8663C37.7541 33.8568 38.554 32.6122 37.6105 31.0922C34.5201 26.114 31.4126 21.1453 28.2982 16.1829C27.2248 14.476 25.6659 14.4697 24.5924 16.1734C21.4678 21.1326 18.3603 26.1013 15.2562 31.0732C14.3263 32.5616 15.1536 33.8568 17.0407 33.8663C20.1756 33.8821 23.3104 33.8695 26.4453 33.8695ZM15.9194 35.304C15.8647 35.4117 15.81 35.5162 15.7553 35.6239C18.0526 36.8494 20.3704 38.0465 22.637 39.3195C23.3959 39.747 23.9737 39.8959 24.777 39.386C25.9188 38.664 27.1256 38.8223 28.3119 39.443C28.6572 39.6235 29.2281 39.7977 29.505 39.6584C32.0723 38.3505 34.5987 36.9729 37.1387 35.6175C37.108 35.513 37.0738 35.4085 37.043 35.304C30.0041 35.304 22.9617 35.304 15.9194 35.304ZM29.1802 14.115C29.064 14.2227 28.9477 14.3272 28.8349 14.4348C32.3698 20.0812 35.9046 25.7276 39.4395 31.374C39.6001 31.317 39.7608 31.2632 39.9215 31.2062C39.9215 28.5397 39.9454 25.8733 39.8873 23.2069C39.8805 22.8997 39.4771 22.5165 39.1523 22.3202C37.9319 21.5855 37.1285 20.6798 37.2003 19.242C37.2174 18.9127 37.1216 18.3965 36.8823 18.2635C34.3355 16.8448 31.751 15.4862 29.1802 14.115ZM24.042 14.4507C23.9292 14.3367 23.813 14.2258 23.7002 14.1118C21.1636 15.4704 18.2338 16.4679 16.2339 18.3237C14.9724 19.4954 14.9348 21.8641 13.0854 23.0232C13.0854 25.7276 13.0854 28.4321 13.0854 31.1365C13.2358 31.1714 13.3862 31.2094 13.5366 31.2442C17.0373 25.6453 20.5414 20.0464 24.042 14.4507Z" fill="white"/>
</svg>
