<svg width="51" height="52" viewBox="0 0 51 52" fill="none" xmlns="http://www.w3.org/2000/svg">
<g clip-path="url(#clip0_1325_10269)">
<path d="M5.9115 2.86914C6.79315 2.876 7.67824 2.87943 8.56675 2.88286C8.49127 4.46091 8.80002 6.1007 8.35405 7.63758C7.77772 8.74221 6.34375 8.52609 5.31116 8.54667C5.26999 8.19676 5.22883 7.84684 5.19109 7.49693C5.78457 7.4489 6.42951 7.56554 6.97497 7.26022C7.32831 6.16588 7.17051 4.99607 7.08132 3.87085C6.77943 3.87772 6.17908 3.88458 5.8772 3.88801C5.88749 3.63415 5.90121 3.123 5.9115 2.86914Z" fill="#131313"/>
<path d="M23.5753 3.30181C24.6148 2.49907 25.9801 2.8284 27.1362 3.14058C27.1328 3.4459 27.1293 4.05653 27.1293 4.36185C26.234 4.00164 24.5324 3.21605 24.306 4.69804C25.1534 4.95533 26.0487 5.10627 26.8172 5.56596C27.6336 6.23149 27.4038 7.74435 26.4638 8.20061C25.3935 8.83526 24.1242 8.48878 22.9955 8.25893C22.9304 7.78895 22.8652 7.32239 22.8069 6.85241C23.7571 7.27094 25.6817 8.26236 25.9664 6.6603C25.0127 6.3001 23.8257 6.24864 23.1328 5.42531C22.8275 4.72548 22.8789 3.75121 23.5753 3.30181Z" fill="#131313"/>
<path d="M42.5427 3.06445C42.944 3.06445 43.3488 3.06445 43.7571 3.06445C43.7674 3.4521 43.7811 3.83975 43.7982 4.2274C44.107 4.23083 44.7279 4.2377 45.0401 4.24113C45.0469 4.47783 45.0572 4.94782 45.0641 5.18109C44.7485 5.17766 44.1173 5.1708 43.8017 5.16394C43.8188 5.94953 43.6164 6.80717 44.0109 7.53101C44.3059 7.56188 44.896 7.6202 45.191 7.65108C45.1601 9.09533 43.5135 8.4401 42.6421 8.21369C42.5632 7.33204 42.5255 6.45039 42.5255 5.56531C42.3025 5.25313 42.0795 4.93752 41.86 4.62535C42.0281 4.47097 42.3643 4.16222 42.5324 4.00785C42.5358 3.77114 42.5392 3.29773 42.5427 3.06445Z" fill="#131313"/>
<path d="M9.63712 4.27231C10.7555 4.21399 12.3198 3.7989 13.0231 4.95499C13.2735 6.10078 13.1157 7.29118 13.1534 8.45756C12.6526 8.41296 12.1517 8.36493 11.6543 8.32034C11.0848 8.36836 10.4159 8.79032 9.89098 8.41296C9.01962 7.99444 9.00592 6.4507 9.92187 6.07677C10.5874 5.80233 11.3147 5.7543 12.0111 5.58964C11.349 4.90353 10.409 5.16425 9.57538 5.25344C9.59253 5.00644 9.6234 4.51588 9.63712 4.27231ZM10.728 6.62908C10.6903 6.96185 10.656 7.29461 10.6251 7.6308C11.0059 7.61022 11.3867 7.59306 11.7709 7.57248C11.7984 7.21227 11.8292 6.85207 11.8601 6.49186C11.4793 6.53646 11.102 6.58449 10.728 6.62908Z" fill="#131313"/>
<path d="M13.6645 4.15234C13.9938 4.21752 14.6559 4.34788 14.9853 4.41306C15.3317 5.20895 15.5685 6.046 15.9047 6.84874C16.186 5.99111 16.4467 5.12318 16.7005 4.25526C17.0299 4.2484 17.6919 4.2381 18.0213 4.23124C17.5547 5.70294 17.0333 7.15749 16.4501 8.59145C15.9973 8.53313 15.5513 8.43708 15.1191 8.31015C14.4947 6.9791 14.083 5.55886 13.6645 4.15234Z" fill="#131313"/>
<path d="M18.4467 5.24661C18.5427 4.92071 18.6525 4.59481 18.7726 4.27577C19.8361 4.1214 21.2769 3.89498 22.0076 4.88984C22.258 6.0768 22.1036 7.30493 22.1276 8.50905C21.6234 8.44044 21.1225 8.37183 20.6216 8.30322C19.7228 8.78006 18.2237 8.60853 18.2443 7.34267C18.0727 5.84009 19.9493 5.81951 20.9681 5.62054C20.3541 4.79721 19.2906 5.23289 18.4467 5.24661ZM19.6885 6.65999C19.6508 6.96874 19.6165 7.28092 19.5822 7.58966C19.9595 7.59996 20.3369 7.61025 20.7177 7.61711C20.752 7.23632 20.7863 6.85896 20.8206 6.47817C20.4432 6.53649 20.0659 6.59824 19.6885 6.65999Z" fill="#131313"/>
<path d="M27.6234 6.36791C27.517 4.5017 29.891 3.524 31.3112 4.51885C31.3455 4.783 31.4107 5.31474 31.4415 5.57889C30.7897 5.37306 30.1208 4.9065 29.421 5.22211C28.68 5.9288 28.8343 7.72297 30.0899 7.61662C30.4364 7.50685 31.1259 7.28729 31.4724 7.17751C31.4107 7.47254 31.2906 8.06259 31.2323 8.35419C29.7469 9.05402 27.5067 8.22726 27.6234 6.36791Z" fill="#131313"/>
<path d="M32.0111 4.13867C32.5257 4.27589 33.0505 4.41312 33.5685 4.56063C33.9562 4.41998 34.3473 4.28275 34.7418 4.1421C34.7589 4.47143 34.8001 5.1301 34.8207 5.45943C34.3267 5.48344 33.8327 5.50745 33.3456 5.53147C33.3113 6.51603 33.301 7.49716 33.2941 8.48172C32.9716 8.48515 32.3233 8.48859 32.0008 8.49202C31.9836 7.0409 31.9802 5.58979 32.0111 4.13867Z" fill="#131313"/>
<path d="M37.589 4.23062C38.5358 4.44331 39.4895 4.37813 40.4329 4.18945C41.9114 4.49477 41.9457 6.59083 41.3831 7.6886C40.9166 8.63542 39.7742 8.54623 38.8926 8.4982C38.8994 8.99906 38.9063 9.49649 38.9131 9.99734C38.5838 9.99391 37.9183 9.98705 37.5855 9.98019C37.5855 8.06596 37.5821 6.14829 37.589 4.23062ZM38.9269 5.23919C38.9132 6.03851 38.9063 6.84125 38.9131 7.64057C39.3385 7.52393 39.8874 7.60626 40.2099 7.2392C40.45 6.5874 40.2614 5.88414 40.2133 5.21175C39.7845 5.21861 39.3557 5.2289 38.9269 5.23919Z" fill="#131313"/>
<path d="M35.342 4.24219C35.6473 4.24219 36.258 4.24219 36.5599 4.24219C36.5805 5.659 36.5805 7.07238 36.5599 8.48918C36.2546 8.48918 35.6473 8.48918 35.342 8.48918C35.318 7.07581 35.318 5.659 35.342 4.24219Z" fill="#131313"/>
<path d="M9.88744 11.2437C13.3077 11.0996 16.7348 11.2849 20.1584 11.2265C23.9355 11.1065 27.709 11.206 31.4895 11.2197C34.4878 11.2265 37.4861 11.206 40.4843 11.23C39.5409 21.6348 38.5907 32.0396 37.7159 42.4512C33.6988 43.5936 29.6782 44.7188 25.661 45.8543C25.1464 46.067 24.6181 45.868 24.1241 45.7343C20.306 44.6365 16.4878 43.549 12.6627 42.4924C11.6679 32.0842 10.7313 21.6656 9.88744 11.2437ZM25.2494 13.9572C25.1087 19.0893 25.2288 24.2214 25.1876 29.3535C25.2253 34.0464 25.119 38.7428 25.2425 43.4358C28.6181 42.6399 31.9492 41.6622 35.2802 40.6982C36.1173 31.7891 36.9337 22.8801 37.6336 13.9607C33.5066 13.9195 29.3763 13.9675 25.2494 13.9572ZM20.9543 33.9984C18.9715 33.4564 17.0127 32.832 15.0024 32.4032C14.944 33.597 14.9646 34.7909 15.1018 35.9778C18.0452 36.6948 20.9269 37.6382 23.8737 38.3415C23.8943 31.5456 23.8634 24.7463 23.8874 17.9504C22.9269 17.9264 21.9663 17.9126 21.0058 17.8921C20.896 23.2574 20.9989 28.6296 20.9543 33.9984Z" fill="white"/>
<path d="M25.2498 13.9569C29.3767 13.9672 33.507 13.9192 37.634 13.9603C36.9342 22.8797 36.1177 31.7888 35.2806 40.6979C31.9496 41.6619 28.6186 42.6396 25.2429 43.4355C25.1194 38.7425 25.2258 34.0461 25.188 29.3531C25.2292 24.221 25.1091 19.089 25.2498 13.9569ZM26.4059 17.9466C26.4196 22.3651 26.423 26.7871 26.4059 31.2056C28.423 30.8797 30.4333 30.5058 32.4436 30.1387C32.4127 31.1679 32.3716 32.197 32.327 33.2262C30.3681 33.7476 28.4127 34.2862 26.4436 34.7699C26.4127 35.9569 26.4093 37.1439 26.4196 38.3343C28.8999 37.7785 31.3424 37.0787 33.8055 36.4578C34.1143 36.3137 34.7077 36.3308 34.6803 35.8471C34.9788 32.6704 35.164 29.4801 35.4522 26.2965C33.411 26.4646 31.3904 26.8077 29.3493 26.9483C29.3321 25.1439 29.3287 23.3394 29.3561 21.5349C31.5036 21.5349 33.6477 21.5349 35.7952 21.5384C35.9324 20.3343 36.0525 19.1267 36.1451 17.9192C32.8999 17.9329 29.6511 17.8883 26.4059 17.9466Z" fill="white"/>
<path d="M20.9545 33.9989C20.9991 28.6301 20.8961 23.2579 21.0059 17.8926C21.9665 17.9132 22.927 17.9269 23.8876 17.9509C23.8636 24.7468 23.8944 31.5461 23.8738 38.342C20.927 37.6387 18.0454 36.6953 15.102 35.9783C14.9648 34.7914 14.9442 33.5976 15.0025 32.4037C17.0128 32.8325 18.9716 33.4569 20.9545 33.9989Z" fill="black"/>
</g>
<defs>
<clipPath id="clip0_1325_10269">
<rect width="40" height="43.3146" fill="white" transform="translate(5.19109 4.63281)"/>
</clipPath>
</defs>
</svg>
