<svg width="51" height="52" viewBox="0 0 51 52" fill="none" xmlns="http://www.w3.org/2000/svg">
<g clip-path="url(#clip0_1325_10302)">
<path d="M25.1902 42.1835C24.7555 42.1835 24.3497 42.0676 23.9729 41.8647L20.1178 39.5748C19.5381 39.256 19.8279 39.1401 20.0018 39.0821C20.7844 38.8212 20.9294 38.7632 21.741 38.2995C21.8279 38.2415 21.9439 38.2705 22.0308 38.3285L24.9873 40.0966C25.1033 40.1546 25.2482 40.1546 25.3352 40.0966L36.9004 33.4009C37.0163 33.343 37.0743 33.227 37.0743 33.0821V19.7198C37.0743 19.5748 37.0163 19.4589 36.9004 19.4009L25.3352 12.7343C25.2192 12.6763 25.0743 12.6763 24.9873 12.7343L13.4221 19.4009C13.3062 19.4589 13.2482 19.6038 13.2482 19.7198V33.0821C13.2482 33.198 13.3062 33.343 13.4221 33.4009L16.5816 35.227C18.2917 36.0966 19.3642 35.0821 19.3642 34.0676V20.8792C19.3642 20.7053 19.5091 20.5314 19.712 20.5314H21.1902C21.3642 20.5314 21.5381 20.6763 21.5381 20.8792V34.0676C21.5381 36.3574 20.2917 37.6908 18.1178 37.6908C17.4511 37.6908 16.9294 37.6908 15.4511 36.9661L12.4076 35.227C11.654 34.7922 11.1902 33.9806 11.1902 33.1111V19.7488C11.1902 18.8792 11.654 18.0676 12.4076 17.6328L23.9729 10.9372C24.6975 10.5314 25.683 10.5314 26.4076 10.9372L37.9729 17.6328C38.7265 18.0676 39.1902 18.8792 39.1902 19.7488V33.1111C39.1902 33.9806 38.7265 34.7922 37.9729 35.227L26.4076 41.9227C26.0308 42.0966 25.596 42.1835 25.1902 42.1835ZM28.7555 32.9951C23.683 32.9951 22.6395 30.6763 22.6395 28.7053C22.6395 28.5314 22.7844 28.3574 22.9873 28.3574H24.4946C24.6685 28.3574 24.8134 28.4734 24.8134 28.6473C25.0453 30.1835 25.712 30.9372 28.7844 30.9372C31.2192 30.9372 32.2627 30.3864 32.2627 29.0821C32.2627 28.3285 31.9729 27.7777 28.1758 27.4009C25.0163 27.0821 23.0453 26.3864 23.0453 23.8647C23.0453 21.5169 25.0163 20.1256 28.3207 20.1256C32.0308 20.1256 33.8569 21.4009 34.0888 24.1835C34.0888 24.2705 34.0598 24.3574 34.0018 24.4444C33.9439 24.5024 33.8569 24.5603 33.77 24.5603H32.2627C32.1178 24.5603 31.9729 24.4444 31.9439 24.2995C31.596 22.7053 30.6975 22.1835 28.3207 22.1835C25.654 22.1835 25.3352 23.1111 25.3352 23.8067C25.3352 24.6473 25.712 24.9082 29.3062 25.3719C32.8714 25.8357 34.5526 26.5024 34.5526 28.9951C34.5236 31.5459 32.4366 32.9951 28.7555 32.9951Z" fill="white"/>
</g>
<defs>
<clipPath id="clip0_1325_10302">
<rect width="28" height="31.6094" fill="white" transform="translate(11.1902 10.6328)"/>
</clipPath>
</defs>
</svg>
