<svg width="52" height="52" viewBox="0 0 52 52" fill="none" xmlns="http://www.w3.org/2000/svg">
<path fill-rule="evenodd" clip-rule="evenodd" d="M19.3858 14.2904C19.3858 13.8685 19.7597 13.1862 21.0122 12.5434C22.1999 11.934 23.9136 11.52 25.8619 11.52C27.8103 11.52 29.524 11.934 30.7117 12.5434C31.9642 13.1862 32.338 13.8685 32.338 14.2904L32.3378 18.6438V19.0036C32.3378 20.7759 32.2252 22.0146 31.9964 22.8908C31.7737 23.7428 31.4635 24.1711 31.1109 24.4325C30.7302 24.7144 30.1571 24.9095 29.2019 25.0139C28.2447 25.1185 27.0524 25.12 25.502 25.12H25.4473C24.1426 25.12 22.9637 25.12 21.9711 25.2401C20.9562 25.3633 19.9943 25.6253 19.2061 26.2559C18.4021 26.8991 17.9141 27.8153 17.6246 28.9731C17.3779 29.96 17.2605 31.181 17.2333 32.6754H13.953C13.5312 32.6754 12.8488 32.3016 12.2061 31.049C11.5966 29.8613 11.1827 28.1476 11.1827 26.1993C11.1827 24.2509 11.5966 22.5372 12.2061 21.3495C12.8488 20.0971 13.5312 19.7231 13.953 19.7231H18.3064H25.8619V17.5644H19.3858V14.2904ZM13.953 34.8342H17.227L17.2271 38.1083C17.2271 39.7725 18.5445 41.0152 20.0266 41.7756C21.5734 42.5693 23.6374 43.0372 25.8619 43.0372C28.0864 43.0372 30.1503 42.5693 31.6971 41.7756C33.1793 41.0152 34.4968 39.7725 34.4968 38.1083V34.8342H37.7708C39.4352 34.8342 40.6778 33.5166 41.4383 32.0345C42.232 30.4877 42.6999 28.4238 42.6999 26.1993C42.6999 23.9748 42.232 21.9108 41.4383 20.364C40.6778 18.8819 39.4352 17.5644 37.7708 17.5644H34.4968V14.2904C34.4968 12.6258 33.1793 11.3834 31.6971 10.6228C30.1503 9.82907 28.0864 9.36133 25.8619 9.36133C23.6374 9.36133 21.5734 9.82907 20.0266 10.6228C18.5445 11.3834 17.2271 12.6258 17.2271 14.2904V17.5644H13.953C12.2885 17.5644 11.046 18.8819 10.2855 20.364C9.49172 21.9108 9.02399 23.9748 9.02399 26.1993C9.02399 28.4238 9.49172 30.4877 10.2855 32.0345C11.046 33.5166 12.2885 34.8342 13.953 34.8342ZM25.8619 34.8342H32.338V38.1083C32.338 38.5301 31.9642 39.2125 30.7117 39.8551C29.524 40.4646 27.8103 40.8786 25.8619 40.8786C23.9136 40.8786 22.1999 40.4646 21.0122 39.8551C19.7597 39.2125 19.3858 38.5301 19.3858 38.1083L19.3857 33.7547V33.395C19.3857 31.6245 19.4981 30.3797 19.7189 29.4968C19.9354 28.6309 20.2344 28.1977 20.5547 27.9416C20.8908 27.6726 21.3906 27.4851 22.2308 27.3832C23.0795 27.2803 24.1301 27.2786 25.502 27.2786H25.5544C27.0406 27.2786 28.3489 27.2786 29.4364 27.1599C30.5387 27.0393 31.562 26.7846 32.3957 26.1671C33.2572 25.5291 33.7789 24.6083 34.0849 23.4364C34.3443 22.4438 34.463 21.2175 34.4903 19.7231H37.7708C38.1928 19.7231 38.8751 20.0971 39.5177 21.3495C40.127 22.5372 40.5412 24.2509 40.5412 26.1993C40.5412 28.1476 40.127 29.8613 39.5177 31.049C38.8751 32.3016 38.1928 32.6754 37.7708 32.6754H33.4175H25.8619V34.8342ZM22.0326 16.3824C22.7791 16.3824 23.3844 15.7772 23.3844 15.0306C23.3844 14.284 22.7791 13.6787 22.0326 13.6787C21.286 13.6787 20.6808 14.284 20.6808 15.0306C20.6808 15.7772 21.286 16.3824 22.0326 16.3824ZM29.6982 38.7294C30.4463 38.7294 31.0524 38.1233 31.0524 37.3757C31.0524 36.6276 30.4463 36.0215 29.6982 36.0215C28.9504 36.0215 28.3443 36.6276 28.3443 37.3757C28.3443 38.1233 28.9504 38.7294 29.6982 38.7294Z" fill="white"/>
</svg>
