<svg width="51" height="52" viewBox="0 0 51 52" fill="none" xmlns="http://www.w3.org/2000/svg">
<path d="M14.3448 33.6836C14.3976 33.2413 14.0336 33.2492 13.7714 33.165C11.9513 32.5798 10.229 31.8029 8.726 30.5973C8.61053 30.5053 8.4931 30.4133 8.38351 30.3155C5.99586 28.1744 6.00564 25.8729 8.43635 23.7808C9.93939 22.4871 11.7223 21.6984 13.5992 21.1348C14.2098 20.9528 14.3996 20.7629 14.245 20.0779C13.8692 18.4183 13.6618 16.7352 13.8457 15.0149C14.0786 12.8543 14.7988 11.1066 17.1493 10.5312C17.4468 10.5312 17.7423 10.5312 18.0398 10.5312C20.6212 10.7661 22.5802 12.228 24.4688 13.8152C24.7507 14.0521 24.9992 14.328 25.3378 14.4885C25.7253 14.8975 26.0834 15.334 26.4788 15.7371C27.3966 16.7646 28.2852 17.8175 29.0758 18.9448C29.3498 19.3362 29.6943 19.5476 30.1679 19.6024C31.3147 19.7335 32.4557 19.9135 33.5908 20.1386C33.8785 20.1954 34.176 20.2345 34.4011 20.4596C34.4813 21.0271 34.3913 21.5516 34.0018 21.9978C33.5889 22.2425 33.1838 22.0233 32.7767 21.9665C32.2228 21.8882 31.6768 21.7356 30.9879 21.7336C31.6533 22.8824 32.2424 23.9549 32.898 24.9902C33.1622 25.6067 33.4636 26.2036 33.859 26.7497C34.0449 27.6304 34.5126 28.3975 34.8375 29.2215C35.0626 29.7969 35.2857 30.3722 35.4638 30.9633C35.5812 31.3567 35.8043 31.4643 36.1898 31.3273C37.9669 30.6952 39.7009 29.9945 41.0532 28.6011C42.1903 27.4307 42.1472 26.3896 40.9064 25.3132C39.5737 24.1585 37.9865 23.4852 36.3582 22.8903C36.0176 22.765 35.6223 22.722 35.4442 22.3286C35.3718 21.7787 35.5049 21.2913 35.8826 20.8784C37.5579 21.4029 39.2018 21.9998 40.6892 22.9588C41.4407 23.4422 42.1453 23.9784 42.7128 24.6791C44.0202 26.2937 44.0104 27.9278 42.6522 29.5033C41.2528 31.1257 39.3897 32.026 37.4424 32.7834C36.9844 32.9615 36.3523 32.9947 36.1057 33.3235C35.8474 33.668 36.2172 34.2473 36.2877 34.7287C36.5774 36.6936 36.7476 38.6546 36.1664 40.6019C35.4285 43.0738 33.7063 44.0366 31.211 43.3458C29.1345 42.7704 27.4514 41.5316 25.8623 40.1303C25.6235 39.9189 25.4611 39.5295 25.0227 39.641C24.6254 39.3064 24.2868 38.9091 23.8954 38.5666C22.956 37.3375 21.9305 36.177 20.9891 34.9499C20.7954 34.6954 20.5018 34.6465 20.2004 34.6074C18.9577 34.4508 17.713 34.3119 16.4839 34.0633C16.2471 34.0163 15.9888 34.034 15.7891 33.8559C15.7774 33.1924 15.9535 32.5837 16.298 32.0201C17.2824 32.1532 18.2453 32.4468 19.3921 32.4918C18.6152 31.3214 18.0711 30.1687 17.3568 29.1119C17.165 28.4621 16.9047 27.8456 16.4741 27.3113C15.9594 25.9492 15.337 24.6262 14.9261 23.2249C14.8067 22.8179 14.5953 22.6437 14.1648 22.7905C12.3779 23.3991 10.6342 24.088 9.25441 25.4443C8.16823 26.5129 8.15061 27.5697 9.21723 28.6696C10.2721 29.7597 11.6244 30.3722 12.9768 30.9887C13.6266 31.2842 14.3507 31.3821 14.9632 31.7716C14.8047 32.4272 14.8987 33.1611 14.3448 33.6836Z" fill="white"/>
<path d="M31.9743 10.543C32.4323 10.543 32.8903 10.541 33.3502 10.541C34.7925 10.7778 35.5519 11.7622 36.0001 13.0363C36.6831 14.9777 36.5363 16.9701 36.2506 18.9565C36.1625 19.5632 36.0059 20.1601 35.8787 20.7629C35.8611 21.2952 35.4912 21.7532 35.5558 22.3012C35.3327 23.8062 34.6575 25.1468 34.0195 26.4991C33.9745 26.595 33.8786 26.6263 33.7709 26.595C33.2151 26.1762 32.945 25.6028 32.8668 24.9256C32.7337 24.7397 32.7904 24.5401 32.8668 24.3659C33.2269 23.5459 33.3306 22.6202 33.904 21.8902C34.1878 21.4166 34.1643 20.849 34.3639 20.35C34.1584 20.0388 34.3209 19.7237 34.3718 19.4184C34.6203 17.9545 34.7749 16.4906 34.6164 15.0012C34.3365 12.3689 33.0449 11.637 30.6631 12.7819C29.3597 13.4082 28.1971 14.238 27.1188 15.195C26.8937 15.3946 26.7215 15.7234 26.3262 15.6079C25.8937 15.3085 25.5159 14.964 25.3183 14.4572C27.0209 12.7701 28.9056 11.363 31.2483 10.6819C31.4851 10.6115 31.7317 10.588 31.9743 10.543Z" fill="white"/>
<path d="M14.345 33.5676C14.5681 32.9198 14.5798 32.2114 14.8969 31.589C15.0358 29.9607 15.5584 28.4792 16.578 27.1875C17.171 27.6337 17.3843 28.2659 17.4469 28.9704C17.5487 29.0976 17.5585 29.2464 17.4998 29.3814C17.126 30.2327 17.0203 31.2035 16.3764 31.9354C16.1983 32.548 16.0202 33.1586 15.8402 33.7712C16.1063 34.1215 15.9282 34.4855 15.8617 34.8378C15.5721 36.3976 15.4096 37.9613 15.713 39.5387C15.7795 39.8792 15.8832 40.208 16.0281 40.5231C16.4762 41.488 17.1299 41.8187 18.1867 41.5956C19.9246 41.2277 21.367 40.302 22.733 39.2177C23.1069 38.9222 23.4082 38.4838 23.9562 38.4603C24.4944 38.6306 24.8467 38.9868 25.0209 39.523C23.4454 41.1239 21.6488 42.398 19.496 43.0967C16.4919 44.0713 14.4859 42.8775 13.9379 39.7833C13.568 37.6892 13.8009 35.6147 14.345 33.5676Z" fill="white"/>
<path d="M28.4302 32.8483C26.434 32.8973 24.4397 33.0108 22.4396 32.862C21.9797 32.8288 21.6861 32.7192 21.4258 32.3121C20.4414 30.7738 19.5137 29.2081 18.6917 27.5779C18.5587 27.3137 18.4041 27.0573 18.4589 26.7422C18.3943 26.5054 18.5 26.3077 18.5998 26.1101C19.41 24.5013 20.322 22.9533 21.3182 21.4522C21.4532 21.2506 21.5922 21.0295 21.8975 21.0803C23.9133 21.0001 25.931 20.8983 27.9468 21.0901C28.2071 21.1156 28.4889 21.0412 28.671 21.3308C29.8315 23.1823 31.0449 25.0043 31.8708 27.0456C31.9373 27.3098 31.8043 27.5231 31.6966 27.7423C30.8981 29.3451 29.9979 30.8912 29.0311 32.3982C28.8921 32.6115 28.7786 32.8953 28.4302 32.8483Z" fill="black"/>
<path d="M29.471 34.3021C30.9545 34.2277 32.4184 33.987 33.8647 33.6699C34.3794 33.5564 34.4909 33.6993 34.5771 34.1533C34.9469 36.085 35.1916 38.0166 34.671 39.9541C34.2091 41.6744 33.2462 42.2302 31.5592 41.6783C29.5023 41.0071 27.7722 39.8152 26.3573 38.1712C26.4806 37.7289 26.8152 37.4315 27.0951 37.0968C27.7214 36.3472 28.3085 35.5644 28.8956 34.7835C29.0463 34.5878 29.1246 34.2786 29.471 34.3021Z" fill="black"/>
<path d="M26.3264 15.6051C27.4205 14.6442 28.5243 13.6989 29.8062 12.9866C30.5224 12.5893 31.2622 12.2605 32.0666 12.1C33.233 11.8671 33.9689 12.2566 34.4308 13.3506C34.8222 14.2782 34.9083 15.2627 34.8965 16.251C34.8789 17.6346 34.6969 19.0027 34.3642 20.3491C32.8103 20.081 31.2622 19.7737 29.6907 19.625C29.5419 19.6113 29.4089 19.5937 29.3032 19.4567C28.3149 18.1709 27.3206 16.887 26.3264 15.6051Z" fill="black"/>
<path d="M29.4708 34.3038C28.4629 35.6189 27.5372 37.0006 26.3552 38.1769C25.9402 37.8755 25.5664 37.5349 25.2983 37.0926C25.2631 36.9674 25.2729 36.8343 25.3531 36.7423C26.0107 35.9927 26.5411 35.1316 27.3259 34.4936C27.7388 33.975 28.185 33.4798 28.4316 32.8477C29.735 31.147 30.7175 29.2564 31.6882 27.3561C31.743 27.2485 31.8115 27.1486 31.8741 27.0449C32.3986 27.5381 32.5024 28.2348 32.747 28.8631C32.7666 29.503 32.2773 29.9218 32.0425 30.4503C31.7939 31.01 31.4455 31.5169 31.1128 32.0316C31.0072 32.194 30.9582 32.4758 30.649 32.3819C30.3398 33.0767 29.8955 33.6853 29.4708 34.3038Z" fill="white"/>
<path d="M31.9747 10.5432C31.9826 10.5002 31.9884 10.4571 31.9943 10.4141C32.4405 10.4141 32.8848 10.4141 33.331 10.4141C33.3349 10.4571 33.3408 10.4982 33.3506 10.5413C32.8926 10.8877 32.4327 10.8857 31.9747 10.5432Z" fill="white"/>
<path d="M33.9043 21.8899C33.6773 22.9428 33.1665 23.8978 32.869 24.9253C32.7731 24.9312 32.6733 24.9566 32.6126 24.847C31.9746 23.7217 31.3346 22.5983 30.6575 21.4065C31.8161 21.3967 32.8475 21.7313 33.9043 21.8899Z" fill="black"/>
<path d="M16.5776 27.1908C15.877 28.6038 15.2938 30.0618 14.8965 31.5923C14.8495 31.606 14.7967 31.6412 14.7556 31.6314C12.4286 31.0228 10.2582 30.1147 8.6925 28.1908C7.95468 27.2847 8.03492 26.4216 8.81775 25.5116C9.70823 24.4763 10.8727 23.8285 12.0959 23.2766C12.8611 22.9302 13.6479 22.6464 14.4522 22.4018C14.7066 22.3254 14.8436 22.3039 14.9415 22.6131C15.3838 24.0262 15.9318 25.4 16.5346 26.7543C16.5913 26.8796 16.5659 27.044 16.5776 27.1908Z" fill="black"/>
<path d="M23.9567 38.4643C22.8118 39.4037 21.6943 40.3784 20.3537 41.0438C19.6648 41.3863 18.9603 41.67 18.1989 41.807C16.9621 42.0301 16.2027 41.6231 15.7585 40.4351C15.2516 39.0789 15.2927 37.6678 15.4492 36.2606C15.5412 35.4289 15.7076 34.603 15.8406 33.7751C16.3925 33.5501 16.8994 33.8671 17.4279 33.918C18.4299 34.0159 19.426 34.1881 20.4281 34.3016C20.7099 34.3349 20.9408 34.3721 21.1228 34.6265C21.9722 35.8066 22.8705 36.9476 23.8647 38.0103C24.0017 38.1571 24.0526 38.2882 23.9567 38.4643Z" fill="black"/>
<path d="M20.8598 19.6215C19.3528 19.7134 17.8674 19.962 16.3937 20.279C16.0257 20.3593 15.9005 20.2614 15.8339 19.9346C15.4543 18.0871 15.1803 16.2357 15.511 14.3451C15.8633 12.3352 16.8966 11.6678 18.8322 12.3098C20.8617 12.983 22.5683 14.1768 23.9989 15.7621C24.0048 16.2827 23.5273 16.4706 23.267 16.8033C22.6818 17.5567 22.0575 18.2789 21.4978 19.052C21.3295 19.2868 21.1827 19.5569 20.8598 19.6215Z" fill="black"/>
<path d="M33.7715 26.5946C34.3919 25.4576 34.797 24.2324 35.2393 23.021C35.3293 22.7744 35.347 22.4945 35.5564 22.3008C36.9244 22.7881 38.308 23.2441 39.5586 24.0074C40.3219 24.4732 41.0499 24.9781 41.596 25.7002C42.2731 26.5986 42.2614 27.354 41.5353 28.2543C40.727 29.2582 39.6506 29.906 38.5194 30.4755C37.7013 30.8865 36.8441 31.1899 35.983 31.4932C35.6777 31.6009 35.5055 31.5754 35.39 31.2114C34.9673 29.8708 34.433 28.5713 33.8243 27.3031C33.7089 27.0604 33.7147 26.8354 33.7715 26.5946Z" fill="black"/>
<path d="M20.8603 19.6231C21.8467 18.2883 22.8448 16.9614 23.9995 15.7656C24.3772 16.1199 24.8567 16.3841 25.0113 16.9321C25.1346 17.1297 24.9956 17.2667 24.8821 17.3841C24.4202 17.8675 24.0308 18.4077 23.6041 18.9185C23.4769 19.0692 23.3477 19.2277 23.1149 19.1866C22.7567 19.8501 22.1011 20.3198 21.8975 21.0811C21.0403 21.9833 20.5041 23.1008 19.8759 24.1518C19.3709 24.9953 18.9306 25.8779 18.4609 26.7429C17.9423 26.2067 17.5371 25.6294 17.7446 24.8211C17.7074 24.7859 17.6585 24.735 17.6722 24.6997C18.1654 23.4961 18.686 22.3062 19.6743 21.402C20.0696 20.809 20.465 20.216 20.8603 19.6231Z" fill="white"/>
<path d="M27.3238 34.4922C26.6486 35.3592 25.9734 36.2242 25.2982 37.0912C24.3667 36.4238 23.7971 35.4492 22.9713 34.4922C24.535 34.4922 25.9304 34.4922 27.3238 34.4922Z" fill="black"/>
<path d="M30.6474 32.3821C31.4635 31.2783 32.0272 30.0238 32.7454 28.8613C33.2523 29.7401 33.5283 30.7127 33.8766 31.6541C33.9314 31.8028 34.0273 32.022 33.7631 32.071C32.7513 32.2549 31.7591 32.5778 30.712 32.5035C30.6885 32.5035 30.669 32.4252 30.6474 32.3821Z" fill="black"/>
<path d="M16.3749 31.9398C16.7331 30.9515 17.0892 29.9632 17.4474 28.9729C17.6725 28.9651 17.7136 29.1549 17.7958 29.2997C18.4142 30.38 19.0346 31.4623 19.7196 32.6581C18.5258 32.4174 17.3887 32.5015 16.3749 31.9398Z" fill="black"/>
<path d="M23.1167 19.1823C23.7488 18.4308 24.3809 17.6793 25.0111 16.9277C25.4867 16.9375 25.6296 17.374 25.8801 17.6479C26.3596 18.1764 26.7862 18.7498 27.3381 19.4328C25.8664 19.4328 24.5297 19.4367 23.193 19.425C23.0795 19.425 23.1147 19.2743 23.1167 19.1823Z" fill="black"/>
<path d="M19.6741 21.4008C19.0028 22.5242 18.2689 23.6143 17.7444 24.8198C17.6231 24.8923 17.5056 25.0156 17.4176 24.7709C17.1103 23.9215 16.7972 23.0722 16.4782 22.2287C16.3842 21.9821 16.4449 21.8783 16.7071 21.8314C17.6916 21.6552 18.6584 21.3695 19.6741 21.4008Z" fill="black"/>
<path d="M28.4354 26.9129C28.4413 28.7487 26.9911 30.2067 25.1514 30.2145C23.3176 30.2224 21.8557 28.7722 21.8498 26.9364C21.8439 25.0987 23.298 23.6289 25.1259 23.625C26.95 23.6211 28.4295 25.0928 28.4354 26.9129Z" fill="white"/>
</svg>
