<svg width="51" height="52" viewBox="0 0 51 52" fill="none" xmlns="http://www.w3.org/2000/svg">
<g clip-path="url(#clip0_1325_10308)">
<path fill-rule="evenodd" clip-rule="evenodd" d="M36.6301 15.4839L37.3046 16.3719C37.4817 16.6063 37.4374 16.9423 37.203 17.1193L36.4869 17.6636C36.6171 18.01 36.7004 18.3798 36.7343 18.7574L37.5494 18.8693C37.841 18.9084 38.0442 19.1792 38.0051 19.4709L37.8541 20.5777C37.815 20.8693 37.5442 21.0751 37.2525 21.0334L36.3619 20.911C36.203 21.2574 35.9999 21.5751 35.7603 21.8589L36.2603 22.5152C36.4374 22.7496 36.3905 23.0855 36.1561 23.2626L35.2681 23.9371C35.0337 24.1141 34.6978 24.0673 34.5207 23.8355L33.9765 23.1193C33.6275 23.2496 33.2603 23.3329 32.8801 23.3667L32.7681 24.1818C32.7291 24.4735 32.4582 24.6766 32.1666 24.6376L31.0598 24.4865C30.7681 24.4475 30.565 24.1766 30.6041 23.885L30.7265 22.9943C30.3827 22.8355 30.0624 22.6324 29.7785 22.3954L29.1223 22.8928C28.8879 23.0699 28.552 23.0256 28.3749 22.7912L27.7004 21.9032C27.5233 21.6688 27.5676 21.3329 27.802 21.1558L28.5181 20.6115C28.3879 20.2626 28.3046 19.8954 28.2707 19.5178L27.4556 19.4058C27.164 19.3667 26.9582 19.0959 26.9999 18.8042L27.1509 17.6975C27.1926 17.4058 27.4608 17.2027 27.7525 17.2417L28.6431 17.3641C28.802 17.0204 29.0051 16.7001 29.2421 16.4162L28.7447 15.76C28.5676 15.5282 28.6119 15.1923 28.8462 15.0152L29.7343 14.3407C29.9686 14.1636 30.3046 14.2079 30.4817 14.4423L31.0259 15.1584C31.3723 15.0282 31.7421 14.9449 32.1197 14.911L32.2317 14.0959C32.2707 13.8042 32.5416 13.5985 32.8332 13.6376L33.94 13.7886C34.2317 13.8277 34.4374 14.0985 34.3957 14.3902L34.2733 15.2808C34.6197 15.4397 34.9374 15.6428 35.2238 15.8824L35.8801 15.385C36.1145 15.2053 36.4504 15.2496 36.6301 15.4839ZM17.5884 31.1115V26.8147H19.802C20.2134 26.8147 20.5259 26.8485 20.7421 26.9214C20.9582 26.9917 21.1353 27.1219 21.2655 27.3121C21.3983 27.5048 21.466 27.7365 21.466 28.01C21.466 28.2469 21.414 28.4553 21.3124 28.6272C21.2108 28.8016 21.0702 28.9423 20.8931 29.049C20.7811 29.1167 20.6249 29.174 20.427 29.2183C20.5858 29.273 20.7004 29.3225 20.7707 29.3772C20.8202 29.4136 20.8905 29.4891 20.9817 29.6037C21.0728 29.7183 21.1353 29.8094 21.1666 29.8719L21.8124 31.1141H20.3124L19.6041 29.8042C19.5129 29.635 19.4348 29.523 19.3645 29.4735C19.2681 29.4084 19.1587 29.3746 19.039 29.3746H18.9218V31.1141H17.5884V31.1115ZM22.2707 38.5933H19.7916L19.4348 39.76H17.2004L19.8645 32.6792H22.2603L24.914 39.76H22.6223L22.2707 38.5933ZM21.8072 37.0594L21.0337 34.5126L20.2577 37.0594H21.8072ZM25.4296 32.6792H29.0702C29.8645 32.6792 30.4582 32.8667 30.8515 33.2443C31.2447 33.6219 31.4426 34.161 31.4426 34.8563C31.4426 35.5725 31.2265 36.1324 30.7968 36.536C30.3671 36.9397 29.7082 37.1402 28.8254 37.1402H27.6249V39.76H25.4296V32.6792ZM27.6249 35.7053H28.164C28.5884 35.7053 28.8879 35.6324 29.0598 35.4839C29.2317 35.3381 29.3176 35.148 29.3176 34.9214C29.3176 34.7001 29.2421 34.51 29.0936 34.3563C28.9452 34.2027 28.664 34.1246 28.2525 34.1246H27.6249V35.7053ZM32.328 32.6792H34.5233V39.76H32.328V32.6792ZM18.9218 28.5594H19.4817C19.5416 28.5594 19.6587 28.5386 19.8332 28.4996C19.9218 28.4813 19.9947 28.4371 20.0494 28.3641C20.1067 28.2912 20.1327 28.2079 20.1327 28.1141C20.1327 27.9761 20.0884 27.8667 19.9999 27.7938C19.9113 27.7183 19.7473 27.6818 19.5051 27.6818H18.9218V28.5594ZM22.0676 26.8147H25.6223V27.7313H23.4009V28.4162H25.4608V29.2912H23.4009V30.1376H25.6874V31.1089H22.0676V26.8147ZM26.0025 29.6897L27.2629 29.6115C27.289 29.8173 27.3462 29.9709 27.4296 30.0777C27.5676 30.2496 27.7629 30.3381 28.0155 30.3381C28.203 30.3381 28.3515 30.2938 28.453 30.2053C28.5546 30.1167 28.6067 30.0126 28.6067 29.8954C28.6067 29.7834 28.5572 29.6844 28.4608 29.5959C28.3645 29.5074 28.1379 29.4266 27.7811 29.3459C27.2004 29.2157 26.7863 29.0412 26.5363 28.8251C26.2863 28.6089 26.1613 28.3329 26.1613 27.9969C26.1613 27.7756 26.2265 27.5673 26.3541 27.3719C26.4817 27.1766 26.6744 27.0204 26.9322 26.9084C27.19 26.7964 27.5416 26.7417 27.9895 26.7417C28.539 26.7417 28.9556 26.8433 29.2447 27.049C29.5311 27.2548 29.703 27.5777 29.7577 28.0256L28.5103 28.1011C28.4765 27.9058 28.4061 27.7626 28.302 27.6766C28.1952 27.5881 28.0468 27.5438 27.8619 27.5438C27.7082 27.5438 27.591 27.5777 27.5129 27.6428C27.4348 27.7079 27.3957 27.7886 27.3957 27.8824C27.3957 27.9501 27.4296 28.01 27.4921 28.0673C27.5546 28.1219 27.7004 28.1766 27.9348 28.2261C28.5155 28.3511 28.9322 28.4787 29.1822 28.6063C29.4322 28.7339 29.6171 28.8928 29.7291 29.0829C29.8436 29.2704 29.9009 29.4839 29.9009 29.7183C29.9009 29.9943 29.8254 30.2469 29.6718 30.4787C29.5207 30.7105 29.3072 30.8876 29.0337 31.0074C28.7603 31.1272 28.4166 31.1871 27.9999 31.1871C27.2707 31.1871 26.7629 31.0464 26.4817 30.7652C26.2004 30.4787 26.0416 30.1219 26.0025 29.6897ZM30.0936 26.8147H34.1327V27.8772H32.7785V31.1115H31.4504V27.8772H30.0936V26.8147ZM25.6249 16.6167C25.1483 16.5803 24.6666 16.5855 24.19 16.6324C22.7238 16.773 21.2994 17.3068 20.1223 18.2209C18.7603 19.2756 17.7265 20.8537 17.328 22.9449L17.203 23.5985L16.552 23.7131C15.914 23.8251 15.3436 23.9787 14.8436 24.174C14.3593 24.3615 13.927 24.5933 13.5494 24.8667C13.2473 25.0855 12.9869 25.3303 12.7655 25.5959C12.0806 26.4162 11.7629 27.4449 11.7707 28.4865C11.7785 29.5438 12.1223 30.6115 12.7577 31.4891C12.9947 31.8147 13.2681 32.1141 13.5806 32.3746C13.8983 32.6376 14.2551 32.8563 14.6561 33.0204C14.8827 33.1141 15.1249 33.1923 15.3775 33.2548V35.2053C14.8567 35.1115 14.3775 34.9709 13.9296 34.786C13.3384 34.5412 12.815 34.2261 12.3541 33.8407C11.9166 33.4761 11.5337 33.0621 11.2082 32.6115C10.341 31.4136 9.87228 29.9501 9.86187 28.4917C9.85145 27.0178 10.3098 25.5516 11.2994 24.3641C11.6197 23.9787 11.9973 23.6246 12.4296 23.3121C12.9322 22.9475 13.5077 22.6402 14.1587 22.3876C14.6067 22.2131 15.0858 22.0673 15.591 21.9501C16.164 19.674 17.3853 17.9214 18.9556 16.7053C20.4244 15.5673 22.1926 14.9032 24.0129 14.7287C24.9686 14.6376 25.9374 14.6792 26.8853 14.8563C26.8645 14.9423 26.8462 15.0282 26.8358 15.1167L26.8332 15.1324C26.815 15.2808 26.8072 15.4292 26.815 15.5803C26.6145 15.6584 26.427 15.7652 26.2577 15.8954L26.2499 15.9006C25.9973 16.0907 25.7837 16.3355 25.6249 16.6167ZM39.4035 21.6167C39.5494 21.7496 39.69 21.8876 39.828 22.036C40.1067 22.3355 40.3697 22.674 40.6171 23.0516C41.4504 24.3329 41.8775 26.0438 41.8593 27.7183C41.841 29.3615 41.3983 30.9969 40.4921 32.2001C39.9009 32.9839 39.1431 33.6246 38.2343 34.1324C37.6119 34.4813 36.9113 34.7704 36.1483 35.0048V32.9865C36.5598 32.8329 36.9426 32.661 37.2942 32.4657C37.9791 32.0829 38.539 31.6167 38.9582 31.0568C39.6093 30.1897 39.9296 28.9631 39.9426 27.7053C39.9582 26.385 39.6353 25.0594 39.0077 24.0959C38.828 23.8173 38.6301 23.5673 38.4218 23.3433C38.341 23.2574 38.2603 23.1766 38.177 23.0985C38.19 22.9683 38.1952 22.8355 38.1874 22.7027C38.3879 22.6246 38.5754 22.5178 38.7447 22.3876L38.7525 22.3824C39.0207 22.1766 39.2447 21.9162 39.4035 21.6167ZM32.7994 16.9657C33.9999 17.1298 34.8384 18.2365 34.6744 19.4371C34.5103 20.6376 33.4035 21.4787 32.203 21.3147C31.0025 21.1506 30.1613 20.0438 30.328 18.8433C30.4947 17.6428 31.5988 16.8016 32.7994 16.9657Z" fill="white"/>
</g>
<defs>
<clipPath id="clip0_1325_10308">
<rect width="32" height="26.1276" fill="white" transform="translate(9.86169 13.6328)"/>
</clipPath>
</defs>
</svg>
