<svg width="52" height="52" viewBox="0 0 52 52" fill="none" xmlns="http://www.w3.org/2000/svg">
<g clip-path="url(#clip0_1325_10294)">
<rect width="31" height="31" transform="translate(10.1911 11.6328)" fill="white"/>
<path d="M38.1638 11.6328H13.2185C11.5465 11.6328 10.1911 12.9882 10.1911 14.6602V39.6055C10.1911 41.2774 11.5465 42.6328 13.2185 42.6328H38.1638C39.8358 42.6328 41.1911 41.2774 41.1911 39.6055V14.6602C41.1911 12.9882 39.8358 11.6328 38.1638 11.6328Z" fill="white"/>
<path d="M38.1638 11.6328H13.2185C11.5465 11.6328 10.1911 12.9882 10.1911 14.6602V39.6055C10.1911 41.2774 11.5465 42.6328 13.2185 42.6328H38.1638C39.8358 42.6328 41.1911 41.2774 41.1911 39.6055V14.6602C41.1911 12.9882 39.8358 11.6328 38.1638 11.6328Z" fill="white"/>
<path fill-rule="evenodd" clip-rule="evenodd" d="M29.3808 36.3011V39.3321C29.8735 39.5847 30.4563 39.7741 31.1291 39.9004C31.8019 40.0267 32.511 40.0898 33.2564 40.0898C33.9829 40.0898 34.673 40.0204 35.3269 39.8814C35.9807 39.7425 36.554 39.5136 37.0468 39.1947C37.5395 38.8759 37.9296 38.4591 38.217 37.9444C38.5044 37.4298 38.6482 36.7936 38.6482 36.0359C38.6482 35.4865 38.5661 35.005 38.4018 34.5914C38.2375 34.1778 38.0007 33.81 37.6911 33.4879C37.3816 33.1659 37.0104 32.877 36.5777 32.6212C36.145 32.3655 35.657 32.1239 35.1137 31.8966C34.7157 31.7324 34.3588 31.573 34.0429 31.4183C33.727 31.2636 33.4586 31.1057 33.2375 30.9447C33.0163 30.7837 32.8458 30.6132 32.7258 30.4332C32.6058 30.2532 32.5457 30.0496 32.5457 29.8222C32.5457 29.6139 32.5994 29.426 32.7068 29.2587C32.8142 29.0913 32.9659 28.9477 33.1617 28.8277C33.3575 28.7078 33.5975 28.6146 33.8818 28.5483C34.1661 28.482 34.4819 28.4489 34.8294 28.4489C35.0821 28.4489 35.349 28.4678 35.6301 28.5057C35.9112 28.5436 36.1939 28.602 36.4782 28.6809C36.7625 28.7598 37.0388 28.8593 37.3074 28.9793C37.5758 29.0993 37.8238 29.2381 38.0512 29.3961V26.5639C37.5901 26.3871 37.0863 26.2561 36.5398 26.1708C35.9934 26.0856 35.3664 26.043 34.6589 26.043C33.9387 26.043 33.2564 26.1203 32.6121 26.275C31.9677 26.4297 31.4008 26.6713 30.9111 26.9996C30.4216 27.328 30.0347 27.7463 29.7504 28.2547C29.4661 28.763 29.324 29.3707 29.324 30.078C29.324 30.981 29.5846 31.7514 30.1057 32.3892C30.6269 33.0269 31.4181 33.5668 32.4794 34.0089C32.8963 34.1794 33.2849 34.3467 33.6449 34.5109C34.005 34.6751 34.3162 34.8456 34.5783 35.0224C34.8404 35.1992 35.0473 35.3918 35.199 35.6002C35.3506 35.8085 35.4264 36.0453 35.4264 36.3106C35.4264 36.5063 35.379 36.6878 35.2843 36.8552C35.1895 37.0225 35.0458 37.1677 34.8531 37.2909C34.6604 37.414 34.4204 37.5103 34.133 37.5798C33.8455 37.6493 33.5091 37.684 33.1238 37.684C32.4668 37.684 31.8161 37.5687 31.1717 37.3382C30.5274 37.1078 29.9304 36.7621 29.3808 36.3011ZM24.2852 28.8331H28.1736V26.3457H17.3357V28.8331H21.205V39.9082H24.2852V28.8331Z" fill="black"/>
</g>
<defs>
<clipPath id="clip0_1325_10294">
<rect width="31" height="31" fill="white" transform="translate(10.1911 11.6328)"/>
</clipPath>
</defs>
</svg>
