<svg width="43" height="42" viewBox="0 0 43 42" fill="none" xmlns="http://www.w3.org/2000/svg">
<path d="M0.499798 21.0041C0.50333 32.5829 9.96392 42.0305 21.5227 41.9999C33.1003 41.9681 42.4984 32.557 42.4961 20.9994C42.4937 9.43478 33.0108 -0.0352242 21.4685 9.84943e-05C9.88621 0.0342437 0.496265 9.43949 0.499798 21.0041ZM21.4968 1.63083C32.2031 1.62965 40.8677 10.2908 40.8677 20.9959C40.8677 31.6869 32.1925 40.3621 21.4932 40.368C10.7964 40.3739 2.12582 31.7022 2.12817 20.9982C2.13053 10.2884 10.7881 1.63201 21.4968 1.63083Z" fill="#4CAF50"/>
<path d="M21.4962 1.63086C10.7864 1.63204 2.12999 10.2884 2.12764 20.9971C2.12528 31.701 10.7958 40.3728 21.4927 40.3669C32.1908 40.361 40.8672 31.6857 40.8672 20.9947C40.8672 10.292 32.2025 1.62968 21.4962 1.63086ZM21.521 26.677C21.4256 26.8854 21.362 27.0126 21.3078 27.1432C20.1552 29.9408 19.0072 32.7395 17.8498 35.5359C17.2834 36.9041 15.8234 37.4928 14.5436 36.8841C13.3708 36.3271 12.8634 35.019 13.3567 33.7486C14.5012 30.805 15.6079 27.8462 16.836 24.9379C17.4082 23.5815 17.5048 22.2169 17.4494 20.8017C17.4318 20.3554 17.1963 20.094 16.763 20.0163C16.5746 19.9833 16.3839 19.9645 16.1931 19.948C14.1138 19.762 12.0333 19.5795 9.95279 19.3899C9.26753 19.3275 8.66468 19.072 8.22551 18.5257C7.58852 17.7321 7.44841 16.849 7.89347 15.9259C8.32676 15.0252 9.07678 14.5095 10.0788 14.5613C11.6341 14.6437 13.1848 14.8251 14.739 14.9463C16.5711 15.09 18.402 15.2548 20.2376 15.3396C23.9253 15.5103 27.5764 14.9746 31.2394 14.6826C31.9553 14.6261 32.6888 14.5107 33.3906 14.6037C34.5809 14.7603 35.4016 15.8683 35.3569 17.0598C35.3109 18.2902 34.3925 19.2392 33.0656 19.3829C31.9694 19.5018 30.8685 19.5771 29.77 19.6772C28.6126 19.782 27.4563 19.8927 26.3001 20.0034C25.9045 20.041 25.5772 20.2518 25.5725 20.6451C25.5583 21.826 25.4065 23.0093 25.8751 24.1703C27.162 27.3575 28.3912 30.5672 29.6522 33.7639C29.9077 34.4126 29.9489 35.0543 29.6628 35.6913C29.2449 36.6203 28.5137 37.1396 27.4917 37.1572C26.4108 37.1761 25.6231 36.6533 25.2075 35.6631C24.3032 33.5096 23.4343 31.3419 22.55 29.1802C22.2192 28.3713 21.886 27.5636 21.521 26.677ZM26.3449 8.86494C26.3613 11.5283 24.1666 13.7348 21.4998 13.7371C18.8506 13.7395 16.6664 11.5659 16.6511 8.91322C16.6358 6.26048 18.7976 4.0693 21.4503 4.04693C24.1231 4.02338 26.3284 6.19337 26.3449 8.86494Z" fill="black"/>
<path d="M21.5219 26.6768C21.8869 27.5646 22.2213 28.3711 22.551 29.1788C23.4353 31.3406 24.3054 33.5082 25.2085 35.6617C25.6241 36.6519 26.4118 37.1747 27.4927 37.1559C28.5147 37.1382 29.2458 36.619 29.6638 35.69C29.9499 35.0542 29.9087 34.4113 29.6532 33.7625C28.3922 30.5658 27.1618 27.3562 25.876 24.1689C25.4074 23.0068 25.5593 21.8247 25.5735 20.6437C25.5782 20.2504 25.9043 20.0397 26.3011 20.002C27.4573 19.8913 28.6136 19.7818 29.771 19.6759C30.8695 19.5758 31.9704 19.5004 33.0666 19.3815C34.3935 19.239 35.3107 18.29 35.3567 17.0608C35.4014 15.8681 34.5807 14.7613 33.3904 14.6047C32.6886 14.5117 31.9551 14.6271 31.2392 14.6836C27.5762 14.9756 23.9262 15.5101 20.2374 15.3406C18.403 15.2558 16.5709 15.091 14.7388 14.9473C13.1846 14.8261 11.6351 14.6447 10.0786 14.5623C9.07659 14.5093 8.32657 15.025 7.89328 15.9269C7.44939 16.85 7.5895 17.7331 8.22531 18.5267C8.66449 19.073 9.26615 19.3285 9.95259 19.3909C12.0319 19.5805 14.1124 19.763 16.1929 19.949C16.3837 19.9655 16.5744 19.9843 16.7628 20.0173C17.1961 20.095 17.4316 20.3564 17.4492 20.8027C17.5046 22.2191 17.4092 23.5837 16.8358 24.9389C15.6077 27.8472 14.501 30.806 13.3565 33.7496C12.862 35.0212 13.3706 36.3281 14.5434 36.8851C15.8232 37.4926 17.2844 36.9039 17.8496 35.5369C19.007 32.7417 20.155 29.9418 21.3077 27.1442C21.363 27.0124 21.4266 26.8852 21.5219 26.6768ZM32.897 16.1518C33.4763 16.1377 33.9449 16.7229 33.6553 17.2574C33.5305 17.487 33.2102 17.7084 32.95 17.7496C32.1235 17.8791 31.2828 17.9203 30.448 17.998C28.9397 18.1393 27.4291 18.2571 25.9243 18.4349C24.9435 18.5502 24.0805 19.3391 23.9922 20.2928C23.8509 21.7988 23.7861 23.3035 24.3819 24.7706C25.5252 27.5881 26.6131 30.4281 27.7234 33.2598C27.8847 33.6695 28.0637 34.0746 28.2015 34.4925C28.3463 34.9317 28.1343 35.3403 27.7211 35.4957C27.3302 35.6441 26.9298 35.4828 26.7203 35.0883C26.672 34.9977 26.639 34.8999 26.6002 34.8046C25.4298 31.9658 24.2642 29.1247 23.0832 26.2906C22.9619 25.9986 22.8006 25.6948 22.5781 25.4782C21.7504 24.6717 20.4587 24.9966 19.9889 26.127C18.8045 28.9751 17.6353 31.8316 16.459 34.6833C16.3978 34.8328 16.3436 34.9871 16.2636 35.1272C16.0658 35.4722 15.6855 35.6123 15.3158 35.491C14.9484 35.3709 14.7282 35.033 14.7824 34.6327C14.8036 34.4761 14.866 34.3218 14.9248 34.1723C16.114 31.1357 17.2632 28.0815 18.5125 25.0696C19.1377 23.5637 19.1459 22.0307 19.0352 20.4753C18.9599 19.4192 18.131 18.5832 17.0819 18.436C16.2094 18.3136 15.3263 18.2582 14.448 18.177C12.9974 18.0428 11.5468 17.9227 10.0986 17.7755C9.5087 17.7155 9.21317 17.3434 9.28735 16.8394C9.35682 16.372 9.74301 16.1165 10.3058 16.1683C10.7014 16.2048 11.0959 16.246 11.4915 16.2825C13.9087 16.5004 16.3224 16.79 18.7444 16.916C21.6986 17.069 24.6562 16.9713 27.6022 16.6416C29.3412 16.4415 31.0873 16.3155 32.897 16.1518Z" fill="white"/>
<path d="M26.3446 8.86506C26.3282 6.19466 24.124 4.02468 21.4501 4.04705C18.7962 4.06942 16.6344 6.2606 16.6509 8.91333C16.6662 11.5661 18.8515 13.7396 21.4995 13.7372C24.1664 13.7349 26.3611 11.5284 26.3446 8.86506ZM21.5031 12.1089C19.7146 12.1124 18.2746 10.6795 18.2699 8.89449C18.2652 7.1213 19.7181 5.66129 21.4925 5.65658C23.2598 5.65187 24.7198 7.10952 24.7269 8.8839C24.7327 10.6618 23.2904 12.1053 21.5031 12.1089Z" fill="white"/>
<path d="M32.8967 16.1526C31.087 16.3163 29.3409 16.4422 27.6019 16.6377C24.6548 16.9674 21.6983 17.0651 18.7441 16.912C16.3222 16.786 13.9085 16.4964 11.4912 16.2786C11.0956 16.2433 10.7012 16.202 10.3055 16.1644C9.74274 16.1114 9.35655 16.3669 9.28708 16.8355C9.2129 17.3394 9.50843 17.7115 10.0983 17.7716C11.5465 17.9187 12.9983 18.0388 14.4477 18.1731C15.3261 18.2543 16.2091 18.3096 17.0816 18.4321C18.1307 18.5793 18.9596 19.4164 19.035 20.4714C19.1456 22.0268 19.1374 23.5598 18.5122 25.0657C17.2629 28.0775 16.1126 31.1306 14.9246 34.1683C14.8657 34.3179 14.8033 34.4721 14.7821 34.6287C14.7279 35.029 14.9469 35.3669 15.3155 35.487C15.6852 35.6083 16.0655 35.4682 16.2633 35.1232C16.3434 34.9843 16.3975 34.8289 16.4588 34.6793C17.635 31.8264 18.8042 28.9712 19.9887 26.123C20.4585 24.9927 21.7513 24.6677 22.5778 25.4742C22.8004 25.6909 22.9617 25.9947 23.0829 26.2867C24.2627 29.1219 25.4295 31.9618 26.5999 34.8006C26.6387 34.896 26.6717 34.9937 26.72 35.0844C26.9296 35.4788 27.3299 35.6401 27.7208 35.4918C28.1329 35.3352 28.3448 34.9278 28.2012 34.4886C28.0634 34.0706 27.8845 33.6668 27.7232 33.2558C26.6128 30.4253 25.5249 27.5842 24.3816 24.7666C23.7859 23.3007 23.8506 21.7948 23.9919 20.2889C24.0814 19.3352 24.9444 18.5463 25.9241 18.4309C27.4276 18.2543 28.9394 18.1354 30.4477 17.9941C31.2825 17.9164 32.1232 17.8752 32.9497 17.7456C33.2099 17.7044 33.5302 17.4831 33.655 17.2535C33.9447 16.7236 33.476 16.1385 32.8967 16.1526Z" fill="white"/>
<path d="M21.5037 12.1085C23.2911 12.105 24.7334 10.6627 24.7275 8.88358C24.7216 7.10802 23.2616 5.65155 21.4931 5.65626C19.7188 5.66097 18.2658 7.12097 18.2705 8.89417C18.2741 10.6791 19.7152 12.1109 21.5037 12.1085Z" fill="white"/>
</svg>
