<svg width="45" height="44" viewBox="0 0 45 44" fill="none" xmlns="http://www.w3.org/2000/svg">
<path d="M10.5927 22.8839C11.0809 22.3957 11.0809 21.6043 10.5927 21.1161L2.63778 13.1612C2.14962 12.673 1.35817 12.673 0.870013 13.1612C0.381857 13.6493 0.381857 14.4408 0.870013 14.9289L7.94108 22L0.870013 29.0711C0.381857 29.5592 0.381857 30.3507 0.870013 30.8388C1.35817 31.327 2.14962 31.327 2.63778 30.8388L10.5927 22.8839ZM1.5 23.25H9.70885V20.75H1.5V23.25Z" fill="#4CAF50"/>
<path d="M34.3184 21.1161C33.8302 21.6043 33.8302 22.3957 34.3184 22.8839L42.2734 30.8388C42.7615 31.327 43.553 31.327 44.0411 30.8388C44.5293 30.3507 44.5293 29.5592 44.0411 29.0711L36.9701 22L44.0411 14.9289C44.5293 14.4408 44.5293 13.6493 44.0411 13.1612C43.553 12.673 42.7615 12.673 42.2734 13.1612L34.3184 21.1161ZM43.4111 20.75L35.2023 20.75L35.2023 23.25L43.4111 23.25L43.4111 20.75Z" fill="#4CAF50"/>
<path d="M21.5722 10.0927C22.0603 10.5809 22.8518 10.5809 23.3399 10.0927L31.2949 2.13778C31.783 1.64962 31.783 0.858168 31.2949 0.370013C30.8067 -0.118143 30.0153 -0.118143 29.5271 0.370013L22.4561 7.44108L15.385 0.370013C14.8968 -0.118143 14.1054 -0.118143 13.6172 0.370013C13.1291 0.858168 13.1291 1.64962 13.6172 2.13778L21.5722 10.0927ZM21.2061 1V9.20885H23.7061V1H21.2061Z" fill="#4CAF50"/>
<path d="M23.3399 33.9073C22.8518 33.4191 22.0603 33.4191 21.5722 33.9073L13.6172 41.8622C13.1291 42.3504 13.1291 43.1418 13.6172 43.63C14.1054 44.1181 14.8968 44.1181 15.385 43.63L22.4561 36.5589L29.5271 43.63C30.0153 44.1181 30.8067 44.1181 31.2949 43.63C31.783 43.1418 31.783 42.3504 31.2949 41.8622L23.3399 33.9073ZM23.7061 43V34.7912H21.2061V43H23.7061Z" fill="#4CAF50"/>
<ellipse cx="22.4551" cy="22.0001" rx="8.59382" ry="8.59382" fill="white"/>
</svg>
