<svg width="50" height="42" viewBox="0 0 50 42" fill="none" xmlns="http://www.w3.org/2000/svg">
<path d="M49.9557 2.84502C49.8948 3.74152 49.8211 4.63676 49.7754 5.53454C49.6954 7.10913 49.6345 8.685 49.5595 10.2609C49.5278 10.9098 49.3488 11.4913 48.7824 11.8952C48.1615 12.3371 47.5469 12.3485 46.9805 11.8317C46.2681 11.1815 45.59 10.492 44.9056 9.81135C44.771 9.67674 44.6719 9.50532 44.4383 9.19294C44.2529 9.47738 44.1716 9.66405 44.037 9.79865C37.7018 16.1415 31.3628 22.4805 25.0225 28.8195C23.9952 29.8468 22.8295 30.0653 21.7565 29.4126C21.486 29.2475 21.2434 29.0253 21.0161 28.7992C18.6225 26.4132 16.2327 24.0234 13.8466 21.6297C13.7235 21.5065 13.6397 21.3427 13.5165 21.1675C13.2955 21.3707 13.1673 21.4837 13.0454 21.6031C10.5286 24.1173 8.00538 26.624 5.50253 29.151C4.74317 29.9167 3.88222 30.3675 2.81937 30.0348C1.6981 29.683 0.92985 28.8932 0.590803 27.7516C0.369851 27.0075 0.567946 26.318 1.01366 25.6996C1.15461 25.5053 1.32858 25.3338 1.49874 25.1637C4.79904 21.8634 8.10189 18.5643 11.4047 15.2666C12.7558 13.9167 14.1184 13.9205 15.4758 15.2767C17.8669 17.6653 20.2568 20.0564 22.6479 22.445C22.7711 22.5681 22.8993 22.6862 22.9755 22.7586C28.8002 16.9478 34.597 11.165 40.4662 5.3085C39.6954 4.5593 38.898 3.81391 38.1361 3.03169C37.5024 2.3828 37.4605 1.68947 37.9545 1.02915C38.2821 0.592328 38.7494 0.452646 39.2662 0.427249C41.1786 0.332012 43.091 0.234234 45.0046 0.141536C45.9532 0.0958218 46.903 0.079314 47.8503 0.0107427C48.8307 -0.0603681 49.59 0.208837 49.9557 1.20058C49.9557 1.75042 49.9557 2.29772 49.9557 2.84502Z" fill="#4CAF50"/>
<path d="M44.4375 13.6133C45.0013 13.8825 45.0699 14.3104 45.0699 14.8349C45.0559 23.4088 45.061 31.9827 45.0597 40.5567C45.0597 40.7497 45.0648 40.944 45.047 41.1357C45.0001 41.6361 44.7194 41.9688 44.2229 41.9726C42.1328 41.9942 40.0414 41.9954 37.9512 41.9764C37.428 41.9713 37.1398 41.6348 37.0979 41.1142C37.0864 40.9707 37.089 40.8246 37.089 40.6799C37.089 34.2773 37.0928 27.8748 37.0801 21.4723C37.0788 21.0837 37.1995 20.8196 37.4699 20.5517C39.6858 18.3549 41.889 16.1441 44.0959 13.9371C44.209 13.8253 44.327 13.7187 44.4375 13.6133Z" fill="white"/>
<path d="M34.0016 24.0654C34.0016 24.3575 34.0016 24.515 34.0016 24.6711C34.0016 29.9994 34.0016 35.3263 34.0016 40.6546C34.0016 41.7276 33.7336 41.9955 32.6644 41.9968C30.8778 41.9981 29.0911 41.9981 27.3044 41.9968C26.2594 41.9955 26.0054 41.7352 26.0054 40.6736C26.0054 37.8724 26.0092 35.0724 25.999 32.2711C25.9978 31.9879 26.0638 31.8013 26.3076 31.6311C26.6086 31.4203 26.879 31.1613 27.1406 30.901C29.2727 28.7765 31.3997 26.6457 33.5279 24.5188C33.6511 24.3956 33.7793 24.2775 34.0016 24.0654Z" fill="white"/>
<path d="M14.9507 26.917C15.9386 27.9062 16.8351 28.804 17.7316 29.7005C18.2091 30.1779 18.6853 30.6579 19.1653 31.1329C20.1037 32.0573 21.2186 32.6059 22.5418 32.7138C22.6523 32.7227 22.7602 32.7519 22.8935 32.7748C22.9012 32.9271 22.9151 33.0681 22.9151 33.2078C22.9164 35.7335 22.9164 38.2592 22.9151 40.7849C22.9151 41.703 22.6256 41.995 21.7024 41.9963C19.837 42.0001 17.9704 42.0014 16.105 41.9963C15.2504 41.9938 14.9291 41.6827 14.9278 40.8395C14.9228 36.3354 14.9253 31.8313 14.9266 27.3271C14.9278 27.2345 14.9367 27.143 14.9507 26.917Z" fill="white"/>
<path d="M11.8405 27.1544C11.8405 27.3246 11.8405 27.496 11.8405 27.6661C11.8405 31.9963 11.8405 36.3264 11.8405 40.6553C11.8405 41.7474 11.5954 41.995 10.516 41.9963C8.71286 41.9975 6.91096 41.9988 5.1078 41.9963C4.14399 41.995 3.8697 41.7232 3.8697 40.7671C3.86844 38.3683 3.8697 35.9709 3.8697 33.5722C3.8697 33.4287 3.8697 33.2852 3.8697 33.115C4.23669 33.0401 4.58081 32.9855 4.91605 32.8966C5.93827 32.6261 6.78779 32.0636 7.52811 31.322C8.9262 29.9214 10.3243 28.5207 11.7224 27.1201C11.7605 27.1328 11.8011 27.1442 11.8405 27.1544Z" fill="white"/>
</svg>
