<svg width="57" height="48" viewBox="0 0 57 48" fill="none" xmlns="http://www.w3.org/2000/svg">
<path d="M0.5 34.4831C0.572733 33.4794 0.627282 32.4738 0.723653 31.4738C0.890938 29.7118 1.18369 27.9826 2.12921 26.4334C2.96927 25.0551 4.19664 24.115 5.67311 23.5968C7.32778 23.0168 9.04973 22.6313 10.7462 22.1731C10.8662 22.1403 11.0571 22.1713 11.1426 22.2494C12.2772 23.3259 13.6755 23.6732 15.1756 23.7586C15.2484 23.7623 15.3193 23.7768 15.4629 23.795C15.3393 23.8877 15.2702 23.9623 15.1865 24.0023C11.5445 25.7261 9.39703 28.6336 8.69516 32.5429C8.30785 34.7013 8.20421 36.9105 7.99328 39.0998C7.94601 39.5889 7.98601 40.0853 7.98601 40.6617C5.11489 40.0326 2.46196 39.2416 0.5 37.0178C0.5 36.1741 0.5 35.3286 0.5 34.4831Z" fill="white"/>
<path d="M29.5048 48.0003C25.1172 47.9803 21.5114 47.7493 17.9821 46.8365C15.7637 46.2638 13.6381 45.4746 11.8162 44.029C11.658 43.9036 11.5125 43.7618 11.358 43.6327C10.7161 43.0926 10.4161 42.4544 10.4688 41.5689C10.627 38.8941 10.5652 36.203 11.0834 33.5555C11.418 31.8445 11.9598 30.2207 13.0908 28.8479C14.4527 27.1951 16.2783 26.2659 18.2676 25.6586C19.8259 25.184 21.4278 24.8422 23.017 24.4749C23.2207 24.4276 23.5298 24.5149 23.6898 24.6549C25.2208 25.9895 27.0428 26.4332 29.0066 26.3823C30.834 26.335 32.5177 25.8404 33.8924 24.544C33.9887 24.453 34.1978 24.424 34.3397 24.4512C36.7235 24.8985 39.0782 25.4368 41.2911 26.4859C44.0604 27.7969 45.6132 30.0153 46.2697 32.95C46.7661 35.1702 46.8461 37.4249 46.9297 39.6833C46.957 40.4179 46.9461 41.1543 46.9988 41.8871C47.0388 42.4453 46.8533 42.869 46.4769 43.269C45.3423 44.4745 43.9368 45.251 42.433 45.8692C39.531 47.0638 36.4744 47.5657 33.3723 47.8111C31.8322 47.9348 30.2866 47.9639 29.5048 48.0003Z" fill="#4CAF50"/>
<path d="M19.0817 11.1845C19.109 9.30438 19.2508 7.44242 19.8108 5.63138C20.7927 2.44932 23.0093 0.716468 26.2313 0.201884C28.0205 -0.0835914 29.8189 -0.0708632 31.6045 0.269162C34.7974 0.878298 36.9121 2.72935 37.7213 5.88049C38.5959 9.28983 38.7904 12.7465 37.6722 16.1503C36.7248 19.0342 35.0265 21.3726 32.2027 22.669C28.9061 24.18 25.8368 23.5982 23.1347 21.2707C20.5945 19.0833 19.4326 16.1776 19.1326 12.8901C19.1053 12.5974 19.0926 12.3028 19.0853 12.01C19.0762 11.7355 19.0817 11.4609 19.0817 11.1845Z" fill="#4CAF50"/>
<path d="M18.1194 2.64777C15.9229 8.66822 15.6501 14.5377 18.8413 20.3327C17.9776 20.9255 16.9848 21.2655 15.9174 21.3383C12.9372 21.5419 10.7789 20.1418 9.17875 17.7525C8.15685 16.2251 7.62045 14.5159 7.52408 12.6849C7.42043 10.7338 7.51499 8.79368 8.07867 6.90445C8.82599 4.39699 10.5498 2.97325 13.079 2.51685C14.7719 2.20956 16.472 2.25138 18.1194 2.64777Z" fill="white"/>
<path d="M39.3532 2.64103C41.337 2.21009 43.3589 2.16463 45.3518 2.75377C47.2738 3.3229 48.6539 4.57208 49.2412 6.48677C50.234 9.71792 50.4358 12.9945 49.1157 16.1948C48.1102 18.6295 46.4282 20.4387 43.7971 21.1533C41.9679 21.6497 40.2405 21.3261 38.624 20.3496C41.8261 14.5728 41.557 8.68875 39.3532 2.64103Z" fill="white"/>
<path d="M49.4825 40.6557C49.4825 40.0083 49.4988 39.4065 49.4788 38.8083C49.4025 36.5481 49.2261 34.2988 48.7042 32.0878C47.8514 28.4802 45.8622 25.7673 42.502 24.1163C42.3874 24.0599 42.2747 23.9981 42.1619 23.9362C42.131 23.9199 42.1056 23.8926 42.0146 23.818C42.6092 23.7326 43.1547 23.6708 43.693 23.5744C44.6548 23.4017 45.5004 22.9834 46.2386 22.3398C46.3495 22.2434 46.5313 22.1379 46.6568 22.1616C48.6206 22.5452 50.5735 22.9653 52.3954 23.849C54.4901 24.8636 55.7593 26.5219 56.3103 28.753C56.9539 31.3641 56.9085 34.037 56.9612 36.699C56.9649 36.919 56.803 37.2063 56.6285 37.3554C56.0048 37.89 55.3847 38.4555 54.6829 38.8719C53.1191 39.7938 51.3899 40.2793 49.4825 40.6557Z" fill="white"/>
</svg>
