<svg width="133" height="40" viewBox="0 0 133 40" fill="none" xmlns="http://www.w3.org/2000/svg">
<path d="M28.4323 3.76019C29.6139 1.52397 31.3095 0.239512 33.8843 0.221304C36.5185 0.203097 38.0902 1.66136 39.1181 3.88102C39.4007 3.79992 39.409 3.5748 39.4966 3.41425C41.2236 0.254409 45.127 -0.745351 48.1695 1.18299C50.0618 2.38138 50.5823 4.23359 50.6352 6.30428C50.6666 7.51757 50.6418 8.73085 50.6418 9.94414C50.6418 13.8886 50.6418 17.8313 50.6418 21.7757C50.6418 23.042 50.5195 23.1678 49.29 23.1678C48.2984 23.1678 47.3068 23.1661 46.3153 23.1678C45.127 23.1678 45.0279 23.0734 45.0279 21.9181C45.0279 17.7254 45.0312 13.5343 45.0246 9.34163C45.0246 8.81858 45.013 8.29222 44.9502 7.77413C44.7783 6.39035 44.1784 5.71336 43.0249 5.53956C41.802 5.35583 40.6303 5.97986 40.1196 7.11038C39.6651 8.11842 39.6569 9.20425 39.6519 10.2768C39.6354 14.165 39.6453 18.0548 39.6453 21.9429C39.6453 23.047 39.523 23.1678 38.4075 23.1678C37.3333 23.1694 36.2591 23.1728 35.1865 23.1678C34.2098 23.1628 34.0512 23.0006 34.0512 21.9975C34.0495 17.7502 34.0495 13.5029 34.0528 9.25556C34.0545 8.47595 33.9768 7.71123 33.7074 6.97796C33.3703 6.06427 32.7307 5.5346 31.7326 5.4866C30.6914 5.43694 29.8337 5.74316 29.3181 6.72306C28.7992 7.70792 28.7298 8.78051 28.7265 9.85806C28.7149 13.8571 28.7231 17.8561 28.7231 21.8552C28.7231 22.999 28.5645 23.1628 27.4523 23.1678C26.3516 23.1711 25.2493 23.1529 24.1487 23.1744C23.4381 23.1893 23.1009 22.9526 23.1026 22.1697C23.1224 15.3567 23.1208 8.54547 23.1042 1.73253C23.1026 0.995953 23.367 0.666562 24.1156 0.683114C25.2163 0.709598 26.3186 0.709598 27.4192 0.683114C28.1728 0.664907 28.4637 1.01085 28.4372 1.7375C28.4125 2.41118 28.4323 3.08651 28.4323 3.76019Z" fill="white"/>
<path d="M18.3297 10.8832C18.3297 12.2339 18.3611 13.5862 18.3198 14.9369C18.2735 16.4332 18.6718 17.7524 19.6055 18.9342C20.3525 19.881 20.3062 20.0399 19.4039 20.8212C18.5924 21.5247 17.7794 22.2282 16.9795 22.9449C16.4292 23.4381 15.9268 23.4249 15.3847 22.9217C14.7766 22.3556 14.2031 21.7597 13.78 21.043C13.5024 20.5729 13.3008 20.5911 12.9355 20.9751C11.0565 22.9548 8.70648 23.6235 6.0375 23.4563C2.94711 23.2627 0.692936 20.9702 0.552464 17.8037C0.365718 13.616 2.46785 10.8186 6.55147 9.81392C8.29498 9.38521 10.0715 9.17831 11.8547 9.04423C12.415 9.00285 12.6579 8.82574 12.5852 8.25138C12.5505 7.97992 12.5802 7.70019 12.5786 7.42542C12.5703 5.6626 11.8564 4.70091 10.3591 4.42779C8.72631 4.12985 7.17616 4.97733 6.63245 6.46538C6.20111 7.64722 6.19946 7.65218 4.91538 7.51811C3.98495 7.42045 3.05618 7.30955 2.12741 7.19865C1.32589 7.10265 1.12592 6.84278 1.29284 6.04661C1.84977 3.42141 3.45281 1.69169 5.92678 0.779661C8.45363 -0.152235 11.0499 -0.246583 13.6346 0.485029C16.8109 1.38382 18.2718 3.40486 18.328 6.82953C18.3479 8.1802 18.3297 9.53087 18.3297 10.8832Z" fill="white"/>
<path d="M71.988 11.052C71.988 12.4043 72.0276 13.7566 71.9764 15.1057C71.9235 16.5258 72.3383 17.7524 73.2043 18.8663C73.9843 19.8711 73.9414 20.0498 72.9713 20.8923C72.2012 21.5611 71.4277 22.2232 70.6675 22.9035C70.104 23.4083 69.5867 23.4497 69.0033 22.9084C68.4348 22.3787 67.8796 21.8309 67.5061 21.1572C67.1475 20.5083 66.8979 20.6126 66.4484 21.0761C64.1942 23.3934 61.4013 23.8834 58.3787 23.2213C56.0105 22.7015 54.4388 20.6308 54.2339 18.047C53.8786 13.5448 56.179 10.6233 60.8427 9.66325C62.4094 9.34048 63.9959 9.15344 65.589 9.03426C66.065 8.99951 66.3013 8.85384 66.2501 8.34238C66.2088 7.93188 66.2385 7.51476 66.2022 7.10426C66.0551 5.45069 65.2866 4.57673 63.8406 4.39962C62.2243 4.20099 60.7535 5.04847 60.2693 6.46038C59.8627 7.64553 59.8611 7.65049 58.6447 7.52635C57.6862 7.42703 56.731 7.31282 55.7741 7.20358C54.9627 7.11089 54.7462 6.80301 54.9379 5.97374C55.5015 3.53724 56.9541 1.8307 59.2579 0.905421C61.9549 -0.177101 64.7313 -0.288002 67.5061 0.567753C70.4428 1.47482 71.8839 3.43296 71.9533 6.50342C71.9863 8.01961 71.9599 9.53746 71.9599 11.0536C71.9681 11.052 71.9781 11.052 71.988 11.052Z" fill="white"/>
<path d="M121.473 4.08695C121.544 3.94625 121.615 3.80556 121.683 3.66321C122.959 0.993318 125.096 -0.166999 127.913 0.281569C130.564 0.703653 132.202 2.52275 132.584 5.42437C132.757 6.74194 132.747 8.06281 132.746 9.38534C132.744 13.6045 132.746 17.8237 132.746 22.0446C132.746 22.9947 132.592 23.1585 131.66 23.1635C130.503 23.1718 129.346 23.1436 128.191 23.1734C127.414 23.1933 127.112 22.8722 127.115 22.0909C127.135 17.7625 127.123 13.4324 127.127 9.1023C127.127 8.49152 127.041 7.89232 126.884 7.30637C126.614 6.29337 126.039 5.57169 124.93 5.4492C123.83 5.32837 123.002 5.80177 122.437 6.72539C121.671 7.97343 121.561 9.38203 121.552 10.7923C121.533 14.5149 121.546 18.2392 121.544 21.9618C121.544 23.0311 121.419 23.1618 120.373 23.1652C119.244 23.1685 118.115 23.1503 116.986 23.1734C116.259 23.1883 115.925 22.8821 115.925 22.1439C115.932 15.3326 115.934 8.51966 115.925 1.70838C115.924 0.961869 116.261 0.668893 116.985 0.68379C118.085 0.706963 119.188 0.705308 120.288 0.68379C120.991 0.670548 121.3 0.990008 121.293 1.67858C121.285 2.4731 121.291 3.26761 121.291 4.06212C121.353 4.07205 121.414 4.07867 121.473 4.08695Z" fill="white"/>
<path d="M112.919 12.1672C112.853 14.6848 112.389 17.1825 110.969 19.4154C109.075 22.3932 106.357 23.8333 102.827 23.5932C99.4254 23.3615 97.0424 21.5408 95.6955 18.4918C93.8016 14.2015 93.7652 9.79854 95.6178 5.49163C97.0605 2.13482 99.6915 0.282612 103.417 0.242886C107.189 0.201505 109.852 1.99909 111.499 5.35259C112.541 7.46963 112.86 9.75219 112.919 12.1672Z" fill="white"/>
<path d="M53.6751 39.9983C41.0722 39.808 29.6625 35.6467 19.889 27.1306C19.4973 26.7896 18.8115 26.4254 19.2329 25.8097C19.694 25.1377 20.2757 25.7004 20.7483 25.9669C28.3603 30.2805 36.5143 32.9702 45.1625 34.2001C57.5571 35.9612 69.5171 34.3474 81.0788 29.6018C81.2061 29.5489 81.3333 29.4992 81.4655 29.4562C82.0737 29.2609 82.6604 29.2956 82.9711 29.9163C83.2652 30.5039 82.9529 30.9757 82.4604 31.3332C80.6062 32.6822 78.6495 33.8607 76.582 34.8473C69.4345 38.257 61.887 39.9023 53.6751 39.9983Z" fill="white"/>
<path d="M84.0235 15.7847C86.21 15.8195 88.1981 16.0148 90.0936 16.7547C90.2473 16.8143 90.3993 16.8738 90.5514 16.9384C92.2602 17.6518 92.3395 17.7726 92.3395 19.6282C92.3395 20.3184 92.3544 21.007 92.3346 21.6955C92.3114 22.5165 91.8801 22.7946 91.1529 22.4503C86.562 20.277 81.9759 20.2687 77.3883 22.4586C76.6512 22.8095 76.2348 22.5513 76.2199 21.7137C76.2017 20.5832 76.2199 19.4527 76.2166 18.3222C76.2133 17.4714 76.6446 16.8043 77.1057 16.1422C79.4227 12.8202 81.7347 9.49648 84.0467 6.17112C84.2483 5.8798 84.4433 5.58351 84.6383 5.29219C84.4631 5.0257 84.2202 5.13991 84.0235 5.13826C82.014 5.12998 80.0027 5.11674 77.9931 5.14157C77.2495 5.1515 76.9338 4.84528 76.9536 4.1087C76.9768 3.28274 76.9735 2.45347 76.9553 1.62751C76.9404 0.940587 77.2412 0.599609 77.9336 0.599609C82.2833 0.601265 86.6347 0.597954 90.9844 0.601265C91.6619 0.601265 91.9214 0.950518 91.9743 1.63578C92.1148 3.43668 91.7198 4.97604 90.5729 6.46741C88.5269 9.12902 86.6909 11.9512 84.7656 14.7072C84.5524 15.02 84.3375 15.3328 84.0235 15.7847Z" fill="white"/>
<path d="M81.8602 26.8697C80.272 26.8879 78.6359 27.1246 76.9932 27.2587C76.6825 27.2835 76.266 27.4176 76.1471 26.9856C76.0446 26.6165 76.3636 26.393 76.6395 26.2027C78.2409 25.1003 80.0505 24.5458 81.9461 24.2876C83.7788 24.0376 85.6199 24.0459 87.4444 24.4249C89.0143 24.751 89.3333 25.0688 89.2424 26.6429C89.0292 30.3374 87.7798 33.6231 85.2117 36.3476C85.1737 36.3873 85.139 36.4336 85.096 36.4651C84.7159 36.7382 84.3854 37.3622 83.8631 37.0246C83.3343 36.6819 83.8119 36.1754 83.9606 35.7682C84.7093 33.6992 85.5653 31.6666 85.9157 29.4717C86.1818 27.8066 85.8198 27.2918 84.149 26.9856C83.407 26.8498 82.6666 26.8979 81.8602 26.8697Z" fill="#CECECE"/>
<path d="M12.5846 14.0037C12.6176 15.0084 12.502 16.091 12.0128 17.1139C11.1551 18.9098 9.48097 19.7722 8.03493 19.1449C6.69796 18.5655 6.10963 16.6256 6.75581 14.8843C7.1326 13.8663 7.87959 13.2125 8.8695 12.8153C9.80158 12.4428 10.7799 12.3385 11.7698 12.2442C12.4309 12.1813 12.6788 12.4163 12.5912 13.0702C12.5532 13.3383 12.5846 13.618 12.5846 14.0037Z" fill="#242F3E"/>
<path d="M66.25 14.06C66.217 15.3395 66.0616 16.5842 65.3411 17.6932C64.842 18.4612 64.1826 19.0174 63.2885 19.2574C62.059 19.5884 60.8228 18.9959 60.4196 17.7925C59.8031 15.9552 60.2163 13.6511 62.6043 12.7838C63.548 12.4411 64.5214 12.317 65.5129 12.2475C66.0897 12.2061 66.3194 12.4031 66.2566 12.9857C66.2186 13.3399 66.25 13.7008 66.25 14.06Z" fill="#242F3E"/>
<path d="M106.819 11.9825C106.839 13.5003 106.856 15.0198 106.443 16.4996C105.925 18.3501 104.917 19.3069 103.519 19.2887C102.232 19.2721 101.234 18.3237 100.83 16.4731C100.159 13.396 100.128 10.2825 100.769 7.19884C101.144 5.39794 102.195 4.52895 103.665 4.54716C104.927 4.56371 105.73 5.14635 106.178 6.42584C106.81 8.22674 106.848 10.1021 106.819 11.9825Z" fill="#121212"/>
</svg>
