<svg width="75" height="37" viewBox="0 0 75 37" fill="none" xmlns="http://www.w3.org/2000/svg">
<rect x="0.5" y="0.5" width="74" height="36" rx="18" stroke="url(#paint0_linear_1325_17820)"/>
<path d="M20.2363 19.288C20.2363 19.776 20.1243 20.224 19.9003 20.632C19.6763 21.032 19.3323 21.356 18.8683 21.604C18.4043 21.852 17.8283 21.976 17.1403 21.976H15.8683V25H13.8163V16.576H17.1403C17.8123 16.576 18.3803 16.692 18.8443 16.924C19.3083 17.156 19.6563 17.476 19.8883 17.884C20.1203 18.292 20.2363 18.76 20.2363 19.288ZM16.9843 20.344C17.3763 20.344 17.6683 20.252 17.8603 20.068C18.0523 19.884 18.1483 19.624 18.1483 19.288C18.1483 18.952 18.0523 18.692 17.8603 18.508C17.6683 18.324 17.3763 18.232 16.9843 18.232H15.8683V20.344H16.9843ZM23.3565 19.42C23.5965 19.052 23.8965 18.764 24.2565 18.556C24.6165 18.34 25.0165 18.232 25.4565 18.232V20.404H24.8925C24.3805 20.404 23.9965 20.516 23.7405 20.74C23.4845 20.956 23.3565 21.34 23.3565 21.892V25H21.3045V18.304H23.3565V19.42ZM32.7494 21.544C32.7494 21.736 32.7374 21.936 32.7134 22.144H28.0694C28.1014 22.56 28.2334 22.88 28.4654 23.104C28.7054 23.32 28.9974 23.428 29.3414 23.428C29.8534 23.428 30.2094 23.212 30.4094 22.78H32.5934C32.4814 23.22 32.2774 23.616 31.9814 23.968C31.6934 24.32 31.3294 24.596 30.8894 24.796C30.4494 24.996 29.9574 25.096 29.4134 25.096C28.7574 25.096 28.1734 24.956 27.6614 24.676C27.1494 24.396 26.7494 23.996 26.4614 23.476C26.1734 22.956 26.0294 22.348 26.0294 21.652C26.0294 20.956 26.1694 20.348 26.4494 19.828C26.7374 19.308 27.1374 18.908 27.6494 18.628C28.1614 18.348 28.7494 18.208 29.4134 18.208C30.0614 18.208 30.6374 18.344 31.1414 18.616C31.6454 18.888 32.0374 19.276 32.3174 19.78C32.6054 20.284 32.7494 20.872 32.7494 21.544ZM30.6494 21.004C30.6494 20.652 30.5294 20.372 30.2894 20.164C30.0494 19.956 29.7494 19.852 29.3894 19.852C29.0454 19.852 28.7534 19.952 28.5134 20.152C28.2814 20.352 28.1374 20.636 28.0814 21.004H30.6494ZM36.8439 23.08L38.2959 18.304H40.4799L38.1039 25H35.5719L33.1959 18.304H35.3919L36.8439 23.08ZM42.3756 17.608C42.0156 17.608 41.7196 17.504 41.4876 17.296C41.2636 17.08 41.1516 16.816 41.1516 16.504C41.1516 16.184 41.2636 15.92 41.4876 15.712C41.7196 15.496 42.0156 15.388 42.3756 15.388C42.7276 15.388 43.0156 15.496 43.2396 15.712C43.4716 15.92 43.5876 16.184 43.5876 16.504C43.5876 16.816 43.4716 17.08 43.2396 17.296C43.0156 17.504 42.7276 17.608 42.3756 17.608ZM43.3956 18.304V25H41.3436V18.304H43.3956ZM51.1947 21.544C51.1947 21.736 51.1827 21.936 51.1587 22.144H46.5147C46.5467 22.56 46.6787 22.88 46.9107 23.104C47.1507 23.32 47.4427 23.428 47.7867 23.428C48.2987 23.428 48.6547 23.212 48.8547 22.78H51.0387C50.9267 23.22 50.7227 23.616 50.4267 23.968C50.1387 24.32 49.7747 24.596 49.3347 24.796C48.8947 24.996 48.4027 25.096 47.8587 25.096C47.2027 25.096 46.6187 24.956 46.1067 24.676C45.5947 24.396 45.1947 23.996 44.9067 23.476C44.6187 22.956 44.4747 22.348 44.4747 21.652C44.4747 20.956 44.6147 20.348 44.8947 19.828C45.1827 19.308 45.5827 18.908 46.0947 18.628C46.6067 18.348 47.1947 18.208 47.8587 18.208C48.5067 18.208 49.0827 18.344 49.5867 18.616C50.0907 18.888 50.4827 19.276 50.7627 19.78C51.0507 20.284 51.1947 20.872 51.1947 21.544ZM49.0947 21.004C49.0947 20.652 48.9747 20.372 48.7347 20.164C48.4947 19.956 48.1947 19.852 47.8347 19.852C47.4907 19.852 47.1987 19.952 46.9587 20.152C46.7267 20.352 46.5827 20.636 46.5267 21.004H49.0947ZM61.8892 18.304L60.0772 25H57.8092L56.7532 20.656L55.6612 25H53.4052L51.5812 18.304H53.6332L54.5812 23.092L55.7092 18.304H57.8812L59.0212 23.068L59.9572 18.304H61.8892Z" fill="#F7F8F9"/>
<defs>
<linearGradient id="paint0_linear_1325_17820" x1="130.208" y1="18.2736" x2="-10.0862" y2="18.2736" gradientUnits="userSpaceOnUse">
<stop stop-color="#4CAF50"/>
<stop offset="1" stop-color="white" stop-opacity="0"/>
</linearGradient>
</defs>
</svg>
