<svg width="182" height="40" viewBox="0 0 182 40" fill="none" xmlns="http://www.w3.org/2000/svg">
<path d="M23.8649 5.03081C22.1417 6.66633 20.4133 8.30702 18.5456 10.0819C18.0606 9.72586 17.4157 9.18928 16.714 8.75589C14.5625 7.41961 12.1428 7.78592 10.4195 9.65878C8.77368 11.4439 8.60342 14.0907 10.1874 16.0048C11.6526 17.7797 13.2882 19.4204 15.1404 21.4377C21.1562 15.3186 26.7284 9.48852 32.4811 3.84414C39.7197 -3.26034 51.4522 -0.051199 53.9081 9.66394C55.0432 14.1578 53.8926 18.1976 50.6267 21.5048C45.6737 26.5197 40.6845 31.4985 35.6335 36.4154C30.5205 41.3942 24.0094 41.0537 18.9996 35.528C20.826 33.9234 22.6679 32.3137 24.5872 30.6266C28.2143 32.9689 28.302 32.9586 31.862 29.4141C35.8863 25.4156 39.9106 21.417 43.935 17.4237C46.6798 14.6995 47.0254 11.7587 44.8688 9.53496C42.6142 7.21839 39.761 7.41961 37.0007 10.2212C29.8911 17.4495 22.8227 24.7191 15.3777 32.3446C10.9458 27.6548 6.46227 23.713 2.98484 19.0231C-0.951779 13.7141 1.09134 5.99561 6.61706 2.23957C12.2511 -1.59902 19.7684 -0.396879 23.8649 5.03081Z" fill="white"/>
<path d="M140.566 8.46858C140.566 5.69798 140.566 3.14924 140.566 0.419922C142.367 0.419922 143.951 0.419922 145.726 0.419922C145.777 1.16287 145.87 1.91615 145.87 2.66942C145.881 9.45918 145.896 16.2489 145.87 23.0387C145.85 27.5532 143.75 30.3341 139.86 31.1338C134.716 32.1915 130.506 30.4837 128.782 26.413C127.121 22.4815 126.951 18.3798 128.349 14.3348C129.634 10.6149 132.425 8.72139 136.32 8.4789C137.6 8.40151 138.884 8.46858 140.566 8.46858ZM140.556 13.4061C136.8 12.302 134.344 12.8025 133.457 15.0674C132.198 18.2869 132.301 21.6096 133.632 24.8032C134.509 26.9083 136.49 26.9237 138.234 26.4697C139.132 26.2375 140.401 25.1128 140.453 24.3234C140.69 20.6809 140.556 17.0125 140.556 13.4061Z" fill="white"/>
<path d="M64.6486 0.340932C65.3348 0.299657 65.8301 0.248063 66.3254 0.242904C67.3418 0.227426 68.3582 0.237744 69.6068 0.237744C69.6068 3.01866 69.6068 5.63447 69.6068 8.46182C70.8193 8.46182 71.8099 8.39991 72.7902 8.4773C74.0645 8.58049 75.3802 8.61144 76.5823 8.98808C82.1132 10.7165 84.5536 18.306 81.9584 25.4878C80.0907 30.6627 74.4618 32.9225 69.029 30.6988C66.5937 29.7031 64.7983 27.8405 64.7312 25.364C64.5093 17.0729 64.6486 8.77654 64.6486 0.340932ZM69.741 13.2962C69.741 16.9181 69.6223 20.5967 69.8338 24.2547C69.8803 25.0441 70.9689 26.1895 71.7944 26.4423C74.921 27.3865 76.959 25.9573 77.4285 22.6863C77.5987 21.5048 77.5936 20.2923 77.5781 19.0953C77.5162 13.5851 75.4111 11.9908 69.741 13.2962Z" fill="white"/>
<path d="M166.305 25.3382C166.795 29.6772 166.682 29.9559 162.843 30.8845C158.793 31.8597 154.774 32.1125 151.544 28.7589C147.669 24.7397 147.964 14.5035 151.983 10.5978C156.296 6.40837 164.412 8.10581 166.584 13.8585C167.492 16.2577 167.585 18.9612 168.121 21.9124C163.158 21.9124 158.819 21.9124 154.506 21.9124C154.124 26.7828 157.121 27.598 166.305 25.3382ZM162.059 18.1408C161.734 14.6015 160.418 12.9918 158.03 13.0072C155.558 13.0227 154.392 14.5809 154.258 18.1408C156.807 18.1408 159.35 18.1408 162.059 18.1408Z" fill="white"/>
<path d="M93.5218 23.1865C94.564 19.6729 95.6165 16.1594 96.6536 12.6458C97.8918 8.45126 97.8867 8.45125 102.829 9.01879C102.551 9.99391 102.319 10.9329 102.014 11.8513C99.8369 18.3418 97.6596 24.8375 95.4308 31.3125C94.9303 32.7675 94.3473 34.2173 93.5837 35.5432C92.9543 36.6319 92.1133 37.6792 91.1537 38.4893C89.3788 39.9855 87.0622 40.5788 85.1997 39.289C84.2555 38.6389 84.3278 36.5184 83.915 34.9602C89.2498 35.0479 91.4632 31.8182 89.7761 27.1334C87.6298 21.1795 85.4835 15.2255 83.1669 8.79693C84.9211 8.79693 86.3709 8.59056 87.7123 8.88464C88.3573 9.02911 89.028 10.0455 89.2756 10.8039C90.6016 14.8747 91.7986 18.9867 93.0368 23.0833C93.1968 23.1194 93.3619 23.1555 93.5218 23.1865Z" fill="white"/>
<path d="M124.416 30.9774C122.646 30.9774 121.14 30.9774 119.329 30.9774C119.329 26.855 119.329 22.8462 119.329 18.8425C119.329 14.07 118.116 12.9763 113.292 13.4096C112.529 13.4767 111.77 13.6005 110.697 13.7347C110.697 19.4565 110.697 25.1524 110.697 30.9671C108.866 30.9671 107.354 30.9671 105.43 30.9671C105.43 27.9849 105.43 25.0131 105.43 22.0465C105.435 18.8734 105.378 15.6953 105.491 12.5274C105.517 11.8205 105.945 10.7629 106.498 10.4946C110.455 8.58561 114.608 7.72915 118.952 9.01384C121.924 9.89093 124.292 12.7183 124.38 15.8242C124.514 20.7876 124.416 25.7561 124.416 30.9774Z" fill="white"/>
<path d="M181.536 12.9069C176.361 13.9594 176.367 13.9594 176.367 19.2581C176.367 23.1018 176.367 26.9456 176.367 30.9441C174.55 30.9441 172.977 30.9441 171.125 30.9441C171.125 24.5362 171.099 18.2056 171.171 11.8802C171.176 11.3694 171.744 10.549 172.208 10.4201C175.201 9.56359 178.239 8.85675 181.541 8.03125C181.536 10.0279 181.536 11.3694 181.536 12.9069Z" fill="white"/>
</svg>
