<svg width="31" height="31" viewBox="0 0 31 31" fill="none" xmlns="http://www.w3.org/2000/svg">
<path d="M11.7914 8.86523H10.2264C8.84357 8.86523 7.72253 9.98627 7.72253 11.3691V22.0107C7.72253 23.3936 8.84357 24.5146 10.2264 24.5146H20.868C22.2509 24.5146 23.3719 23.3936 23.3719 22.0107V11.3691C23.3719 9.98627 22.2509 8.86523 20.868 8.86523H19.3031" stroke="white" stroke-width="1.87793" stroke-linecap="round" stroke-linejoin="round"/>
<path d="M18.0511 10.7432H13.0433C12.3519 10.7432 11.7914 10.1826 11.7914 9.49121V7.61328C11.7914 6.92185 12.3519 6.36133 13.0433 6.36133H18.0511C18.7426 6.36133 19.3031 6.92185 19.3031 7.61328V9.49121C19.3031 10.1826 18.7426 10.7432 18.0511 10.7432Z" stroke="white" stroke-width="1.87793" stroke-linecap="round" stroke-linejoin="round"/>
<path d="M12.7303 15.75H18.3641" stroke="white" stroke-width="1.87793" stroke-linecap="round" stroke-linejoin="round"/>
<path d="M12.7303 19.5059H18.3641" stroke="white" stroke-width="1.87793" stroke-linecap="round" stroke-linejoin="round"/>
</svg>
