<svg width="14" height="12" viewBox="0 0 14 12" fill="none" xmlns="http://www.w3.org/2000/svg">
  <path
    d="M1.66659 11.3327C1.29992 11.3327 0.98603 11.2021 0.724919 10.941C0.463807 10.6799 0.333252 10.366 0.333252 9.99935V1.99935C0.333252 1.63268 0.463807 1.31879 0.724919 1.05768C0.98603 0.796571 1.29992 0.666016 1.66659 0.666016H12.3333C12.6999 0.666016 13.0138 0.796571 13.2749 1.05768C13.536 1.31879 13.6666 1.63268 13.6666 1.99935V9.99935C13.6666 10.366 13.536 10.6799 13.2749 10.941C13.0138 11.2021 12.6999 11.3327 12.3333 11.3327H1.66659ZM6.99992 6.66602L1.66659 3.33268V9.99935H12.3333V3.33268L6.99992 6.66602ZM6.99992 5.33268L12.3333 1.99935H1.66659L6.99992 5.33268ZM1.66659 3.33268V1.99935V9.99935V3.33268Z"
    fill="white" />
</svg>