<svg width="181" height="175" viewBox="0 0 181 175" fill="none" xmlns="http://www.w3.org/2000/svg">
<path d="M32.661 118.249C17.0953 119.253 4.91277 110.37 1.11786 95.2459C0.0712112 91.0765 0.0742285 82.4597 1.12324 77.8246C2.93786 69.8092 8.37037 62.2099 15.0301 58.3707C29.713 49.9068 51.7066 55.8165 75.4489 74.6063C78.9562 77.3824 82.4303 80.0992 83.1683 80.6442C83.907 81.1892 82.1523 78.6908 79.2695 75.0922C56.5134 46.6841 52.0521 23.2958 66.7345 9.37481C73.0534 3.38332 81.4896 0.424317 91.7543 0.599369C102.107 0.775928 110.451 4.04883 116.617 10.3514C124.174 18.0741 126.113 27.9456 122.634 40.9825C120.244 49.9445 111.174 64.7104 100.666 76.7478C98.2238 79.5457 96.8419 81.4098 97.5955 80.8903C98.3491 80.3707 102.161 77.6135 106.066 74.7638C130.192 57.1549 152.262 52.1084 166.464 60.9532C177.419 67.7762 182.727 82.6512 179.42 97.2586C176.732 109.131 167.413 118.006 155.52 120.022C141.517 122.395 121.097 113.888 101.539 97.5328C98.6437 95.1111 96.0762 93.1261 95.8336 93.122C95.5916 93.1178 96.5506 94.3687 97.9649 95.9011C99.3792 97.4334 102.105 100.747 104.024 103.265C124.198 129.737 127.869 152.263 114.15 165.399C107.801 171.479 99.3549 174.47 88.9848 174.31C81.7697 174.2 77.6948 173.256 71.7913 170.329C57.6409 163.313 52.8234 148.699 58.9067 131.245C62.2153 121.753 70.328 109.007 79.8103 98.4059C85.486 92.0607 85.4215 92.0564 77.205 98.2511C60.9747 110.489 45.5416 117.417 32.661 118.249Z" fill="url(#paint0_radial_1325_11415)"/>
<defs>
<radialGradient id="paint0_radial_1325_11415" cx="0" cy="0" r="1" gradientUnits="userSpaceOnUse" gradientTransform="translate(90.3662 87.4548) rotate(0.97702) scale(90.0396 86.8665)">
<stop stop-color="#8C6DE5"/>
<stop offset="1" stop-color="#EAE3EB"/>
</radialGradient>
</defs>
</svg>
