<svg width="92" height="96" viewBox="0 0 92 96" fill="none" xmlns="http://www.w3.org/2000/svg">
<path d="M29.1745 17.5218C28.5021 9.23413 33.0955 2.65983 41.069 0.499579C43.2671 -0.0962089 47.8295 -0.172927 50.2931 0.344087C54.5534 1.23846 58.6261 4.06502 60.719 7.5799C65.3329 15.3293 62.4025 27.1061 52.6683 39.932C51.2301 41.8267 49.8229 43.7031 49.541 44.1015C49.2591 44.5002 50.5661 43.5422 52.4455 41.9729C67.2813 29.5852 79.6244 26.9946 87.1277 34.6941C90.3571 38.0077 92 42.4775 92 47.9504C92 53.4704 90.3424 57.9474 87.0611 61.2916C83.0404 65.3895 77.8312 66.5127 70.8971 64.7773C66.1304 63.5843 58.2304 58.884 51.7621 53.3926C50.2586 52.1164 49.2591 51.3968 49.541 51.7937C49.8229 52.1907 51.3172 54.1975 52.8613 56.2529C62.4025 68.9526 65.2738 80.6705 60.719 88.3208C57.2053 94.222 49.3774 97.1865 41.6133 95.5566C35.3032 94.2319 30.5198 89.3456 29.345 83.0245C27.9622 75.5819 32.2819 64.6207 40.7649 54.0472C42.021 52.4817 43.0488 51.0951 43.0488 50.9658C43.0488 50.8368 42.3951 51.3593 41.5966 52.1271C40.798 52.8949 39.068 54.3781 37.7525 55.4239C23.9185 66.4174 12.0247 68.579 4.94545 61.3859C1.66926 58.0571 0.00929302 53.5822 6.71955e-05 48.0532C-0.00642505 44.2064 0.456232 42.0259 1.95287 38.8526C5.53966 31.2463 13.234 28.5456 22.5302 31.6295C27.586 33.3068 34.4076 37.5151 40.1064 42.4731C43.5173 45.4406 43.519 45.4062 40.1649 41.083C33.5387 32.5431 29.7311 24.3799 29.1745 17.5218Z" fill="url(#paint0_radial_1325_12951)"/>
<defs>
<radialGradient id="paint0_radial_1325_12951" cx="0" cy="0" r="1" gradientUnits="userSpaceOnUse" gradientTransform="translate(46 48) rotate(90) scale(48 46)">
<stop stop-color="#8C6DE5"/>
<stop offset="1" stop-color="#EAE3EB"/>
</radialGradient>
</defs>
</svg>
