<svg width="18" height="18" viewBox="0 0 18 18" fill="none" xmlns="http://www.w3.org/2000/svg">
<path d="M9.16856 0.953125C4.55998 0.953125 0.822205 4.78468 0.822205 9.51043C0.822205 13.2914 3.21343 16.4989 6.53041 17.6307C6.94704 17.7099 7.08197 17.4446 7.08197 17.2192V15.6261C4.7603 16.1438 4.2769 14.6163 4.2769 14.6163C3.89714 13.6273 3.34976 13.3642 3.34976 13.3642C2.59233 12.8329 3.40749 12.8443 3.40749 12.8443C4.2456 12.9042 4.68657 13.7264 4.68657 13.7264C5.43078 15.0343 6.63891 14.6563 7.11535 14.4374C7.18974 13.8848 7.40612 13.5068 7.64535 13.2935C5.79176 13.076 3.84289 12.3422 3.84289 9.06411C3.84289 8.12922 4.16909 7.36615 4.70256 6.76713C4.61632 6.55106 4.33046 5.68035 4.78394 4.50229C4.78394 4.50229 5.48503 4.27267 7.07988 5.37942C7.7455 5.18972 8.45912 5.09489 9.16856 5.09132C9.878 5.09489 10.5923 5.18972 11.2593 5.37942C12.8527 4.27267 13.5525 4.50229 13.5525 4.50229C14.0066 5.68106 13.7208 6.55178 13.6346 6.76713C14.1701 7.36615 14.4935 8.12984 14.4935 9.06411C14.4935 12.3508 12.5412 13.0746 10.6827 13.2864C10.9818 13.5517 11.2551 14.0722 11.2551 14.871V17.2192C11.2551 17.4467 11.3887 17.7142 11.8123 17.63C15.1265 16.4969 17.5149 13.29 17.5149 9.51043C17.5149 4.78468 13.7778 0.953125 9.16856 0.953125Z" fill="white"/>
</svg>
