<svg width="160" height="170" viewBox="0 0 160 170" fill="none" xmlns="http://www.w3.org/2000/svg">
<path d="M26.7836 30.0088C27.7398 23.7132 31.8511 14.6562 34.3468 13.3456C36.6159 12.1541 42.5221 11.2277 45.1954 11.6442C57.3644 13.5388 63.4991 12.5811 68.4396 8.01493C69.2681 7.24911 70.3803 6.50428 70.9107 6.35853C71.4418 6.21322 72.0066 5.86711 72.1656 5.58964C72.8506 4.39479 78.2939 1.25642 80.902 0.552611C85.9467 -0.808719 89.6734 0.994914 97.4811 8.57756C100.011 11.0336 102.975 13.5636 104.069 14.1999C106.348 15.5251 111.799 16.857 114.159 16.6649C115.039 16.5934 116.208 16.5594 116.755 16.5888C117.303 16.6189 119.866 16.7191 122.452 16.8119C125.135 16.9087 128.156 17.5048 129.488 18.2002C133.673 20.385 134.568 22.1641 137.356 33.8361C139.851 44.2775 139.859 44.2978 142.296 46.8229C144.515 49.121 145.673 50.1051 148.005 51.6737C156.602 57.4557 160.125 62.1413 159.533 67.0052C159.268 69.1836 157.816 74.2334 157.024 75.7319C156.784 76.1853 156.045 77.8343 155.381 79.3963C154.717 80.9584 153.981 82.6177 153.745 83.0838C153.51 83.55 153.021 85.2916 152.658 86.9541C152.035 89.8163 152.162 90.5317 155.053 100.41C157.978 110.401 158.079 110.977 157.432 114.052C156.907 116.553 156.136 117.835 153.945 119.851C152.399 121.275 150.373 122.8 149.445 123.239C148.517 123.677 147.323 124.447 146.792 124.948C146.261 125.449 145.792 125.725 145.748 125.561C145.705 125.398 144.816 125.926 143.775 126.737C142.732 127.548 141.738 128.242 141.565 128.28C139.201 128.805 134.171 135.743 133.629 139.226C133.503 140.035 133.08 141.671 132.689 142.864C132.297 144.057 131.873 145.654 131.746 146.413C131.372 148.648 127.852 154.908 126.365 155.98C123.428 158.101 117.509 158.663 111.539 157.389C110.877 157.247 110.074 157.202 109.756 157.288C109.437 157.374 108.318 157.334 107.27 157.199C104.26 156.812 103.589 156.848 100.081 157.592C96.6555 158.318 93.9764 159.645 90.7366 162.221C87.4061 164.869 86.7192 165.373 84.4424 166.84C79.5899 169.967 74.8049 170.46 71.1396 168.211C69.5948 167.263 63.983 162.478 63.8558 162C63.6721 161.309 57.7585 156.3 55.7465 155.13C53.2463 153.677 49.1172 152.842 45.8554 153.13C44.6717 153.235 43.1968 153.201 42.5777 153.055C41.9594 152.91 41.2393 152.829 40.9778 152.877C40.7171 152.925 39.0402 152.924 37.2518 152.876C33.2408 152.767 30.0955 151.567 27.5801 149.187C25.8815 147.58 25.4894 146.652 24.1928 141.177C20.4262 125.269 20.5598 125.692 18.6192 123.523C16.8044 121.494 12.3754 117.918 9.69117 116.315C7.56542 115.045 3.93838 111.479 2.23062 108.98C0.939709 107.091 0.658342 106.149 0.657688 103.715C0.656972 102.084 0.910988 100.214 1.22115 99.5574C1.53147 98.9018 1.73107 98.1595 1.66434 97.9087C1.59745 97.6572 1.79161 97.0027 2.09498 96.4537C2.3988 95.9039 3.19015 94.177 3.85398 92.615C4.5178 91.0529 5.26642 89.4015 5.51722 88.9451C5.76864 88.4885 6.49523 86.3436 7.13273 84.1786C8.14751 80.7317 8.15492 79.6802 7.19175 75.7282C6.58666 73.2449 5.30776 69.2937 4.34902 66.9467C2.26193 61.834 1.92318 57.3471 3.35932 53.8268C4.25725 51.6251 8.66961 47.1935 11.1848 45.966C17.6296 42.8222 22.0565 39.2347 24.3895 35.2668C25.5727 33.2543 26.65 30.8882 26.7836 30.0088Z" fill="url(#paint0_radial_1325_10168)"/>
<defs>
<radialGradient id="paint0_radial_1325_10168" cx="0" cy="0" r="1" gradientUnits="userSpaceOnUse" gradientTransform="translate(29.5 51.516) rotate(48.5152) scale(227.197 230.606)">
<stop stop-color="#F0FCE9"/>
<stop offset="1" stop-color="#30A635"/>
</radialGradient>
</defs>
</svg>
