<svg width="340" height="289" viewBox="0 0 340 289" fill="none" xmlns="http://www.w3.org/2000/svg">
<path d="M339.68 19.5406C339.262 25.6982 338.756 31.847 338.442 38.0132C337.892 48.8281 337.474 59.6518 336.959 70.4754C336.741 74.9322 335.511 78.9268 331.621 81.7003C327.356 84.7354 323.135 84.8139 319.245 81.2642C314.352 76.7987 309.695 72.0628 304.994 67.3879C304.069 66.4634 303.389 65.286 301.784 63.1405C300.511 65.0941 299.953 66.3762 299.028 67.3007C255.516 110.866 211.977 154.404 168.429 197.943C161.374 204.999 153.367 206.499 145.997 202.016C144.139 200.882 142.474 199.356 140.912 197.804C124.472 181.416 108.058 165.001 91.6696 148.561C90.8236 147.715 90.248 146.59 89.402 145.386C87.8844 146.782 87.0035 147.558 86.1662 148.378C68.8798 165.647 51.5497 182.863 34.3592 200.22C29.1437 205.479 23.2303 208.575 15.9303 206.29C8.229 203.874 2.95237 198.449 0.623669 190.608C-0.893909 185.497 0.466678 180.761 3.528 176.514C4.49611 175.18 5.69098 174.002 6.85969 172.833C29.5274 150.166 52.2126 127.507 74.8978 104.856C84.1777 95.5852 93.5361 95.6114 102.86 104.926C119.283 121.332 135.697 137.755 152.12 154.16C152.966 155.006 153.847 155.817 154.37 156.314C194.376 116.404 234.191 76.6853 274.503 36.4608C269.209 31.3149 263.732 26.1953 258.499 20.8227C254.146 16.3659 253.859 11.6039 257.251 7.0686C259.501 4.06833 262.711 3.10894 266.261 2.93451C279.396 2.28038 292.531 1.60881 305.674 0.972121C312.189 0.65814 318.713 0.544757 325.22 0.0737851C331.953 -0.414631 337.168 1.43437 339.68 8.24603C339.68 12.0225 339.68 15.7816 339.68 19.5406Z" fill="#4CAF50"/>
<path d="M300.291 286.782L300.287 286.782C285.941 286.93 271.586 286.939 257.24 286.808C255.782 286.794 254.799 286.33 254.143 285.641C253.464 284.928 252.986 283.818 252.861 282.266C252.8 281.499 252.801 280.723 252.804 279.879C252.804 279.723 252.804 279.565 252.804 279.403C252.804 271.16 252.805 262.916 252.806 254.672C252.81 218.941 252.814 183.208 252.743 147.476L252.743 147.474C252.739 146.302 252.918 145.392 253.26 144.6C253.603 143.804 254.145 143.045 254.976 142.221L254.977 142.221C266.816 130.483 278.603 118.687 290.388 106.893C293.755 103.524 297.121 100.155 300.488 96.7876C300.963 96.3184 301.43 95.882 301.908 95.4363C301.943 95.4037 301.977 95.3711 302.012 95.3384C303.078 96.0162 303.665 96.7882 304.02 97.6244C304.496 98.7431 304.62 100.116 304.62 101.89C304.548 146.061 304.55 190.231 304.552 234.401C304.552 249.12 304.553 263.838 304.55 278.557C304.55 278.815 304.552 279.067 304.553 279.315C304.558 280.396 304.562 281.397 304.47 282.394C304.33 283.879 303.859 284.96 303.2 285.657C302.566 286.328 301.64 286.772 300.291 286.782Z" stroke="white" stroke-width="3"/>
<path d="M176.635 221.643L176.635 221.642C176.631 220.776 176.733 220.212 176.93 219.779C177.116 219.367 177.444 218.95 178.113 218.483L178.115 218.482C180.297 216.953 182.234 215.093 184.034 213.301L184.034 213.301C194.173 203.198 204.296 193.074 214.416 182.953C218.913 178.455 223.409 173.958 227.906 169.464L227.907 169.463C228.132 169.238 228.358 169.017 228.599 168.785V168.787V168.793V168.8V168.806V168.813V168.819V168.826V168.832V168.839V168.845V168.852V168.858V168.865V168.871V168.878V168.884V168.891V168.897V168.904V168.91V168.917V168.923V168.929V168.936V168.942V168.949V168.955V168.962V168.968V168.974V168.981V168.987V168.994V169V169.006V169.013V169.019V169.026V169.032V169.038V169.045V169.051V169.058V169.064V169.07V169.077V169.083V169.089V169.096V169.102V169.109V169.115V169.121V169.128V169.134V169.14V169.147V169.153V169.159V169.166V169.172V169.178V169.185V169.191V169.197V169.204V169.21V169.216V169.223V169.229V169.235V169.242V169.248V169.254V169.26V169.267V169.273V169.279V169.286V169.292V169.298V169.305V169.311V169.317V169.323V169.33V169.336V169.342V169.349V169.355V169.361V169.368V169.374V169.38V169.386V169.393V169.399V169.405V169.412V169.418V169.424V169.43V169.437V169.443V169.449V169.664V169.878V170.093V170.307V170.521V170.736V170.95V171.165V171.379V171.594V171.808V172.022V172.237V172.451V172.666V172.88V173.095V173.309V173.523V173.738V173.952V174.167V174.381V174.596V174.81V175.024V175.239V175.453V175.668V175.882V176.097V176.311V176.525V176.74V176.954V177.169V177.383V177.598V177.812V178.026V178.241V178.455V178.67V178.884V179.099V179.313V179.527V179.742V179.956V180.171V180.385V180.599V180.814V181.028V181.243V181.457V181.672V181.886V182.1V182.315V182.529V182.744V182.958V183.173V183.387V183.601V183.816V184.03V184.245V184.459V184.673V184.888V185.102V185.317V185.531V185.746V185.96V186.174V186.389V186.603V186.818V187.032V187.247V187.461V187.675V187.89V188.104V188.319V188.533V188.747V188.962V189.176V189.391V189.605V189.82V190.034V190.248V190.463V190.677V190.892V191.106V191.32V191.535V191.749V191.964V192.178V192.392V192.607V192.821V193.036V193.25V193.465V193.679V193.893V194.108V194.322V194.537V194.751V194.965V195.18V195.394V195.609V195.823V196.038V196.252V196.466V196.681V196.895V197.11V197.324V197.538V197.753V197.967V198.182V198.396V198.61V198.825V199.039V199.254V199.468V199.683V199.897V200.111V200.326V200.54V200.755V200.969V201.183V201.398V201.612V201.827V202.041V202.255V202.47V202.684V202.899V203.113V203.328V203.542V203.756V203.971V204.185V204.4V204.614V204.828V205.043V205.257V205.472V205.686V205.9V206.115V206.329V206.544V206.758V206.972V207.187V207.401V207.616V207.83V208.044V208.259V208.473V208.688V208.902V209.117V209.331V209.545V209.76V209.974V210.189V210.403V210.617V210.832V211.046V211.261V211.475V211.689V211.904V212.118V212.333V212.547V212.761V212.976V213.19V213.405V213.619V213.833V214.048V214.262V214.477V214.691V214.906V215.12V215.334V215.549V215.763V215.978V216.192V216.406V216.621V216.835V217.05V217.264V217.478V217.693V217.907V218.122V218.336V218.55V218.765V218.979V219.194V219.408V219.622V219.837V220.051V220.266V220.48V220.695V220.909V221.123V221.338V221.552V221.767V221.981V222.195V222.41V222.624V222.839V223.053V223.267V223.482V223.696V223.911V224.125V224.339V224.554V224.768V224.983V225.197V225.411V225.626V225.84V226.055V226.269V226.483V226.698V226.912V227.127V227.341V227.555V227.77V227.984V228.199V228.413V228.628V228.842V229.056V229.271V229.485V229.7V229.914V230.128V230.343V230.557V230.772V230.986V231.2V231.415V231.629V231.844V232.058V232.272V232.487V232.701V232.916V233.13V233.344V233.559V233.773V233.988V234.202V234.416V234.631V234.845V235.06V235.274V235.489V235.703V235.917V236.132V236.346V236.561V236.775V236.989V237.204V237.418V237.633V237.847V238.061V238.276V238.49V238.705V238.919V239.133V239.348V239.562V239.777V239.991V240.205V240.42V240.634V240.849V241.063V241.278V241.492V241.706V241.921V242.135V242.35V242.564V242.778V242.993V243.207V243.422V243.636V243.85V244.065V244.279V244.494V244.708V244.922V245.137V245.351V245.566V245.78V245.995V246.209V246.423V246.638V246.852V247.067V247.281V247.495V247.71V247.924V248.139V248.353V248.567V248.782V248.996V249.211V249.425V249.64V249.854V250.068V250.283V250.497V250.712V250.926V251.14V251.355V251.569V251.784V251.998V252.212V252.427V252.641V252.856V253.07V253.285V253.499V253.713V253.928V254.142V254.357V254.571V254.785V255V255.214V255.429V255.643V255.857V256.072V256.286V256.501V256.715V256.93V257.144V257.358V257.573V257.787V258.002V258.216V258.43V258.645V258.859V259.074V259.288V259.503V259.717V259.931V260.146V260.36V260.575V260.789V261.003V261.218V261.432V261.647V261.861V262.076V262.29V262.504V262.719V262.933V263.148V263.362V263.576V263.791V264.005V264.22V264.434V264.649V264.863V265.077V265.292V265.506V265.721V265.935V266.15V266.364V266.578V266.793V267.007V267.222V267.436V267.65V267.865V268.079V268.294V268.508V268.723V268.937V269.151V269.366V269.58V269.795V270.009V270.224V270.438V270.652V270.867V271.081V271.296V271.51V271.725V271.939V272.153V272.368V272.582V272.797V273.011V273.225V273.44V273.654V273.869V274.083V274.298V274.512V274.726V274.941V275.155V275.37V275.584V275.799V276.013V276.227V276.442V276.656V276.871V277.085V277.3V277.514V277.728V277.943V278.157V278.372V278.586V278.801V279.015V279.229C228.599 282.925 228.101 284.635 227.199 285.54C226.297 286.445 224.595 286.944 220.913 286.948C208.643 286.957 196.373 286.957 184.103 286.948C180.5 286.944 178.873 286.456 178.019 285.585C177.155 284.704 176.678 283.027 176.678 279.36C176.678 275.238 176.68 271.117 176.681 266.995C176.685 251.879 176.69 236.764 176.635 221.643Z" stroke="white" stroke-width="3"/>
<path d="M100.585 188.337C100.584 192.543 100.583 196.748 100.581 200.953C100.573 227.47 100.564 253.986 100.594 280.501L100.585 188.337ZM100.585 188.337C106.44 194.2 111.865 199.632 117.291 205.058C118.272 206.039 119.253 207.022 120.236 208.007C122.531 210.308 124.832 212.614 127.143 214.901L127.146 214.904C133.822 221.48 141.802 225.416 151.268 226.189L151.269 226.189C151.652 226.219 151.974 226.282 152.379 226.365C152.419 226.972 152.454 227.513 152.454 228.086V228.087C152.462 245.434 152.462 262.781 152.454 280.128V280.129C152.454 283.217 151.944 284.751 151.106 285.59C150.267 286.43 148.728 286.945 145.622 286.949H145.621C132.811 286.975 119.992 286.984 107.184 286.949C104.364 286.941 102.847 286.411 101.988 285.57C101.139 284.738 100.598 283.268 100.594 280.502L100.585 188.337Z" stroke="white" stroke-width="3"/>
<path d="M31.6522 286.948H31.6521C28.3702 286.944 26.808 286.451 25.9725 285.622C25.1413 284.797 24.6465 283.257 24.6465 280.006L24.6465 280.005C24.6406 269.022 24.6426 258.044 24.6445 247.063C24.6455 241.573 24.6465 236.081 24.6465 230.588V230.583V230.577V230.571V230.565V230.56V230.554V230.548V230.542V230.536V230.531V230.525V230.519V230.513V230.508V230.502V230.496V230.49V230.484V230.479V230.473V230.467V230.461V230.456V230.45V230.444V230.438V230.432V230.427V230.421V230.415V230.409V230.404V230.398V230.392V230.386V230.38V230.375V230.369V230.363V230.357V230.352V230.346V230.34V230.334V230.328V230.323V230.317V230.311V230.305V230.3V230.294V230.288V230.282V230.276V230.271V230.265V230.259V230.253V230.247V230.242V230.236V230.23V230.224V230.218V230.213V230.207V230.201V230.195V230.19V230.184V230.178V230.172V230.166V230.161V230.155V230.149V230.143V230.137V230.132V230.126V230.12V230.114V230.108V230.103V230.097V230.091V230.085V230.079V230.074V230.068V230.062V230.056V230.05V230.044V230.039V230.033V230.027V230.021V230.015V230.01V230.004V229.998V229.992V229.986V229.981V229.975V229.969V229.963V229.957V229.951V229.946V229.94V229.934V229.928V229.922V229.916V229.911V229.905V229.899V229.893V229.887V229.881V229.876V229.87V229.864V229.858V229.852V229.846V229.841V229.835V229.829V229.823V229.817V229.811V229.805V229.8V229.794V229.788V229.782V229.776V229.77V229.765V229.759V229.753V229.747V229.741V229.735V229.729V229.723V229.718V229.712V229.706V229.7V229.694V229.688V229.682V229.677V229.671V229.665V229.659V229.653V229.647V229.641V229.635V229.629V229.624V229.618V229.612V229.606V229.6V229.594V229.588V229.582V229.576V229.571V229.565V229.559V229.553V229.547V229.541V229.535V229.529V229.523V229.517V229.511V229.506V229.5V229.494V229.488V229.482V229.476V229.47V229.464V229.458V229.452V229.446V229.44V229.434V229.429V229.423V229.417V229.411V229.405V229.399V229.393V229.387V229.381V229.375V229.369V229.363V229.357V229.351V229.345V229.339V229.333V229.327V229.321V229.315V229.309V229.303V229.297V229.292V229.286V229.28V229.274V229.268V229.262V229.256V229.25V229.244V229.238V229.232V229.226V229.22V229.214V229.208V229.202V229.196V229.19V229.184V229.178V229.172V229.166V229.16V229.154V229.148V229.142V229.135V229.129V229.123V229.117V229.111V229.105V229.099V229.093V229.087V229.081V229.075V229.069V229.063V229.057V229.051V229.045V229.039V229.033V229.027V229.021V229.015V229.008V229.002V228.996V228.99V228.984V228.978V228.972V228.966V228.96V228.954V228.948V228.942V228.935V228.929V228.923V228.917V228.911V228.905V228.899V228.893V228.887V228.88V228.874V228.868V228.862V228.856V228.85V228.844V228.838V228.831V228.825V228.819V228.813V228.807V228.801V228.795V228.788V228.782V228.776V228.77V228.764V228.758V228.751V228.745V228.739V228.733V228.727V228.721V228.714V228.708V228.702V228.696V228.69V228.683V228.68C24.9803 228.616 25.3145 228.552 25.6487 228.488C27.3598 228.162 29.0694 227.835 30.7176 227.398C38.0526 225.457 44.1106 221.427 49.3353 216.193L49.3353 216.193L76.3926 189.087V189.091V189.098V189.105V189.112V189.118V189.125V189.132V189.139V189.146V189.153V189.16V189.166V189.173V189.18V189.187V189.194V189.201V189.208V189.215V189.221V189.228V189.235V189.242V189.249V189.256V189.263V189.269V189.276V189.283V189.29V189.297V189.304V189.311V189.318V189.324V189.331V189.338V189.345V189.352V189.359V189.366V189.372V189.379V189.386V189.393V189.4V189.407V189.414V189.42V189.427V189.434V189.441V189.448V189.455V189.462V189.469V189.475V189.482V189.489V189.496V189.503V189.51V189.517V189.523V189.53V189.537V189.544V189.551V189.558V189.565V189.571V189.578V189.585V189.592V189.599V189.606V189.613V189.619V189.626V189.633V189.64V189.647V189.654V189.661V189.667V189.674V189.681V189.688V189.695V189.702V189.709V189.715V189.722V189.729V189.736V189.743V189.75V189.757V189.763V189.77V189.777V189.784V189.791V189.798V189.805V189.811V189.818V189.825V189.832V189.839V189.846V189.853V189.859V189.866V189.873V189.88V189.887V189.894V189.9V189.907V189.914V189.921V189.928V189.935V189.942V189.948V189.955V189.962V189.969V189.976V189.983V189.99V189.996V190.003V190.01V190.017V190.024V190.198V190.372V190.547V190.721V190.895V191.069V191.244V191.418V191.592V191.766V191.941V192.115V192.289V192.463V192.638V192.812V192.986V193.161V193.335V193.509V193.683V193.858V194.032V194.206V194.38V194.555V194.729V194.903V195.077V195.252V195.426V195.6V195.774V195.949V196.123V196.297V196.472V196.646V196.82V196.994V197.169V197.343V197.517V197.691V197.866V198.04V198.214V198.388V198.563V198.737V198.911V199.085V199.26V199.434V199.608V199.783V199.957V200.131V200.305V200.48V200.654V200.828V201.002V201.177V201.351V201.525V201.699V201.874V202.048V202.222V202.396V202.571V202.745V202.919V203.094V203.268V203.442V203.616V203.791V203.965V204.139V204.313V204.488V204.662V204.836V205.01V205.185V205.359V205.533V205.707V205.882V206.056V206.23V206.405V206.579V206.753V206.927V207.102V207.276V207.45V207.624V207.799V207.973V208.147V208.321V208.496V208.67V208.844V209.018V209.193V209.367V209.541V209.715V209.89V210.064V210.238V210.413V210.587V210.761V210.935V211.11V211.284V211.458V211.632V211.807V211.981V212.155V212.329V212.504V212.678V212.852V213.026V213.201V213.375V213.549V213.723V213.898V214.072V214.246V214.421V214.595V214.769V214.943V215.118V215.292V215.466V215.64V215.815V215.989V216.163V216.337V216.512V216.686V216.86V217.034V217.209V217.383V217.557V217.731V217.906V218.08V218.254V218.429V218.603V218.777V218.951V219.126V219.3V219.474V219.648V219.823V219.997V220.171V220.345V220.52V220.694V220.868V221.042V221.217V221.391V221.565V221.739V221.914V222.088V222.262V222.436V222.611V222.785V222.959V223.133V223.308V223.482V223.656V223.83V224.005V224.179V224.353V224.528V224.702V224.876V225.05V225.225V225.399V225.573V225.747V225.922V226.096V226.27V226.444V226.619V226.793V226.967V227.141V227.316V227.49V227.664V227.838V228.013V228.187V228.361V228.535V228.71V228.884V229.058V229.232V229.407V229.581V229.755V229.929V230.104V230.278V230.452V230.626V230.801V230.975V231.149V231.323V231.498V231.672V231.846V232.02V232.195V232.369V232.543V232.717V232.892V233.066V233.24V233.414V233.589V233.763V233.937V234.111V234.286V234.46V234.634V234.808V234.983V235.157V235.331V235.505V235.68V235.854V236.028V236.202V236.377V236.551V236.725V236.899V237.074V237.248V237.422V237.596V237.771V237.945V238.119V238.293V238.468V238.642V238.816V238.99V239.165V239.339V239.513V239.687V239.862V240.036V240.21V240.384V240.559V240.733V240.907V241.081V241.256V241.43V241.604V241.778V241.953V242.127V242.301V242.475V242.65V242.824V242.998V243.172V243.347V243.521V243.695V243.869V244.044V244.218V244.392V244.566V244.741V244.915V245.089V245.263V245.438V245.612V245.786V245.96V246.135V246.309V246.483V246.657V246.832V247.006V247.18V247.354V247.529V247.703V247.877V248.051V248.225V248.4V248.574V248.748V248.922V249.097V249.271V249.445V249.619V249.794V249.968V250.142V250.316V250.491V250.665V250.839V251.013V251.188V251.362V251.536V251.71V251.885V252.059V252.233V252.407V252.581V252.756V252.93V253.104V253.278V253.453V253.627V253.801V253.975V254.15V254.324V254.498V254.672V254.847V255.021V255.195V255.369V255.544V255.718V255.892V256.066V256.24V256.415V256.589V256.763V256.937V257.112V257.286V257.46V257.634V257.809V257.983V258.157V258.331V258.506V258.68V258.854V259.028V259.202V259.377V259.551V259.725V259.899V260.074V260.248V260.422V260.596V260.771V260.945V261.119V261.293V261.467V261.642V261.816V261.99V262.164V262.339V262.513V262.687V262.861V263.036V263.21V263.384V263.558V263.732V263.907V264.081V264.255V264.429V264.604V264.778V264.952V265.126V265.301V265.475V265.649V265.823V265.997V266.172V266.346V266.52V266.694V266.869V267.043V267.217V267.391V267.565V267.74V267.914V268.088V268.262V268.437V268.611V268.785V268.959V269.133V269.308V269.482V269.656V269.83V270.005V270.179V270.353V270.527V270.701V270.876V271.05V271.224V271.398V271.573V271.747V271.921V272.095V272.269V272.444V272.618V272.792V272.966V273.141V273.315V273.489V273.663V273.837V274.012V274.186V274.36V274.534V274.709V274.883V275.057V275.231V275.405V275.58V275.754V275.928V276.102V276.277V276.451V276.625V276.799V276.973V277.148V277.322V277.496V277.67V277.844V278.019V278.193V278.367V278.541V278.716V278.89V279.064V279.238C76.3926 283.03 75.9253 284.72 75.0573 285.598C74.1951 286.471 72.5384 286.944 68.7941 286.948C56.4093 286.957 44.035 286.966 31.6522 286.948Z" stroke="white" stroke-width="3"/>
</svg>
