<svg width="143" height="40" viewBox="0 0 143 40" fill="none" xmlns="http://www.w3.org/2000/svg">
<g clip-path="url(#clip0_1325_10154)">
<path d="M49.8328 8.88867C50.8961 8.88867 51.6608 9.55681 51.6608 10.5249V29.691C51.6608 30.659 50.8961 31.3272 49.8328 31.3272C48.7695 31.3272 48.0039 30.6599 48.0039 29.691V10.5249C48.0039 9.55681 48.7686 8.88867 49.8328 8.88867Z" fill="white"/>
<path d="M57.3504 8.92188C58.4138 8.92188 59.1784 9.5582 59.1784 10.5245V26.9189C59.1784 27.5197 59.3784 27.687 59.8436 27.687H69.5489C70.6457 27.687 71.3108 28.3233 71.3108 29.3896C71.3108 30.456 70.6457 31.0923 69.5489 31.0923H57.317C56.2202 31.0923 55.5225 30.4914 55.5225 29.3896V10.5245C55.518 9.55638 56.2827 8.92188 57.3504 8.92188Z" fill="white"/>
<path d="M90.3845 14.7994L85.5982 21.8444C84.9332 22.8443 84.4011 23.247 83.5043 23.247C82.6401 23.247 82.1415 22.8461 81.4429 21.8444L76.6567 14.7994H76.5572V29.6911C76.5572 30.6911 75.7924 31.3275 74.7292 31.3275C73.6659 31.3275 72.9012 30.6911 72.9012 29.6911V11.056C72.9012 9.75337 73.8315 8.91887 75.0613 8.91887H75.3274C76.5943 8.91887 77.3879 9.68701 78.053 10.6888L83.6038 18.8355H83.6374L89.1573 10.6542C89.8225 9.6861 90.4542 8.91797 91.7165 8.91797H91.9826C93.1789 8.91797 94.11 9.75246 94.11 11.0551V29.6902C94.11 30.6902 93.3454 31.3265 92.2821 31.3265C91.2188 31.3265 90.4542 30.6902 90.4542 29.6902V14.7994H90.3845Z" fill="white"/>
<path d="M99.8246 8.88867C100.888 8.88867 101.652 9.55681 101.652 10.5249V29.691C101.652 30.659 100.888 31.3272 99.8246 31.3272C98.7612 31.3272 97.9957 30.6599 97.9957 29.691V10.5249C97.9957 9.55681 98.7603 8.88867 99.8246 8.88867Z" fill="white"/>
<path d="M115.68 29.691C115.68 30.6909 114.849 31.3272 113.851 31.3272C112.821 31.3272 112.024 30.6909 112.024 29.691V22.3115L103.847 11.8939C102.851 10.6213 103.78 8.88867 105.409 8.88867C106.14 8.88867 106.638 9.28956 107.17 9.99042L113.885 18.6053L120.566 10.0241C121.131 9.32319 121.53 8.88867 122.361 8.88867C123.989 8.88867 124.887 10.6922 123.856 11.9602L115.68 22.276V29.691Z" fill="white"/>
<path d="M126.947 25.7172L125.219 29.9569C124.858 30.8586 124.289 31.3259 123.425 31.3259C122.36 31.3259 121.629 30.625 121.564 29.6569C121.53 29.2224 121.664 28.8224 121.863 28.3542L128.839 11.4927C129.571 9.62274 130.568 8.92188 132.063 8.92188H132.296C133.825 8.92188 134.79 9.62274 135.554 11.4927L142.533 28.4915C142.7 28.9261 142.799 29.2933 142.799 29.5605C142.799 30.595 141.969 31.3295 140.872 31.3295C140.074 31.3295 139.409 30.8286 139.044 29.9278L137.348 25.7207L126.947 25.7172ZM136.055 22.3774L132.233 12.5944H132.132L128.21 22.3774H136.055Z" fill="white"/>
<path fill-rule="evenodd" clip-rule="evenodd" d="M35.5971 0.244141H4.82963C2.33074 0.244141 0.304993 2.27907 0.304993 4.7893V35.6964C0.304993 38.2066 2.33074 40.2415 4.82963 40.2415H35.5971C38.0961 40.2415 40.1218 38.2066 40.1218 35.6964V4.7893C40.1218 2.27907 38.0961 0.244141 35.5971 0.244141ZM20.2139 13.0143C21.2772 13.0143 22.0419 13.6825 22.0419 14.6505V33.8193C22.0419 34.7874 21.2772 35.4556 20.2139 35.4556C19.1507 35.4556 18.3859 34.7874 18.3859 33.8193V14.6505C18.3859 13.6852 19.1498 13.0143 20.2139 13.0143ZM17.7993 6.63421C17.6693 6.94964 17.6024 7.28773 17.6025 7.62913C17.6101 8.31622 17.8852 8.97301 18.369 9.4588C18.8528 9.94459 19.5067 10.2207 20.1907 10.228C21.6467 10.228 22.8231 9.04267 22.8231 7.62913C22.8231 6.17013 21.643 5.03021 20.1907 5.03021C19.8508 5.02996 19.5142 5.09702 19.2002 5.22753C18.8861 5.35804 18.6008 5.54946 18.3604 5.79082C18.1201 6.0322 17.9294 6.31878 17.7993 6.63421Z" fill="white"/>
</g>
<defs>
<clipPath id="clip0_1325_10154">
<rect x="0.746094" width="142.213" height="39.9974" fill="white"/>
</clipPath>
</defs>
</svg>
