<svg width="14" height="14" viewBox="0 0 14 14" fill="none" xmlns="http://www.w3.org/2000/svg">
<path d="M0.603938 4.80694H3.41678V13.2717H0.603938V4.80694ZM2.02919 0.726562C1.06647 0.726562 0.4375 1.35859 0.4375 2.18816C0.4375 3.00066 1.04806 3.65106 1.99237 3.65106H2.01031C2.99144 3.65106 3.60244 3.00063 3.60244 2.18816C3.58403 1.35859 2.99147 0.726562 2.02919 0.726562ZM10.3231 4.60809C8.83 4.60809 8.16109 5.42934 7.78794 6.00528V4.80694H4.97425C5.0115 5.60103 4.97425 13.2717 4.97425 13.2717H7.78794V8.54437C7.78794 8.29119 7.80634 8.03894 7.88037 7.85756C8.08409 7.35213 8.54703 6.82872 9.32356 6.82872C10.3424 6.82872 10.7493 7.60531 10.7493 8.74272V13.2717H13.5625V8.41781C13.5625 5.81784 12.1749 4.60809 10.3231 4.60809Z" fill="white"/>
</svg>
