<svg width="410" height="307" viewBox="0 0 410 307" fill="none" xmlns="http://www.w3.org/2000/svg">
<path d="M204.426 16.6808C207.721 11.7745 210.685 7.42654 213.571 3.03559C215.152 0.630768 217.087 -1.05476 220.006 0.770333C222.903 2.58469 222.207 5.00025 220.57 7.39433C217.529 11.8712 214.665 16.4661 211.47 20.8356C209.789 23.133 209.822 24.7971 211.437 27.2019C232.214 58.0567 252.869 88.9865 273.558 119.906C308.08 171.513 342.624 223.098 377.024 274.781C379.103 277.894 381.281 279.032 384.986 278.871C391.333 278.592 397.691 278.817 404.049 278.785C407.001 278.774 409.478 279.547 409.5 282.865C409.522 286.246 407.023 286.891 404.071 286.858C398.045 286.794 392.018 286.837 385.174 286.837C388.402 291.722 391.277 295.909 393.987 300.203C395.933 303.295 394.904 306.569 391.775 306.709C390.227 306.784 388.049 305.657 387.109 304.401C383.692 299.859 380.518 295.125 377.577 290.283C375.985 287.664 374.16 286.762 370.976 286.772C309.352 286.88 247.717 286.848 186.092 286.848C136.765 286.848 87.4365 286.88 38.0975 286.772C34.8134 286.762 32.812 287.653 31.1423 290.423C28.2894 295.157 25.0274 299.677 21.9534 304.283C20.4275 306.58 18.4592 307.922 15.7501 306.258C13.041 304.594 13.428 302.286 14.9539 299.978C17.6962 295.844 20.4385 291.722 23.6784 286.848C17.1102 286.848 11.3823 286.805 5.66555 286.869C2.79057 286.901 0.114631 286.493 0.0040548 283.101C-0.117579 279.537 2.51413 278.774 5.63238 278.796C12.3996 278.828 19.1779 278.978 25.9341 278.688C27.6149 278.613 29.8706 277.454 30.7774 276.101C86.4635 193.081 142.017 109.986 197.659 26.9443C199.107 24.7864 199.03 23.2941 197.559 21.2435C194.242 16.6271 191.234 11.8068 188.05 7.10447C186.468 4.77479 186.115 2.54174 188.791 0.845483C191.478 -0.861512 193.435 0.383843 194.983 2.72425C198.002 7.20109 201.042 11.6672 204.426 16.6808ZM230.743 278.56C232.501 275.854 233.308 273.406 235.022 272.419C236.095 271.796 239.611 272.913 240.131 274.061C242.298 278.807 246.146 278.731 250.392 278.592C255.081 278.441 259.791 278.56 264.48 278.56C275.095 278.56 285.722 278.56 296.193 278.56C296.193 276.949 295.751 275.414 296.304 274.416C297 273.159 298.626 271.41 299.676 271.517C301.434 271.689 303.823 272.762 304.597 274.158C306.676 277.894 309.473 278.721 313.642 278.656C330.494 278.42 347.357 278.56 364.208 278.549C365.646 278.549 367.094 278.431 369.206 278.334C314.117 195.98 259.415 114.205 204.448 32.033C203.287 33.7186 202.436 34.921 201.617 36.1449C193.8 47.8362 186.093 59.6026 178.098 71.1866C175.3 75.2447 172.558 78.7446 176.926 83.4898C177.678 84.3057 176.893 87.709 175.743 88.5678C174.615 89.416 172.094 88.6967 170.247 88.3317C169.528 88.1921 169.02 87.1078 168.157 86.1738C160.118 98.1764 152.4 109.911 144.416 121.462C142.271 124.565 141.409 126.981 143.985 130.341C144.87 131.49 144.439 134.85 143.333 135.805C142.26 136.729 139.54 135.945 137.561 135.698C137.218 135.655 137.03 134.56 136.532 133.422C127.443 146.992 119.061 159.424 110.857 171.964C110.293 172.833 110.691 174.819 111.365 175.839C133.702 209.389 156.104 242.884 178.607 276.327C179.347 277.422 181.183 278.431 182.51 278.441C198.986 278.613 215.417 278.56 230.743 278.56ZM72.2876 261.382C78.115 252.654 83.3673 244.806 88.6087 236.958C90.8644 233.587 93.1533 230.227 95.3538 226.824C96.9461 224.354 97.0788 221.842 94.3254 220.146C91.8264 218.6 89.5596 219.48 87.8567 221.735C87.4476 222.272 87.0827 222.841 86.7067 223.41C78.2808 236.014 69.7775 248.553 61.5286 261.264C60.3675 263.046 59.4719 266.224 60.3454 267.673C61.2632 269.177 64.4699 269.992 66.6925 270.003C89.7697 270.164 112.847 270.1 135.924 270.1C137.03 270.1 138.49 270.465 139.164 269.928C140.602 268.79 142.548 267.18 142.559 265.752C142.57 264.345 140.657 262.617 139.164 261.629C138.202 260.996 136.477 261.393 135.106 261.393C118.519 261.382 101.944 261.382 85.3577 261.382C81.377 261.382 77.3962 261.382 72.2876 261.382ZM109.983 205.127C108.369 203.377 107.473 201.67 106.091 201.133C104.863 200.661 102.53 200.961 101.69 201.831C99.7437 203.849 98.0297 206.265 96.9793 208.82C96.4706 210.054 97.1783 212.502 98.2288 213.393C99.2792 214.274 102.243 214.649 102.995 213.919C105.549 211.45 107.484 208.39 109.983 205.127Z" fill="white"/>
<path d="M72.2877 261.381C77.3963 261.381 81.3881 261.381 85.3688 261.381C101.955 261.381 118.531 261.381 135.117 261.392C136.499 261.392 138.213 260.984 139.175 261.628C140.668 262.616 142.581 264.344 142.57 265.751C142.559 267.179 140.602 268.789 139.175 269.927C138.501 270.464 137.041 270.099 135.935 270.099C112.858 270.099 89.7808 270.163 66.7036 270.002C64.4921 269.991 61.2743 269.165 60.3565 267.673C59.483 266.234 60.3786 263.045 61.5397 261.263C69.7776 248.552 78.292 236.002 86.7179 223.409C87.0938 222.85 87.4587 222.282 87.8679 221.734C89.5707 219.479 91.8265 218.599 94.3366 220.145C97.0899 221.841 96.9572 224.364 95.3649 226.823C93.1645 230.237 90.8755 233.586 88.6198 236.957C83.3564 244.816 78.1151 252.664 72.2877 261.381Z" fill="white"/>
<path d="M109.982 205.126C107.483 208.39 105.548 211.45 103.005 213.919C102.253 214.649 99.2782 214.273 98.2388 213.393C97.1772 212.502 96.4806 210.054 96.9893 208.82C98.0397 206.264 99.7536 203.849 101.7 201.831C102.54 200.961 104.873 200.65 106.101 201.133C107.472 201.659 108.368 203.377 109.982 205.126Z" fill="white"/>
<path d="M186.579 99.7773C187.22 100.25 188.802 100.948 189.642 102.128C193.081 106.949 196.299 111.92 199.594 116.847C201.164 119.198 201.186 121.507 198.687 123.16C195.923 124.996 193.733 123.75 192.108 121.335C188.868 116.547 185.584 111.769 182.477 106.895C180.309 103.513 182.001 99.9276 186.579 99.7773Z" fill="white"/>
<path d="M246.511 189.238C245.836 189.915 244.885 191.6 243.492 192.083C242.265 192.502 239.821 192.083 239.158 191.171C235.099 185.631 231.229 179.93 227.735 174.047C227.116 173.006 228.056 170.3 229.173 169.334C230.112 168.518 233.308 168.432 233.861 169.173C238.251 175.11 242.243 181.315 246.345 187.456C246.478 187.649 246.4 187.971 246.511 189.238Z" fill="white"/>
<path d="M278.313 236.809C278.998 237.345 280.535 238.108 281.387 239.31C284.815 244.152 288.077 249.123 291.328 254.072C292.853 256.391 292.931 258.763 290.366 260.395C287.822 262.006 285.611 261.072 284.03 258.731C280.701 253.814 277.318 248.94 274.155 243.926C272.01 240.523 273.823 236.841 278.313 236.809Z" fill="white"/>
<path d="M254.816 202.1C256.265 203.216 257.691 203.892 258.465 204.998C261.882 209.851 265.111 214.832 268.406 219.76C269.987 222.122 270.031 224.452 267.51 226.073C265.022 227.683 262.733 226.878 261.13 224.516C257.724 219.492 254.241 214.51 251.112 209.325C250.371 208.09 250.482 205.932 251.068 204.547C251.521 203.506 253.334 203.001 254.816 202.1Z" fill="white"/>
<path d="M209.568 134.034C210.231 134.549 211.768 135.29 212.62 136.493C216.047 141.324 219.287 146.273 222.538 151.222C224.075 153.552 224.086 155.935 221.532 157.513C219.022 159.059 216.777 158.179 215.196 155.839C211.879 150.932 208.506 146.069 205.355 141.066C203.176 137.641 204.99 134.045 209.568 134.034Z" fill="white"/>
<path d="M174.526 177.793C175.123 178.255 176.649 178.985 177.5 180.166C180.486 184.32 183.284 188.593 186.059 192.888C187.563 195.217 187.552 197.558 184.986 199.179C182.366 200.832 180.265 199.737 178.706 197.45C175.753 193.113 172.735 188.808 169.992 184.353C168.035 181.153 169.981 177.804 174.526 177.793Z" fill="white"/>
<path d="M189.254 213.823C190.691 211.987 191.333 210.344 192.472 209.894C193.788 209.378 196.375 209.314 196.961 210.087C200.842 215.261 204.48 220.629 207.82 226.148C208.328 226.985 207.278 229.315 206.261 230.227C205.387 231.011 202.678 231.419 202.236 230.871C197.79 225.385 193.633 219.663 189.254 213.823Z" fill="white"/>
<path d="M166.088 165.082C165.48 165.779 164.673 167.551 163.435 167.894C162.008 168.302 159.421 168.002 158.702 167.046C155.042 162.204 151.658 157.137 148.606 151.909C148.031 150.932 148.938 148.173 150 147.507C151.271 146.713 154.445 146.552 155.075 147.367C158.934 152.381 162.318 157.749 165.823 163.01C166.011 163.321 165.934 163.804 166.088 165.082Z" fill="white"/>
<path d="M229.174 259.117C228.533 259.793 227.659 261.543 226.465 261.801C224.873 262.133 222.208 261.876 221.412 260.845C217.873 256.272 214.611 251.451 211.792 246.438C211.15 245.289 212.123 242.401 213.318 241.445C214.313 240.651 217.641 240.844 218.338 241.746C222.108 246.642 225.381 251.902 228.809 257.045C229.008 257.356 228.953 257.828 229.174 259.117Z" fill="white"/>
<path d="M35.207 280.638L107.753 172.121L180.3 280.638H35.207Z" fill="#4CAF50"/>
</svg>
