<svg width="139" height="40" viewBox="0 0 139 40" fill="none" xmlns="http://www.w3.org/2000/svg">
<path d="M22.0594 5.03156C23.4483 4.11277 24.3468 4.82197 25.1165 5.82607C25.8426 6.77167 26.7653 7.20548 27.9478 7.11043C29.2421 7.00807 29.8224 7.48819 30.0191 8.91391C31.2454 17.7534 32.5906 26.5733 33.8921 35.4031C33.9261 35.6395 33.9189 35.8807 33.9383 36.2268C33.1515 36.4315 32.3818 36.6509 31.6047 36.8288C29.5165 37.3064 27.3991 37.6769 25.3399 38.2569C23.0064 38.915 20.7433 38.7395 18.4073 38.2691C12.6621 37.109 6.89507 36.0465 1.12802 34.9961C0.23443 34.8328 -0.105522 34.5549 0.0280307 33.585C0.999323 26.4295 1.94391 19.2717 2.84478 12.109C2.96619 11.1341 3.39599 10.5907 4.29686 10.459C6.62554 10.1203 7.97077 8.9724 8.57055 6.53283C9.11204 4.32967 10.4646 2.41409 12.4144 1.06392C14.4299 -0.33012 15.5129 -0.34718 17.589 0.971307C17.691 1.03467 17.7954 1.13703 17.9022 1.14191C20.2431 1.25401 21.1609 2.97219 22.0594 5.03156ZM6.15689 27.4215C4.71937 30.6628 5.19288 31.7011 8.58512 32.6759C8.93478 32.7758 9.2893 32.8587 9.64868 32.9147C12.4679 33.3534 14.7553 32.2397 15.8115 29.922C17.0791 27.1461 16.4866 24.241 14.2599 22.4253C13.4756 21.7868 12.5553 21.2896 11.8802 20.5561C11.5136 20.1564 11.3242 19.357 11.4407 18.8208C11.5281 18.4065 12.1765 17.9191 12.6451 17.8289C13.3687 17.6876 14.1603 17.8094 14.9107 17.9093C15.4522 17.98 15.9742 18.1969 16.5716 18.3675C17.1325 16.781 17.6497 15.3114 18.1936 13.7687C16.1733 12.9669 14.1919 13.0132 12.2809 13.5591C9.65111 14.3121 7.88336 16.0498 7.25445 18.8086C6.6401 21.5065 7.5774 23.5708 9.79681 25.1306C10.1877 25.406 10.6783 25.7374 10.8094 26.1444C11.0255 26.8171 11.227 27.6822 10.9721 28.2574C10.8045 28.6327 9.7531 28.8911 9.20917 28.7521C8.17475 28.4914 7.22531 27.9089 6.15689 27.4215ZM9.43014 8.74331C11.9531 8.34606 11.9167 8.33387 12.6597 6.16239C12.9559 5.29477 13.3614 4.43203 13.8762 3.67652C14.3959 2.9137 15.1122 2.28492 15.7703 1.56597C12.9948 1.42949 10.0226 4.79516 9.43014 8.74331ZM13.9442 7.23473C17.2928 7.04707 18.2786 5.60916 16.8751 2.99169C15.1632 3.8983 14.4202 5.43369 13.9442 7.23473ZM20.923 5.30208C20.1824 4.2663 19.5947 3.44499 19.0071 2.62124C18.8857 2.68948 18.7643 2.75772 18.6429 2.8284C18.7691 3.80325 18.8978 4.7781 19.0387 5.86019C19.5753 5.70177 20.0585 5.55798 20.923 5.30208Z" fill="white"/>
<path d="M90.5918 32.1112C90.2591 33.9439 89.89 35.7645 89.6156 37.5996C89.4724 38.5574 89.1421 39.04 88.0713 38.9425C86.9567 38.8401 85.8276 38.9205 84.5358 38.9205C84.9801 36.5151 85.4075 34.2559 85.8154 31.9942C86.7455 26.8421 87.6925 21.6949 88.5618 16.5331C88.7172 15.6167 89.0159 15.2658 89.9386 15.3365C90.8953 15.4071 91.8642 15.3511 92.9666 15.3511C92.9132 16.0944 92.8695 16.7183 92.8063 17.6054C93.2701 17.174 93.5639 16.8767 93.8796 16.6086C95.5429 15.2024 97.437 14.6297 99.5252 15.3803C101.507 16.092 102.276 17.7687 102.527 19.7403C102.944 23.0305 102.17 26.0476 100.302 28.7528C98.0027 32.0795 94.9213 33.1372 90.5918 32.1112ZM97.5705 21.9411C97.5705 21.6169 97.6749 21.2416 97.5487 20.9784C97.2476 20.3545 96.9537 19.4723 96.4414 19.2797C95.8562 19.0604 94.9067 19.2919 94.3531 19.6721C93.729 20.101 93.1438 20.8492 92.9326 21.5755C92.3352 23.6251 91.9127 25.7259 91.4975 27.8243C91.4489 28.068 91.8253 28.5311 92.1143 28.6797C93.1438 29.2159 94.358 28.9308 95.2953 27.934C96.8712 26.2621 97.4151 24.1662 97.5705 21.9411Z" fill="white"/>
<path d="M52.228 32.2359C53.0731 27.7248 53.8744 23.4257 54.6854 19.129C55.3022 15.8633 55.9626 12.6024 56.5333 9.32935C56.7057 8.33256 57.1088 7.95968 58.1238 8.04498C59.1995 8.13516 60.2873 8.06448 61.5889 8.06448C61.0207 11.1401 60.4816 14.0623 59.8794 17.3207C60.3942 16.8991 60.6443 16.592 60.9697 16.4506C62.0624 15.9705 63.1478 15.3076 64.2939 15.159C66.9917 14.8056 68.8056 16.4409 68.6672 19.1827C68.5506 21.4784 68.0844 23.7596 67.708 26.0359C67.4093 27.8345 67.0427 29.6233 66.6347 31.4C66.5594 31.7266 66.1491 32.1945 65.8674 32.214C64.5513 32.2993 63.2231 32.253 61.737 32.253C61.9264 31.1246 62.0721 30.179 62.2469 29.2358C62.6718 26.9644 63.1259 24.6979 63.5339 22.424C63.6407 21.8294 63.6917 21.2104 63.6674 20.6084C63.6067 19.1217 62.5067 18.5417 61.2295 19.3411C59.7968 20.2404 59.1363 21.7051 58.7867 23.2649C58.2209 25.7946 57.7498 28.3487 57.32 30.9077C57.1476 31.9362 56.7445 32.3578 55.6688 32.2579C54.6004 32.1579 53.5101 32.2359 52.228 32.2359Z" fill="white"/>
<path d="M138.941 15.4259C138.062 17.3464 137.305 19.0792 136.479 20.7827C134.677 24.5042 132.917 28.2525 130.989 31.9082C129.68 34.3917 128.043 36.6923 125.647 38.2764C124.685 38.9125 123.602 39.3585 122.364 39.9995C121.902 38.6006 121.465 37.4381 121.169 36.239C121.116 36.0245 121.601 35.6151 121.902 35.3811C123.073 34.4696 124.311 33.6435 125.44 32.6857C126.278 31.974 126.378 30.9992 126.164 29.9049C125.3 25.484 124.501 21.0508 123.682 16.6226C123.619 16.2765 123.6 15.9231 123.544 15.4381C125.069 15.4381 126.48 15.3747 127.876 15.4893C128.162 15.5137 128.578 16.1741 128.626 16.5787C128.944 19.1962 129.177 21.8258 129.445 24.4506C129.505 25.0355 129.588 25.6204 129.704 26.549C131.02 23.0688 132.254 19.9444 133.369 16.7785C133.742 15.7135 134.272 15.3016 135.391 15.4064C136.503 15.5063 137.625 15.4259 138.941 15.4259Z" fill="white"/>
<path d="M69.8575 25.6197C69.8769 20.5188 73.0434 16.2587 77.5696 15.2424C82.2245 14.1993 85.9081 17.1555 85.7333 21.9177C85.573 26.2923 83.9923 29.909 79.789 31.8831C77.9945 32.7264 76.0956 32.7775 74.2138 32.2852C71.397 31.5443 69.843 29.1072 69.8575 25.6197ZM74.4517 25.4369C74.561 25.4783 74.6727 25.5173 74.782 25.5588C74.7116 27.3525 75.2652 28.4638 76.3798 28.7538C77.5914 29.0707 78.8541 28.4809 79.4903 26.8285C80.1338 25.1591 80.5005 23.3556 80.7749 21.5765C80.9473 20.4676 80.5612 19.3684 79.3301 18.9078C78.3199 18.5301 77.0184 18.9956 76.3943 20.2775C75.5954 21.9226 75.0879 23.7114 74.4517 25.4369Z" fill="white"/>
<path d="M119.58 15.3861C120.539 15.3861 121.496 15.3861 122.717 15.3861C122.484 16.6022 122.319 17.6575 122.054 18.6859C122.008 18.8663 121.547 19.0223 121.27 19.0393C120.507 19.0881 119.74 19.0564 118.822 19.0564C118.395 21.2498 117.975 23.3823 117.567 25.5172C117.2 27.4304 116.819 29.3411 116.503 31.264C116.379 32.0146 116.047 32.2827 115.299 32.251C114.097 32.1998 112.892 32.2364 111.499 32.2364C112.327 27.8032 113.125 23.5163 113.944 19.1368C113.237 19.0954 112.645 19.0588 111.841 19.0101C112.047 17.8841 112.208 16.8264 112.465 15.7906C112.511 15.6054 112.953 15.4494 113.23 15.408C113.662 15.3446 114.109 15.3909 114.643 15.3909C115.236 12.3031 116.183 9.44923 119.402 8.2331C121.134 7.57995 122.923 7.49221 124.8 8.17217C124.482 9.43461 124.188 10.5996 123.904 11.7328C120.682 11.7694 119.725 12.5736 119.58 15.3861Z" fill="white"/>
<path d="M51.3292 19.161C50.1612 18.9757 49.2142 18.7418 48.255 18.7003C47.3833 18.6638 46.361 18.9221 46.3076 19.9213C46.276 20.5062 46.9049 21.2276 47.4051 21.7126C47.9758 22.2659 48.7479 22.6022 49.4036 23.075C52.5967 25.3878 51.5137 29.9501 48.7115 31.4392C45.9166 32.9259 43.0537 32.8186 40.152 31.778C39.528 31.5538 39.3458 31.2126 39.6032 30.5789C39.9335 29.7625 40.203 28.9217 40.5114 28.0565C41.5167 28.3416 42.4273 28.6511 43.3621 28.8437C43.9012 28.9558 44.501 28.9753 45.0376 28.8632C46.4363 28.5731 46.8442 27.2157 45.8389 26.2043C45.4188 25.7802 44.8773 25.4707 44.3674 25.149C42.6118 24.0352 41.1913 22.6826 41.3904 20.3844C41.6017 17.9302 43.061 16.4167 45.2999 15.6076C47.3517 14.8667 49.4254 14.9813 51.4991 15.5369C52.1086 15.7002 52.4097 15.9805 52.1548 16.6653C51.8488 17.4891 51.5987 18.3372 51.3292 19.161Z" fill="white"/>
<path d="M110.66 15.4201C110.507 16.3194 110.393 17.0676 110.252 17.8084C109.402 22.2684 108.528 26.7235 107.71 31.1883C107.564 31.9779 107.261 32.2996 106.452 32.2655C105.253 32.2143 104.048 32.2533 102.669 32.2533C103.043 30.2427 103.373 28.4246 103.718 26.6089C104.357 23.2652 105.024 19.9263 105.634 16.5753C105.789 15.7223 106.071 15.3104 107.032 15.3933C108.188 15.498 109.359 15.4201 110.66 15.4201Z" fill="white"/>
<path d="M111.707 10.7394C111.695 12.3454 110.571 13.4568 108.946 13.4714C107.494 13.4836 106.545 12.4941 106.588 11.0172C106.634 9.47205 107.88 8.2803 109.41 8.31929C110.796 8.35097 111.719 9.32339 111.707 10.7394Z" fill="white"/>
</svg>
