<svg width="220" height="227" viewBox="0 0 220 227" fill="none" xmlns="http://www.w3.org/2000/svg">
<path d="M92.9374 43.9548C97.7345 33.8295 103.947 17.419 107.312 5.98252C108.379 2.35568 109.528 -0.322582 109.864 0.031424C110.2 0.386289 111.526 4.15576 112.811 8.40899C119.369 30.1296 130.084 53.4992 138.935 65.3902C153.308 84.6989 175.878 98.5456 212.661 110.62C216.559 111.901 219.75 113.078 219.75 113.237C219.75 113.396 217.14 114.382 213.95 115.429C202.057 119.331 183.81 126.802 175.239 131.277C144.804 147.17 129.445 167.831 114.555 212.907C112.37 219.524 110.372 225.517 110.116 226.226C109.86 226.935 107.603 221.328 105.101 213.767C86.0128 156.098 67.9827 137.594 11.2799 117.478C5.22052 115.329 0.145843 113.453 0.00320948 113.311C-0.139424 113.168 4.49008 111.398 10.2899 109.377C57.1407 93.0533 77.1953 77.1781 92.9374 43.9548Z" fill="url(#paint0_radial_1325_17809)"/>
<defs>
<radialGradient id="paint0_radial_1325_17809" cx="0" cy="0" r="1" gradientUnits="userSpaceOnUse" gradientTransform="translate(81.5 113) rotate(14.2225) scale(111.931 108.698)">
<stop stop-color="#F0FCE9"/>
<stop offset="1" stop-color="#DDBAFE"/>
</radialGradient>
</defs>
</svg>
