<svg width="212" height="185" viewBox="0 0 212 185" fill="none" xmlns="http://www.w3.org/2000/svg">
<path d="M61.5063 18.7115C55.9856 10.931 51.186 2.63006 51.186 0.8621C51.186 -1.01116 53.5927 0.325579 55.6782 3.3557C59.7844 9.32371 68.801 26.9748 67.7433 26.9748C67.5373 26.9748 64.7309 23.2567 61.5063 18.7115Z" fill="url(#paint0_radial_1325_10201)"/>
<path d="M143.538 28.1063C143.08 27.6551 154.608 5.807 156.868 2.84375C158.934 0.136472 161.107 -0.825913 161.107 0.968178C161.107 3.33724 144.475 29.0287 143.538 28.1063Z" fill="url(#paint1_radial_1325_10201)"/>
<path d="M93.9406 80.959C90.9973 75.0924 82.6764 57.2215 75.0688 40.4267C73.7282 37.4673 72.9503 35.3918 73.3401 35.8146C74.7452 37.3389 98.658 68.9884 102.26 74.0916C104.289 76.965 106.033 79.2133 106.136 79.088C106.239 78.9628 113.324 69.5211 121.88 58.1062C130.436 46.6914 137.932 36.8331 138.538 36.1989C139.698 34.9844 128.273 60.28 119.911 77.4354C117.202 82.9929 114.986 87.6987 114.986 87.8924C114.986 88.0862 119.223 88.4989 124.402 88.8102C141.199 89.8195 160.258 92.0033 157.263 92.576C153.791 93.2402 121.737 96.1557 117.909 96.1557C116.301 96.1557 114.986 96.3356 114.986 96.5555C114.986 96.7753 116.501 99.9745 118.352 103.666C121.295 109.532 129.616 127.403 137.224 144.198C138.565 147.157 139.349 149.233 138.968 148.81C137.468 147.145 113.508 115.446 110.026 110.518C107.99 107.637 106.066 105.561 105.751 105.906C105.436 106.251 98.1768 115.872 89.6199 127.287C81.0629 138.702 73.729 148.387 73.3239 148.81C72.918 149.233 73.4331 147.676 74.4685 145.351C80.0329 132.855 89.5468 112.432 93.1711 105.201C95.4456 100.662 97.3066 96.7715 97.3066 96.5532C97.3066 96.3341 96.0253 96.1557 94.4587 96.1557C90.3578 96.1557 56.5445 93.1056 54.2607 92.5299C52.1407 91.9957 72.6705 89.7242 87.8903 88.8102C93.0697 88.4989 97.3066 88.1154 97.3066 87.957C97.3066 87.7987 95.7916 84.6502 93.9406 80.959Z" fill="url(#paint2_radial_1325_10201)"/>
<path d="M5.09847 94.1779C0.561742 93.3969 -0.678132 91.9772 2.11831 90.7627C5.11154 89.4629 43.4777 91.0286 41.081 92.3523C39.1316 93.4292 9.48915 94.9328 5.09847 94.1779Z" fill="url(#paint3_radial_1325_10201)"/>
<path d="M171.17 92.3292C170.562 91.9926 174.261 91.4045 179.626 90.9864C192.837 89.9548 207.497 89.8549 209.93 90.7796C212.991 91.9434 211.834 93.3793 207.194 94.1779C202.75 94.942 173.15 93.4231 171.17 92.3292Z" fill="url(#paint4_radial_1325_10201)"/>
<path d="M52.1115 184.554C49.498 184.554 52.552 178.636 62.5248 164.376C65.7032 159.831 68.4098 156.113 68.5404 156.113C69.0531 156.113 63.3642 167.909 59.9405 173.946C55.3753 181.998 53.4882 184.554 52.1115 184.554Z" fill="url(#paint5_radial_1325_10201)"/>
<path d="M156.557 181.185C153.94 177.381 146.466 163.463 144.538 158.803C142.911 154.871 143.162 155.142 149.995 164.682C155.509 172.38 161.107 181.965 161.107 183.705C161.107 185.649 158.718 184.325 156.557 181.185Z" fill="url(#paint6_radial_1325_10201)"/>
<defs>
<radialGradient id="paint0_radial_1325_10201" cx="0" cy="0" r="1" gradientUnits="userSpaceOnUse" gradientTransform="translate(72.8886 46.5049) rotate(63.4815) scale(211.758 242.022)">
<stop stop-color="#EEFBE7"/>
<stop offset="1" stop-color="#89CE89"/>
</radialGradient>
<radialGradient id="paint1_radial_1325_10201" cx="0" cy="0" r="1" gradientUnits="userSpaceOnUse" gradientTransform="translate(72.8886 46.5049) rotate(63.4815) scale(211.758 242.022)">
<stop stop-color="#EEFBE7"/>
<stop offset="1" stop-color="#89CE89"/>
</radialGradient>
<radialGradient id="paint2_radial_1325_10201" cx="0" cy="0" r="1" gradientUnits="userSpaceOnUse" gradientTransform="translate(72.8886 46.5049) rotate(63.4815) scale(211.758 242.022)">
<stop stop-color="#EEFBE7"/>
<stop offset="1" stop-color="#89CE89"/>
</radialGradient>
<radialGradient id="paint3_radial_1325_10201" cx="0" cy="0" r="1" gradientUnits="userSpaceOnUse" gradientTransform="translate(72.8886 46.5049) rotate(63.4815) scale(211.758 242.022)">
<stop stop-color="#EEFBE7"/>
<stop offset="1" stop-color="#89CE89"/>
</radialGradient>
<radialGradient id="paint4_radial_1325_10201" cx="0" cy="0" r="1" gradientUnits="userSpaceOnUse" gradientTransform="translate(72.8886 46.5049) rotate(63.4815) scale(211.758 242.022)">
<stop stop-color="#EEFBE7"/>
<stop offset="1" stop-color="#89CE89"/>
</radialGradient>
<radialGradient id="paint5_radial_1325_10201" cx="0" cy="0" r="1" gradientUnits="userSpaceOnUse" gradientTransform="translate(72.8886 46.5049) rotate(63.4815) scale(211.758 242.022)">
<stop stop-color="#EEFBE7"/>
<stop offset="1" stop-color="#89CE89"/>
</radialGradient>
<radialGradient id="paint6_radial_1325_10201" cx="0" cy="0" r="1" gradientUnits="userSpaceOnUse" gradientTransform="translate(72.8886 46.5049) rotate(63.4815) scale(211.758 242.022)">
<stop stop-color="#EEFBE7"/>
<stop offset="1" stop-color="#89CE89"/>
</radialGradient>
</defs>
</svg>
