<svg width="25" height="25" viewBox="0 0 25 25" fill="none" xmlns="http://www.w3.org/2000/svg">
<path d="M23.989 19.3363C24.0389 18.2268 23.9961 17.1244 23.9961 16.0041C23.9925 14.465 23.9676 12.926 23.9676 11.3869C23.9676 11.3762 23.9676 11.1936 23.9676 11.1936H20.1447V13.2588C20.1447 14.6834 20.1483 16.1115 20.1518 17.536C20.1554 18.2483 20.1554 18.9569 20.1554 19.6692C20.1554 20.292 19.8951 20.8289 19.2603 20.9792C18.8609 21.0723 18.4116 20.9685 18.1156 20.6821C17.5521 20.1488 17.6449 19.2612 17.6449 18.5597C17.6484 17.5897 17.652 16.6233 17.652 15.6533C17.6556 13.7492 17.652 11.845 17.652 9.94091C17.652 8.5128 17.2241 7.20281 16.2149 6.15052C15.0701 4.96222 13.4012 4.35018 11.7679 4.62935C10.3165 4.8799 8.96851 5.78186 8.20537 7.05248C7.52781 8.19425 7.51354 9.51856 7.51354 10.8107C7.51354 12.3676 7.51711 13.9282 7.51711 15.4851C7.51711 16.2761 7.42796 17.2461 6.54356 17.5253C6.12276 17.6577 5.63064 17.5467 5.31682 17.2353C5.00657 16.9275 4.89245 16.4694 4.86749 16.0291C4.72485 13.7277 4.86036 11.3976 4.86036 9.09263H1.03749C1.03749 10.6711 1.03749 12.2495 1.03749 13.8279C1.03749 14.3899 1.03036 14.9482 1.02323 15.5102C1.00896 16.3906 1.18013 17.2711 1.49752 18.0944C1.65443 18.4988 1.85413 18.8889 2.10376 19.2433C3.0773 20.6284 4.8033 21.4266 6.4865 21.3192C8.10195 21.2154 9.68531 20.2991 10.4877 18.8675C11.7893 16.5517 11.2045 13.5774 11.2651 11.0505C11.2829 10.3096 11.044 8.89936 11.8642 8.48775C12.0924 8.30163 12.3884 8.18351 12.6844 8.21573C12.9697 8.24436 13.23 8.41616 13.419 8.63449C14.1643 9.51498 13.8933 10.7462 13.8933 11.7985C13.8969 13.0835 13.8897 14.3684 13.8684 15.6497C13.847 17.0277 13.7293 18.4272 13.8719 19.7981C14.0752 21.7308 15.0559 23.4274 16.846 24.2649C18.6255 25.0989 20.7723 24.8519 22.2772 23.5705C23.1616 22.8189 23.75 21.6736 23.8927 20.5175C23.9426 20.1273 23.9711 19.7301 23.989 19.3363ZM14.2036 12.2137V12.1779C14.2071 12.1815 14.2143 12.1851 14.2178 12.1851C14.2143 12.1922 14.2071 12.203 14.2036 12.2137Z" fill="white"/>
<path d="M14.2177 12.1849C14.2142 12.1921 14.2071 12.2029 14.2036 12.2137V12.1777C14.2071 12.1813 14.2142 12.1849 14.2177 12.1849Z" fill="white"/>
<path d="M14.2177 12.1849C14.2142 12.1921 14.2071 12.2029 14.2036 12.2137V12.1777C14.2071 12.1813 14.2142 12.1849 14.2177 12.1849Z" fill="white"/>
<path d="M14.2177 12.1849C14.2142 12.1921 14.2071 12.2029 14.2036 12.2137V12.1777C14.2071 12.1813 14.2142 12.1849 14.2177 12.1849Z" fill="white"/>
<path d="M14.2177 12.1849C14.2142 12.1921 14.2071 12.2029 14.2036 12.2137V12.1777C14.2071 12.1813 14.2142 12.1849 14.2177 12.1849Z" fill="white"/>
<path d="M3.24159 7.20232C5.03187 7.20232 6.48318 5.74568 6.48318 3.94882C6.48318 2.15196 5.03187 0.695312 3.24159 0.695312C1.45131 0.695312 0 2.15196 0 3.94882C0 5.74568 1.45131 7.20232 3.24159 7.20232Z" fill="#4CAF50"/>
<path d="M21.9492 9.2571C23.2569 9.2571 24.3171 8.19306 24.3171 6.8805C24.3171 5.56794 23.2569 4.50391 21.9492 4.50391C20.6414 4.50391 19.5813 5.56794 19.5813 6.8805C19.5813 8.19306 20.6414 9.2571 21.9492 9.2571Z" fill="#4CAF50"/>
</svg>
